<?xml version="1.0" encoding="UTF-8"?><svg xmlns="http://www.w3.org/2000/svg" xmlns:xlink="http://www.w3.org/1999/xlink" viewBox="0 0 1424.5 219.16"><defs><style>.ab{fill:url(#t);}.ac{fill:url(#r);}.ad{fill:url(#y);}.ae{fill:url(#l);}.af{fill:url(#u);}.ag{fill:url(#v);}.ah{fill:url(#a`);}.ai{fill:url(#m);}.aj{fill:url(#f);}.ak{fill:url(#p);}.al{fill:url(#g);}.am{fill:url(#i);}.an{fill:url(#h);}.ao{fill:url(#d);}.ap{fill:url(#e);}.aq{fill:url(#x);}.ar{fill:url(#aa);}.as{fill:url(#s);}.at{fill:url(#n);}.au{fill:url(#w);}.av{fill:url(#j);}.aw{fill:url(#o);}.ax{fill:url(#q);}.ay{fill:url(#k);}</style><linearGradient id="d" x1="112.67" y1="307.8" x2="112.67" y2="-22.52" gradientTransform="matrix(1, 0, 0, 1, 0, 0)" gradientUnits="userSpaceOnUse"><stop offset="0" stop-color="#c70095"/><stop offset="1" stop-color="#ff90a3"/></linearGradient><linearGradient id="e" x1="297.48" y1="307.8" x2="297.48" y2="-22.52" xlink:href="#d"/><linearGradient id="f" x1="422.35" y1="307.8" x2="422.35" y2="-22.52" xlink:href="#d"/><linearGradient id="g" x1="606.65" y1="307.8" x2="606.65" y2="-22.52" xlink:href="#d"/><linearGradient id="h" x1="791.2" y1="307.8" x2="791.2" y2="-22.52" xlink:href="#d"/><linearGradient id="i" x1="981" y1="307.8" x2="981" y2="-22.52" xlink:href="#d"/><linearGradient id="j" x1="1164.92" y1="307.8" x2="1164.92" y2="-22.52" xlink:href="#d"/><linearGradient id="k" x1="1340.66" y1="307.8" x2="1340.66" y2="-22.52" xlink:href="#d"/><linearGradient id="l" x1="0" y1="97.9" x2="165.13" y2="97.9" gradientTransform="matrix(1, 0, 0, 1, 0, 0)" gradientUnits="userSpaceOnUse"><stop offset="0" stop-color="#ff4d75"/><stop offset=".98" stop-color="#ff6384"/></linearGradient><linearGradient id="m" x1="185.58" y1="96.62" x2="349.18" y2="96.62" xlink:href="#l"/><linearGradient id="n" x1="369.62" y1="96.5" x2="414.87" y2="96.5" xlink:href="#l"/><linearGradient id="o" x1="496.15" y1="96.88" x2="656.94" y2="96.88" xlink:href="#l"/><linearGradient id="p" x1="667.16" y1="97.78" x2="855.04" y2="97.78" xlink:href="#l"/><linearGradient id="q" x1="869.1" y1="96.62" x2="1032.69" y2="96.62" xlink:href="#l"/><linearGradient id="r" x1="1053.14" y1="96.24" x2="1216.48" y2="96.24" xlink:href="#l"/><linearGradient id="s" x1="1226.71" y1="95.35" x2="1394.39" y2="95.35" xlink:href="#l"/><linearGradient id="t" x1="97.22" y1="286.25" x2="97.22" y2="-44.07" gradientTransform="matrix(1, 0, 0, 1, 0, 0)" gradientUnits="userSpaceOnUse"><stop offset="0" stop-color="#ff7793"/><stop offset=".15" stop-color="#ffe5dd"/><stop offset="1" stop-color="#fff"/></linearGradient><linearGradient id="u" x1="282.03" y1="286.25" x2="282.03" y2="-44.07" xlink:href="#t"/><linearGradient id="v" x1="406.9" y1="286.25" x2="406.9" y2="-44.07" xlink:href="#t"/><linearGradient id="w" x1="591.2" y1="286.25" x2="591.2" y2="-44.07" xlink:href="#t"/><linearGradient id="x" x1="775.75" y1="286.25" x2="775.75" y2="-44.07" xlink:href="#t"/><linearGradient id="y" x1="965.55" y1="286.25" x2="965.55" y2="-44.07" xlink:href="#t"/><linearGradient id="a`" x1="1149.47" y1="286.25" x2="1149.47" y2="-44.07" xlink:href="#t"/><linearGradient id="aa" x1="1325.21" y1="286.25" x2="1325.21" y2="-44.07" xlink:href="#t"/></defs><g id="a"/><g id="b"><g id="c"><g><g><path class="ao" d="M152.55,35.62c1.7-2.72,4.17-4.6,7.41-5.62,3.23-1.02,7.29-1.53,12.14-1.53s8.73,.43,11.63,1.28c2.9,.85,5.11,1.88,6.65,3.07,1.53,1.19,2.64,2.98,3.32,5.37,1.02,2.9,1.53,7.33,1.53,13.29v77.2c0,22.5-6.99,42.94-20.96,61.35-6.82,8.69-15.59,15.72-26.33,21.09-10.74,5.37-22.62,8.05-35.66,8.05s-24.88-2.73-35.53-8.18c-10.65-5.45-19.3-12.61-25.95-21.47-13.8-18.06-20.71-38.51-20.71-61.35V51.22c0-4.09,.13-7.11,.38-9.07,.26-1.96,1.06-4.22,2.43-6.77,1.36-2.56,3.66-4.35,6.9-5.37,3.24-1.02,7.58-1.53,13.04-1.53s9.8,.51,13.04,1.53c3.23,1.02,5.45,2.81,6.65,5.37,2.04,3.92,3.07,9.29,3.07,16.1v76.69c0,10.4,2.56,20.28,7.67,29.65,2.56,4.77,6.39,8.61,11.5,11.5,5.11,2.9,11.16,4.35,18.15,4.35,12.44,0,21.73-4.6,27.86-13.8s9.2-19.85,9.2-31.95V49.68c0-6.65,.85-11.33,2.56-14.06Z"/><path class="ap" d="M336.72,36.52c1.62-2.98,4.05-4.98,7.29-6.01,3.23-1.02,7.29-1.53,12.14-1.53s8.77,.43,11.76,1.28c2.98,.85,5.2,1.88,6.65,3.07,1.45,1.19,2.51,2.98,3.19,5.37,1.02,2.73,1.53,7.07,1.53,13.04V193.6c0,4.09-.13,7.07-.38,8.95-.26,1.88-1.07,4.09-2.43,6.65-2.39,4.6-9.03,6.9-19.94,6.9-6.65,0-11.25-.51-13.8-1.53-2.56-1.02-4.69-2.64-6.39-4.86-38.34-51.12-63.57-84.52-75.66-100.2v84.1c0,4.09-.13,7.07-.38,8.95-.26,1.88-1.07,4.09-2.43,6.65-2.39,4.6-9.04,6.9-19.94,6.9s-17.04-2.3-19.43-6.9c-1.37-2.56-2.17-4.86-2.43-6.9-.26-2.04-.38-5.02-.38-8.95V50.7c0-6.47,.81-11.2,2.43-14.19,1.62-2.98,4.05-4.98,7.29-6.01,3.24-1.02,7.41-1.53,12.53-1.53s9.16,.47,12.14,1.41c2.98,.94,5.07,2,6.26,3.2,.68,.51,2.64,2.73,5.88,6.65,35.96,48.91,59.98,81.2,72.09,96.88V50.7c0-6.47,.81-11.2,2.43-14.19Z"/><path class="aj" d="M399.73,51.22c0-3.92,.13-6.86,.38-8.82,.26-1.96,1.06-4.22,2.43-6.77,2.38-4.6,9.03-6.9,19.94-6.9,11.93,0,19,3.16,21.22,9.46,.85,2.9,1.28,7.33,1.28,13.29V193.6c0,4.09-.13,7.07-.38,8.95-.26,1.88-1.07,4.09-2.43,6.65-2.39,4.6-9.03,6.9-19.94,6.9-11.93,0-18.92-3.24-20.96-9.71-1.02-2.72-1.53-7.07-1.53-13.04V51.22Z"/><path class="al" d="M647.16,167.01l4.6-3.32c5.79-3.41,9.88-5.11,12.27-5.11,5.28,0,10.99,4.77,17.13,14.31,3.75,5.97,5.62,10.74,5.62,14.32s-1.15,6.56-3.45,8.95c-2.3,2.39-4.98,4.52-8.05,6.39-3.07,1.88-6.01,3.67-8.82,5.37-2.81,1.71-8.56,3.92-17.25,6.65-8.69,2.72-17.09,4.09-25.18,4.09s-16.28-1.07-24.54-3.2c-8.27-2.13-16.79-5.71-25.56-10.74-8.78-5.02-16.66-11.16-23.64-18.4-6.99-7.24-12.74-16.53-17.25-27.86-4.52-11.33-6.77-23.65-6.77-36.94s2.21-25.35,6.65-36.17c4.43-10.82,10.1-19.77,17-26.84,6.9-7.07,14.78-12.99,23.64-17.77,16.7-9.2,33.49-13.8,50.36-13.8,8.01,0,16.14,1.24,24.41,3.71,8.26,2.47,14.53,4.98,18.79,7.54l6.13,3.58c3.07,1.88,5.45,3.41,7.16,4.6,4.43,3.58,6.65,7.63,6.65,12.14s-1.79,9.25-5.37,14.19c-6.65,9.2-12.61,13.8-17.89,13.8-3.07,0-7.41-1.87-13.04-5.62-7.16-5.79-16.7-8.69-28.63-8.69-11.08,0-21.98,3.83-32.72,11.5-5.11,3.75-9.37,9.03-12.78,15.85-3.41,6.82-5.11,14.53-5.11,23.13s1.7,16.32,5.11,23.13c3.41,6.82,7.75,12.19,13.04,16.1,10.39,7.5,21.22,11.25,32.46,11.25,5.28,0,10.27-.68,14.95-2.05,4.68-1.36,8.05-2.72,10.1-4.09Z"/><path class="an" d="M811.78,42.01l69.02,142.64c2.9,5.8,4.35,10.14,4.35,13.04,0,6.13-4.94,11.67-14.83,16.62-5.8,2.9-10.35,4.35-13.68,4.35s-6.05-.77-8.18-2.3c-2.13-1.53-3.67-3.15-4.6-4.86-.94-1.7-2.26-4.26-3.96-7.67l-13.29-27.61h-70.81l-13.29,27.61c-1.71,3.41-3.03,5.88-3.96,7.41-.94,1.53-2.47,3.11-4.6,4.73-2.13,1.62-4.86,2.43-8.18,2.43s-7.88-1.45-13.68-4.34c-9.88-4.77-14.83-10.23-14.83-16.36,0-2.9,1.45-7.24,4.34-13.04l69.02-142.89c1.87-3.92,4.73-7.07,8.56-9.46,3.83-2.39,7.88-3.58,12.14-3.58,9.2,0,16.02,4.43,20.45,13.29Zm-20.71,61.35l-16.87,35.02h34l-17.13-35.02Z"/><path class="am" d="M1020.24,36.52c1.62-2.98,4.05-4.98,7.29-6.01,3.23-1.02,7.29-1.53,12.14-1.53s8.77,.43,11.76,1.28c2.98,.85,5.2,1.88,6.65,3.07,1.45,1.19,2.51,2.98,3.19,5.37,1.02,2.73,1.53,7.07,1.53,13.04V193.6c0,4.09-.13,7.07-.38,8.95-.26,1.88-1.07,4.09-2.43,6.65-2.39,4.6-9.03,6.9-19.94,6.9-6.65,0-11.25-.51-13.8-1.53-2.56-1.02-4.69-2.64-6.39-4.86-38.34-51.12-63.57-84.52-75.66-100.2v84.1c0,4.09-.13,7.07-.38,8.95-.26,1.88-1.07,4.09-2.43,6.65-2.39,4.6-9.04,6.9-19.94,6.9s-17.04-2.3-19.43-6.9c-1.37-2.56-2.17-4.86-2.43-6.9-.26-2.04-.38-5.02-.38-8.95V50.7c0-6.47,.81-11.2,2.43-14.19,1.62-2.98,4.05-4.98,7.29-6.01,3.24-1.02,7.41-1.53,12.53-1.53s9.16,.47,12.14,1.41c2.98,.94,5.07,2,6.26,3.2,.68,.51,2.64,2.73,5.88,6.65,35.96,48.91,59.98,81.2,72.09,96.88V50.7c0-6.47,.81-11.2,2.43-14.19Z"/><path class="av" d="M1106,28.46l47.29,.26c24.71,0,46.44,8.91,65.18,26.71,18.74,17.81,28.12,39.71,28.12,65.69s-9.16,48.27-27.48,66.84c-18.32,18.58-40.52,27.86-66.59,27.86h-46.78c-10.4,0-16.87-2.13-19.43-6.39-2.05-3.58-3.07-9.03-3.07-16.36V50.96c0-4.09,.13-7.07,.38-8.95,.26-1.87,1.06-4.09,2.43-6.65,2.38-4.6,9.03-6.9,19.94-6.9Zm80.52,128.45c9.88-9.12,14.83-20.58,14.83-34.38s-4.82-25.35-14.44-34.64c-9.63-9.29-20.92-13.93-33.87-13.93h-24.54v96.62h24.79c12.27,0,23.35-4.56,33.23-13.68Z"/><path class="ay" d="M1411.97,32.3c8.35,5.8,12.53,11.42,12.53,16.87,0,3.24-1.96,7.76-5.88,13.55l-55.21,82.57v48.82c0,3.92-.13,6.86-.38,8.82-.26,1.96-1.07,4.22-2.43,6.77-1.37,2.56-3.67,4.35-6.9,5.37-3.24,1.02-7.59,1.53-13.04,1.53s-9.8-.51-13.04-1.53c-3.24-1.02-5.54-2.85-6.9-5.5-1.37-2.64-2.17-4.94-2.43-6.9-.26-1.96-.38-4.98-.38-9.07v-48.31l-55.21-82.57c-3.92-5.79-5.88-10.31-5.88-13.55,0-5.45,3.75-10.69,11.25-15.72,7.5-5.02,12.86-7.54,16.1-7.54s5.79,.68,7.67,2.05c2.9,1.88,5.96,5.37,9.2,10.48l39.62,63.39,39.62-63.39c3.24-5.11,6.05-8.48,8.44-10.1,2.38-1.62,5.15-2.43,8.31-2.43s8.14,2.13,14.95,6.39Z"/></g><g><path class="ae" d="M122.44,9.71c1.7-2.72,4.17-4.6,7.41-5.62,3.23-1.02,7.29-1.53,12.14-1.53s8.73,.43,11.63,1.28c2.9,.85,5.11,1.88,6.65,3.07,1.53,1.19,2.64,2.98,3.32,5.37,1.02,2.9,1.53,7.33,1.53,13.29V102.76c0,22.5-6.99,42.94-20.96,61.35-6.82,8.69-15.59,15.72-26.33,21.09-10.74,5.37-22.62,8.05-35.66,8.05s-24.88-2.73-35.53-8.18c-10.65-5.45-19.3-12.61-25.95-21.47C6.9,145.54,0,125.09,0,102.25V25.31c0-4.09,.13-7.11,.38-9.07,.26-1.96,1.06-4.22,2.43-6.77,1.36-2.56,3.66-4.35,6.9-5.37,3.24-1.02,7.58-1.53,13.04-1.53s9.8,.51,13.04,1.53c3.23,1.02,5.45,2.81,6.65,5.37,2.04,3.92,3.07,9.29,3.07,16.1V102.25c0,10.4,2.56,20.28,7.67,29.65,2.56,4.77,6.39,8.61,11.5,11.5,5.11,2.9,11.16,4.35,18.15,4.35,12.44,0,21.73-4.6,27.86-13.8s9.2-19.85,9.2-31.95V23.77c0-6.65,.85-11.33,2.56-14.06Z"/><path class="ai" d="M306.62,10.61c1.62-2.98,4.05-4.98,7.29-6.01,3.23-1.02,7.29-1.53,12.14-1.53s8.77,.43,11.76,1.28c2.98,.85,5.2,1.88,6.65,3.07,1.45,1.19,2.51,2.98,3.19,5.37,1.02,2.73,1.53,7.07,1.53,13.04V167.69c0,4.09-.13,7.07-.38,8.95-.26,1.88-1.07,4.09-2.43,6.65-2.39,4.6-9.03,6.9-19.94,6.9-6.65,0-11.25-.51-13.8-1.53-2.56-1.02-4.69-2.64-6.39-4.86-38.34-51.12-63.57-84.52-75.66-100.2v84.1c0,4.09-.13,7.07-.38,8.95-.26,1.88-1.07,4.09-2.43,6.65-2.39,4.6-9.04,6.9-19.94,6.9s-17.04-2.3-19.43-6.9c-1.37-2.56-2.17-4.86-2.43-6.9-.26-2.04-.38-5.02-.38-8.95V24.8c0-6.47,.81-11.2,2.43-14.19,1.62-2.98,4.05-4.98,7.29-6.01,3.24-1.02,7.41-1.53,12.53-1.53s9.16,.47,12.14,1.41c2.98,.94,5.07,2,6.26,3.2,.68,.51,2.64,2.73,5.88,6.65,35.96,48.91,59.98,81.2,72.09,96.88V24.8c0-6.47,.81-11.2,2.43-14.19Z"/><path class="at" d="M369.62,25.31c0-3.92,.13-6.86,.38-8.82,.26-1.96,1.06-4.22,2.43-6.77,2.38-4.6,9.03-6.9,19.94-6.9,11.93,0,19,3.16,21.22,9.46,.85,2.9,1.28,7.33,1.28,13.29V167.69c0,4.09-.13,7.07-.38,8.95-.26,1.88-1.07,4.09-2.43,6.65-2.39,4.6-9.03,6.9-19.94,6.9-11.93,0-18.92-3.24-20.96-9.71-1.02-2.72-1.53-7.07-1.53-13.04V25.31Z"/><path class="aw" d="M617.06,141.1l4.6-3.32c5.79-3.41,9.88-5.11,12.27-5.11,5.28,0,10.99,4.77,17.13,14.31,3.75,5.97,5.62,10.74,5.62,14.32s-1.15,6.56-3.45,8.95c-2.3,2.39-4.98,4.52-8.05,6.39-3.07,1.88-6.01,3.67-8.82,5.37-2.81,1.71-8.56,3.92-17.25,6.65-8.69,2.72-17.09,4.09-25.18,4.09s-16.28-1.07-24.54-3.2c-8.27-2.13-16.79-5.71-25.56-10.74-8.78-5.02-16.66-11.16-23.64-18.4-6.99-7.24-12.74-16.53-17.25-27.86-4.52-11.33-6.77-23.65-6.77-36.94s2.21-25.35,6.65-36.17c4.43-10.82,10.1-19.77,17-26.84,6.9-7.07,14.78-12.99,23.64-17.77,16.7-9.2,33.49-13.8,50.36-13.8,8.01,0,16.14,1.24,24.41,3.71,8.26,2.47,14.53,4.98,18.79,7.54l6.13,3.58c3.07,1.88,5.45,3.41,7.16,4.6,4.43,3.58,6.65,7.63,6.65,12.14s-1.79,9.25-5.37,14.19c-6.65,9.2-12.61,13.8-17.89,13.8-3.07,0-7.41-1.87-13.04-5.62-7.16-5.79-16.7-8.69-28.63-8.69-11.08,0-21.98,3.83-32.72,11.5-5.11,3.75-9.37,9.03-12.78,15.85-3.41,6.82-5.11,14.53-5.11,23.13s1.7,16.32,5.11,23.13c3.41,6.82,7.75,12.19,13.04,16.1,10.39,7.5,21.22,11.25,32.46,11.25,5.28,0,10.27-.68,14.95-2.05,4.68-1.36,8.05-2.72,10.1-4.09Z"/><path class="ak" d="M781.68,16.1l69.02,142.64c2.9,5.8,4.35,10.14,4.35,13.04,0,6.13-4.94,11.67-14.83,16.62-5.8,2.9-10.35,4.35-13.68,4.35s-6.05-.77-8.18-2.3c-2.13-1.53-3.67-3.15-4.6-4.86-.94-1.7-2.26-4.26-3.96-7.67l-13.29-27.61h-70.81l-13.29,27.61c-1.71,3.41-3.03,5.88-3.96,7.41-.94,1.53-2.47,3.11-4.6,4.73-2.13,1.62-4.86,2.43-8.18,2.43s-7.88-1.45-13.68-4.34c-9.88-4.77-14.83-10.23-14.83-16.36,0-2.9,1.45-7.24,4.34-13.04L740.52,15.85c1.87-3.92,4.73-7.07,8.56-9.46,3.83-2.39,7.88-3.58,12.14-3.58,9.2,0,16.02,4.43,20.45,13.29Zm-20.71,61.35l-16.87,35.02h34l-17.13-35.02Z"/><path class="ax" d="M990.13,10.61c1.62-2.98,4.05-4.98,7.29-6.01,3.23-1.02,7.29-1.53,12.14-1.53s8.77,.43,11.76,1.28c2.98,.85,5.2,1.88,6.65,3.07,1.45,1.19,2.51,2.98,3.19,5.37,1.02,2.73,1.53,7.07,1.53,13.04V167.69c0,4.09-.13,7.07-.38,8.95-.26,1.88-1.07,4.09-2.43,6.65-2.39,4.6-9.03,6.9-19.94,6.9-6.65,0-11.25-.51-13.8-1.53-2.56-1.02-4.69-2.64-6.39-4.86-38.34-51.12-63.57-84.52-75.66-100.2v84.1c0,4.09-.13,7.07-.38,8.95-.26,1.88-1.07,4.09-2.43,6.65-2.39,4.6-9.04,6.9-19.94,6.9s-17.04-2.3-19.43-6.9c-1.37-2.56-2.17-4.86-2.43-6.9-.26-2.04-.38-5.02-.38-8.95V24.8c0-6.47,.81-11.2,2.43-14.19,1.62-2.98,4.05-4.98,7.29-6.01,3.24-1.02,7.41-1.53,12.53-1.53s9.16,.47,12.14,1.41c2.98,.94,5.07,2,6.26,3.2,.68,.51,2.64,2.73,5.88,6.65,35.96,48.91,59.98,81.2,72.09,96.88V24.8c0-6.47,.81-11.2,2.43-14.19Z"/><path class="ac" d="M1075.89,2.56l47.29,.26c24.71,0,46.44,8.91,65.18,26.71,18.74,17.81,28.12,39.71,28.12,65.69s-9.16,48.27-27.48,66.84c-18.32,18.58-40.52,27.86-66.59,27.86h-46.78c-10.4,0-16.87-2.13-19.43-6.39-2.05-3.58-3.07-9.03-3.07-16.36V25.05c0-4.09,.13-7.07,.38-8.95,.26-1.87,1.06-4.09,2.43-6.65,2.38-4.6,9.03-6.9,19.94-6.9Zm80.52,128.45c9.88-9.12,14.83-20.58,14.83-34.38s-4.82-25.35-14.44-34.64c-9.63-9.29-20.92-13.93-33.87-13.93h-24.54v96.62h24.79c12.27,0,23.35-4.56,33.23-13.68Z"/><path class="as" d="M1381.87,6.39c8.35,5.8,12.53,11.42,12.53,16.87,0,3.24-1.96,7.76-5.88,13.55l-55.21,82.57v48.82c0,3.92-.13,6.86-.38,8.82-.26,1.96-1.07,4.22-2.43,6.77-1.37,2.56-3.67,4.35-6.9,5.37-3.24,1.02-7.59,1.53-13.04,1.53s-9.8-.51-13.04-1.53c-3.24-1.02-5.54-2.85-6.9-5.5-1.37-2.64-2.17-4.94-2.43-6.9-.26-1.96-.38-4.98-.38-9.07v-48.31l-55.21-82.57c-3.92-5.79-5.88-10.31-5.88-13.55,0-5.45,3.75-10.69,11.25-15.72,7.5-5.02,12.86-7.54,16.1-7.54s5.79,.68,7.67,2.05c2.9,1.88,5.96,5.37,9.2,10.48l39.62,63.39,39.62-63.39c3.24-5.11,6.05-8.48,8.44-10.1,2.38-1.62,5.15-2.43,8.31-2.43s8.14,2.13,14.95,6.39Z"/></g><g><path class="ab" d="M137.1,14.07c1.7-2.72,4.17-4.6,7.41-5.62,3.23-1.02,7.29-1.53,12.14-1.53s8.73,.43,11.63,1.28c2.9,.85,5.11,1.88,6.65,3.07,1.53,1.19,2.64,2.98,3.32,5.37,1.02,2.9,1.53,7.33,1.53,13.29V107.11c0,22.5-6.99,42.94-20.96,61.35-6.82,8.69-15.59,15.72-26.33,21.09-10.74,5.37-22.62,8.05-35.66,8.05s-24.88-2.73-35.53-8.18c-10.65-5.45-19.3-12.61-25.95-21.47-13.8-18.06-20.71-38.51-20.71-61.35V29.66c0-4.09,.13-7.11,.38-9.07,.26-1.96,1.06-4.22,2.43-6.77,1.36-2.56,3.66-4.35,6.9-5.37,3.24-1.02,7.58-1.53,13.04-1.53s9.8,.51,13.04,1.53c3.23,1.02,5.45,2.81,6.65,5.37,2.04,3.92,3.07,9.29,3.07,16.1V106.6c0,10.4,2.56,20.28,7.67,29.65,2.56,4.77,6.39,8.61,11.5,11.5,5.11,2.9,11.16,4.35,18.15,4.35,12.44,0,21.73-4.6,27.86-13.8,6.13-9.2,9.2-19.85,9.2-31.95V28.13c0-6.65,.85-11.33,2.56-14.06Z"/><path class="af" d="M321.27,14.96c1.62-2.98,4.05-4.98,7.29-6.01,3.23-1.02,7.29-1.53,12.14-1.53s8.77,.43,11.76,1.28c2.98,.85,5.2,1.88,6.65,3.07,1.45,1.19,2.51,2.98,3.19,5.37,1.02,2.73,1.53,7.07,1.53,13.04V172.04c0,4.09-.13,7.07-.38,8.95-.26,1.88-1.07,4.09-2.43,6.65-2.39,4.6-9.03,6.9-19.94,6.9-6.65,0-11.25-.51-13.8-1.53-2.56-1.02-4.69-2.64-6.39-4.86-38.34-51.12-63.57-84.52-75.66-100.2v84.1c0,4.09-.13,7.07-.38,8.95-.26,1.88-1.07,4.09-2.43,6.65-2.39,4.6-9.04,6.9-19.94,6.9s-17.04-2.3-19.43-6.9c-1.37-2.56-2.17-4.86-2.43-6.9-.26-2.04-.38-5.02-.38-8.95V29.15c0-6.47,.81-11.2,2.43-14.19,1.62-2.98,4.05-4.98,7.29-6.01,3.24-1.02,7.41-1.53,12.53-1.53s9.16,.47,12.14,1.41c2.98,.94,5.07,2,6.26,3.2,.68,.51,2.64,2.73,5.88,6.65,35.96,48.91,59.98,81.2,72.09,96.88V29.15c0-6.47,.81-11.2,2.43-14.19Z"/><path class="ag" d="M384.28,29.66c0-3.92,.13-6.86,.38-8.82,.26-1.96,1.06-4.22,2.43-6.77,2.38-4.6,9.03-6.9,19.94-6.9,11.93,0,19,3.16,21.22,9.46,.85,2.9,1.28,7.33,1.28,13.29V172.04c0,4.09-.13,7.07-.38,8.95-.26,1.88-1.07,4.09-2.43,6.65-2.39,4.6-9.03,6.9-19.94,6.9-11.93,0-18.92-3.24-20.96-9.71-1.02-2.72-1.53-7.07-1.53-13.04V29.66Z"/><path class="au" d="M631.71,145.46l4.6-3.32c5.79-3.41,9.88-5.11,12.27-5.11,5.28,0,10.99,4.77,17.13,14.31,3.75,5.97,5.62,10.74,5.62,14.32s-1.15,6.56-3.45,8.95c-2.3,2.39-4.98,4.52-8.05,6.39-3.07,1.88-6.01,3.67-8.82,5.37-2.81,1.71-8.56,3.92-17.25,6.65-8.69,2.72-17.09,4.09-25.18,4.09s-16.28-1.07-24.54-3.2c-8.27-2.13-16.79-5.71-25.56-10.74-8.78-5.02-16.66-11.16-23.64-18.4-6.99-7.24-12.74-16.53-17.25-27.86-4.52-11.33-6.77-23.65-6.77-36.94s2.21-25.35,6.65-36.17c4.43-10.82,10.1-19.77,17-26.84,6.9-7.07,14.78-12.99,23.64-17.77,16.7-9.2,33.49-13.8,50.36-13.8,8.01,0,16.14,1.24,24.41,3.71,8.26,2.47,14.53,4.98,18.79,7.54l6.13,3.58c3.07,1.88,5.45,3.41,7.16,4.6,4.43,3.58,6.65,7.63,6.65,12.14s-1.79,9.25-5.37,14.19c-6.65,9.2-12.61,13.8-17.89,13.8-3.07,0-7.41-1.87-13.04-5.62-7.16-5.79-16.7-8.69-28.63-8.69-11.08,0-21.98,3.83-32.72,11.5-5.11,3.75-9.37,9.03-12.78,15.85-3.41,6.82-5.11,14.53-5.11,23.13s1.7,16.32,5.11,23.13c3.41,6.82,7.75,12.19,13.04,16.1,10.39,7.5,21.22,11.25,32.46,11.25,5.28,0,10.27-.68,14.95-2.05,4.68-1.36,8.05-2.72,10.1-4.09Z"/><path class="aq" d="M796.33,20.46l69.02,142.64c2.9,5.8,4.35,10.14,4.35,13.04,0,6.13-4.94,11.67-14.83,16.62-5.8,2.9-10.35,4.35-13.68,4.35s-6.05-.77-8.18-2.3c-2.13-1.53-3.67-3.15-4.6-4.86-.94-1.7-2.26-4.26-3.96-7.67l-13.29-27.61h-70.81l-13.29,27.61c-1.71,3.41-3.03,5.88-3.96,7.41-.94,1.53-2.47,3.11-4.6,4.73-2.13,1.62-4.86,2.43-8.18,2.43s-7.88-1.45-13.68-4.34c-9.88-4.77-14.83-10.23-14.83-16.36,0-2.9,1.45-7.24,4.34-13.04L755.18,20.2c1.87-3.92,4.73-7.07,8.56-9.46,3.83-2.39,7.88-3.58,12.14-3.58,9.2,0,16.02,4.43,20.45,13.29Zm-20.71,61.35l-16.87,35.02h34l-17.13-35.02Z"/><path class="ad" d="M1004.79,14.96c1.62-2.98,4.05-4.98,7.29-6.01,3.23-1.02,7.29-1.53,12.14-1.53s8.77,.43,11.76,1.28c2.98,.85,5.2,1.88,6.65,3.07,1.45,1.19,2.51,2.98,3.19,5.37,1.02,2.73,1.53,7.07,1.53,13.04V172.04c0,4.09-.13,7.07-.38,8.95-.26,1.88-1.07,4.09-2.43,6.65-2.39,4.6-9.03,6.9-19.94,6.9-6.65,0-11.25-.51-13.8-1.53-2.56-1.02-4.69-2.64-6.39-4.86-38.34-51.12-63.57-84.52-75.66-100.2v84.1c0,4.09-.13,7.07-.38,8.95-.26,1.88-1.07,4.09-2.43,6.65-2.39,4.6-9.04,6.9-19.94,6.9s-17.04-2.3-19.43-6.9c-1.37-2.56-2.17-4.86-2.43-6.9-.26-2.04-.38-5.02-.38-8.95V29.15c0-6.47,.81-11.2,2.43-14.19,1.62-2.98,4.05-4.98,7.29-6.01,3.24-1.02,7.41-1.53,12.53-1.53s9.16,.47,12.14,1.41c2.98,.94,5.07,2,6.26,3.2,.68,.51,2.64,2.73,5.88,6.65,35.96,48.91,59.98,81.2,72.09,96.88V29.15c0-6.47,.81-11.2,2.43-14.19Z"/><path class="ah" d="M1090.55,6.91l47.29,.26c24.71,0,46.44,8.91,65.18,26.71,18.74,17.81,28.12,39.71,28.12,65.69s-9.16,48.27-27.48,66.84c-18.32,18.58-40.52,27.86-66.59,27.86h-46.78c-10.4,0-16.87-2.13-19.43-6.39-2.05-3.58-3.07-9.03-3.07-16.36V29.41c0-4.09,.13-7.07,.38-8.95,.26-1.87,1.06-4.09,2.43-6.65,2.38-4.6,9.03-6.9,19.94-6.9Zm80.52,128.45c9.88-9.12,14.83-20.58,14.83-34.38s-4.82-25.35-14.44-34.64c-9.63-9.29-20.92-13.93-33.87-13.93h-24.54v96.62h24.79c12.27,0,23.35-4.56,33.23-13.68Z"/><path class="ar" d="M1396.52,10.74c8.35,5.8,12.53,11.42,12.53,16.87,0,3.24-1.96,7.76-5.88,13.55l-55.21,82.57v48.82c0,3.92-.13,6.86-.38,8.82-.26,1.96-1.07,4.22-2.43,6.77-1.37,2.56-3.67,4.35-6.9,5.37-3.24,1.02-7.59,1.53-13.04,1.53s-9.8-.51-13.04-1.53c-3.24-1.02-5.54-2.85-6.9-5.5-1.37-2.64-2.17-4.94-2.43-6.9-.26-1.96-.38-4.98-.38-9.07v-48.31l-55.21-82.57c-3.92-5.79-5.88-10.31-5.88-13.55,0-5.45,3.75-10.69,11.25-15.72,7.5-5.02,12.86-7.54,16.1-7.54s5.79,.68,7.67,2.05c2.9,1.88,5.96,5.37,9.2,10.48l39.62,63.39,39.62-63.39c3.24-5.11,6.05-8.48,8.44-10.1,2.38-1.62,5.15-2.43,8.31-2.43s8.14,2.13,14.95,6.39Z"/></g></g></g></g></svg>