<?xml version="1.0" encoding="UTF-8"?><svg xmlns="http://www.w3.org/2000/svg" xmlns:xlink="http://www.w3.org/1999/xlink" viewBox="0 0 528.25 881.34"><defs><style>.cb{fill:url(#e);}.cb,.cc,.cd,.ce,.cf,.cg,.ch,.ci,.cj,.ck,.cl,.cm,.cn,.co,.cp,.cq,.cr,.cs,.ct,.cu,.cv,.cw,.cx,.cy,.d`,.da,.db,.dc,.dd,.de,.df,.dg,.dh,.di,.dj,.dk,.dl,.dm,.dn,.do,.dp,.dq,.dr,.ds,.dt,.du,.dv,.dw,.dx,.dy,.e`,.ea,.eb,.ec,.ed,.ee,.ef,.eg,.eh{fill-rule:evenodd;}.cb,.cc,.ce,.cf,.cg,.ei,.ej,.ci,.cm,.cn,.ek,.cp,.cq,.cr,.cs,.ct,.cu,.el,.em,.cv,.en,.cw,.cx,.cy,.eo,.d`,.da,.db,.dc,.dd,.ep,.de,.df,.di,.dj,.dl,.dm,.eq,.er,.dn,.dp,.dr,.ds,.es,.et,.eu,.du,.dv,.dw,.dy,.e`,.ev,.ew,.ex,.ey,.f`,.ec,.ee,.ef{mix-blend-mode:multiply;}.cb,.cc,.ce,.ei,.ej,.ci,.cn,.co,.cq,.cu,.el,.em,.en,.eo,.d`,.da,.db,.dd,.de,.df,.dj,.dl,.dm,.eq,.er,.dn,.dp,.dr,.ds,.es,.et,.eu,.du,.ev,.fa,.ey,.ec,.ef{opacity:.5;}.cc{fill:url(#bc);}.cd{fill:url(#y);}.ce{fill:url(#av);}.cf{fill:url(#j);}.cf,.cg,.cm,.ek,.cp,.cr,.cs,.ct,.cv,.cx,.cy,.dc,.di,.dv,.dw,.dy,.e`,.ew,.ee{opacity:.3;}.cg{fill:url(#l);}.ei{fill:url(#c`);}.ch{fill:#fc89e2;}.fb,.cl,.co{fill:#fff;}.ej{fill:url(#bv);}.ci{fill:url(#ai);}.fc{fill:url(#bk);}.cj{fill:url(#t);}.ck{fill:url(#af);}.cm{fill:url(#k);}.cn{fill:url(#at);}.co,.fa{mix-blend-mode:soft-light;}.ek{fill:url(#bl);}.cp{fill:url(#al);}.cq{fill:url(#ar);}.cr{fill:url(#i);}.cs{fill:url(#x);}.ct{fill:url(#bd);}.cu{fill:url(#ay);}.fd{isolation:isolate;}.el{fill:url(#bq);}.em{fill:url(#bx);}.cv{fill:url(#an);}.en{fill:url(#by);}.cw,.ex{fill:#c21b72;opacity:.8;}.cx{fill:url(#ao);}.fe{fill:url(#bh);}.cy{fill:url(#am);}.eo{fill:url(#bt);}.d`{fill:url(#r);}.da{fill:url(#aq);}.db{fill:url(#ax);}.dc{fill:url(#v);}.dd{fill:url(#q);}.ep{fill:url(#bn);opacity:.4;}.de{fill:url(#as);}.ff{fill:url(#bj);}.df{fill:url(#p);}.fg{fill:url(#bg);}.dg{fill:url(#f);}.dh{fill:url(#u);}.fh{fill:url(#ae);}.di{fill:url(#h);}.fi{fill:url(#bi);}.dj{fill:url(#bb);}.dk{fill:url(#ac);}.dl{fill:url(#au);}.dm{fill:url(#aw);}.eq{fill:url(#ca);}.er{fill:url(#bw);}.dn{fill:url(#b`);}.do{fill:url(#ab);}.fj{fill:url(#bf);}.dp{fill:url(#ap);}.dq{fill:url(#ag);}.dr{fill:#720272;}.ds{fill:url(#o);}.et{fill:url(#bu);}.eu{fill:url(#bp);}.dt{fill:url(#ad);}.du{fill:url(#be);}.dv{fill:url(#g);}.dw{fill:url(#ak);}.dx{fill:url(#aa);}.dy{fill:url(#m);}.e`{fill:url(#w);}.ev{fill:url(#bs);}.ea{fill:url(#d);}.fa{fill:#66b9ff;}.ew{fill:url(#bm);}.eb{fill:url(#n);}.ey{fill:url(#br);}.f`{fill:url(#bo);opacity:.6;}.ec{fill:url(#s);}.ed{fill:url(#ah);}.ee{fill:url(#aj);}.ef{fill:url(#ba);}.eg{fill:url(#a`);}.eh{fill:#52ffff;}</style><radialGradient id="d" cx="246.27" cy="371.75" fx="246.27" fy="371.75" r="71.75" gradientTransform="translate(0 28.54) scale(1 .92)" gradientUnits="userSpaceOnUse"><stop offset="0" stop-color="#ffaaa1"/><stop offset="1" stop-color="#ff7493"/></radialGradient><linearGradient id="e" x1="178.05" y1="371.4" x2="286.96" y2="371.4" gradientTransform="matrix(1, 0, 0, 1, 0, 0)" gradientUnits="userSpaceOnUse"><stop offset="0" stop-color="#fff"/><stop offset=".99" stop-color="#cc116a"/></linearGradient><linearGradient id="f" x1="26.62" y1="405.63" x2="271.15" y2="405.63" gradientTransform="matrix(1, 0, 0, 1, 0, 0)" gradientUnits="userSpaceOnUse"><stop offset="0" stop-color="#fff"/><stop offset="1" stop-color="#ffeae8"/></linearGradient><linearGradient id="g" x1="75.55" y1="384.26" x2="200.94" y2="384.26" gradientTransform="matrix(1, 0, 0, 1, 0, 0)" gradientUnits="userSpaceOnUse"><stop offset="0" stop-color="#cf0095"/><stop offset="1" stop-color="#ff70b3"/></linearGradient><linearGradient id="h" x1="102.8" y1="427.06" x2="138.61" y2="427.06" xlink:href="#g"/><linearGradient id="i" x1="137.26" y1="437.58" x2="159.39" y2="437.58" xlink:href="#g"/><linearGradient id="j" x1="182.25" y1="427.19" x2="182.25" y2="402.27" xlink:href="#g"/><linearGradient id="k" x1="132.54" y1="392.76" x2="132.54" y2="360.6" xlink:href="#g"/><linearGradient id="l" x1="154.43" y1="399.18" x2="154.43" y2="370.81" xlink:href="#g"/><linearGradient id="m" x1="171.72" y1="409.38" x2="171.72" y2="384.26" xlink:href="#g"/><linearGradient id="n" x1="511.25" y1="549.95" x2="511.25" y2="290.97" gradientTransform="translate(395.7 -104.89) rotate(156.83) scale(1 -1)" gradientUnits="userSpaceOnUse"><stop offset="0" stop-color="#ba009f"/><stop offset=".38" stop-color="#ff276e"/><stop offset=".54" stop-color="#ff4a7a"/><stop offset=".73" stop-color="#ff6986"/><stop offset=".88" stop-color="#ff7d8d"/><stop offset=".98" stop-color="#ff8490"/></linearGradient><linearGradient id="o" x1="520.7" y1="532.67" x2="520.7" y2="489.01" gradientTransform="translate(395.7 -104.89) rotate(156.83) scale(1 -1)" gradientUnits="userSpaceOnUse"><stop offset="0" stop-color="#a91195"/><stop offset="1" stop-color="#c922aa"/></linearGradient><linearGradient id="p" x1="540.85" y1="461.09" x2="540.85" y2="426.01" xlink:href="#o"/><linearGradient id="q" x1="527.26" y1="410.5" x2="527.26" y2="373.21" xlink:href="#o"/><linearGradient id="r" x1="511.25" y1="549.95" x2="511.25" y2="309.69" gradientTransform="translate(395.7 -104.89) rotate(156.83) scale(1 -1)" gradientUnits="userSpaceOnUse"><stop offset="0" stop-color="#ff7278"/><stop offset=".99" stop-color="#a91195"/></linearGradient><linearGradient id="s" x1="527.73" y1="356.73" x2="527.73" y2="321.44" xlink:href="#o"/><radialGradient id="t" cx="395.35" cy="111.18" fx="395.35" fy="111.18" r="26.63" gradientTransform="translate(0 8.54) scale(1 .92)" gradientUnits="userSpaceOnUse"><stop offset="0" stop-color="#ffaaa1"/><stop offset="1" stop-color="#ff9f93"/></radialGradient><linearGradient id="u" x1="319.24" y1="624.71" x2="319.24" y2="102.24" gradientTransform="matrix(1, 0, 0, 1, 0, 0)" gradientUnits="userSpaceOnUse"><stop offset="0" stop-color="#ff7793"/><stop offset=".15" stop-color="#ffe5dd"/><stop offset="1" stop-color="#fff"/></linearGradient><radialGradient id="v" cx="383.84" cy="288.87" fx="383.84" fy="288.87" r="68.93" gradientTransform="matrix(1, 0, 0, 1, 0, 0)" gradientUnits="userSpaceOnUse"><stop offset="0" stop-color="#f7116a"/><stop offset=".19" stop-color="#f94d90"/><stop offset=".41" stop-color="#fb8cb7"/><stop offset=".6" stop-color="#fcbdd6"/><stop offset=".77" stop-color="#fee1ec"/><stop offset=".91" stop-color="#fef7fa"/><stop offset="1" stop-color="#fff"/></radialGradient><linearGradient id="w" x1="421.86" y1="258.64" x2="421.86" y2="172" gradientTransform="matrix(1, 0, 0, 1, 0, 0)" gradientUnits="userSpaceOnUse"><stop offset="0" stop-color="#ff90a3"/><stop offset="1" stop-color="#c70095"/></linearGradient><linearGradient id="x" x1="284.88" y1="290.19" x2="284.88" y2="195.05" xlink:href="#w"/><linearGradient id="y" x1="343.95" y1="129.04" x2="343.95" y2="0" gradientTransform="matrix(1, 0, 0, 1, 0, 0)" gradientUnits="userSpaceOnUse"><stop offset=".02" stop-color="#ff9254"/><stop offset=".97" stop-color="#ffcf54"/></linearGradient><linearGradient id="a`" x1="422.25" y1="256.38" x2="422.25" y2="184.24" gradientTransform="matrix(1, 0, 0, 1, 0, 0)" gradientUnits="userSpaceOnUse"><stop offset=".46" stop-color="#fff9f8"/><stop offset="1" stop-color="#ffd7cb"/></linearGradient><linearGradient id="aa" x1="286.96" y1="288.77" x2="286.96" y2="211.54" xlink:href="#a`"/><linearGradient id="ab" x1="384.98" y1="292.14" x2="384.98" y2="267.42" gradientTransform="matrix(1, 0, 0, 1, 0, 0)" gradientUnits="userSpaceOnUse"><stop offset="0" stop-color="#ff4d75"/><stop offset=".98" stop-color="#ff6384"/></linearGradient><linearGradient id="ac" x1="218.92" y1="186.04" x2="218.92" y2="115.77" xlink:href="#ab"/><linearGradient id="ad" x1="397.37" y1="132.78" x2="397.37" y2="92.5" gradientTransform="matrix(1, 0, 0, 1, 0, 0)" gradientUnits="userSpaceOnUse"><stop offset=".02" stop-color="#ff5e7a"/><stop offset="1" stop-color="#ff2284"/></linearGradient><radialGradient id="ae" cx="283.91" cy="272.92" fx="283.91" fy="272.92" r="49.12" gradientTransform="matrix(1, 0, 0, 1, 0, 0)" gradientUnits="userSpaceOnUse"><stop offset="0" stop-color="#4fffff"/><stop offset=".99" stop-color="#6a40b8"/></radialGradient><radialGradient id="af" cx="417.8" cy="243.93" fx="417.8" fy="243.93" r="26.04" xlink:href="#ae"/><linearGradient id="ag" x1="231.53" y1="236.19" x2="330.38" y2="236.19" gradientTransform="matrix(1, 0, 0, 1, 0, 0)" gradientUnits="userSpaceOnUse"><stop offset="0" stop-color="#c70095"/><stop offset="1" stop-color="#ff90a3"/></linearGradient><linearGradient id="ah" x1="401.28" y1="205.79" x2="447.58" y2="205.79" xlink:href="#w"/><linearGradient id="ai" x1="386.18" y1="324.13" x2="386.18" y2="290.99" gradientTransform="matrix(1, 0, 0, 1, 0, 0)" gradientUnits="userSpaceOnUse"><stop offset="0" stop-color="#ff728d"/><stop offset=".99" stop-color="#a91195"/></linearGradient><linearGradient id="aj" x1="323.65" y1="624.02" x2="323.65" y2="513.11" gradientTransform="matrix(1, 0, 0, 1, 0, 0)" gradientUnits="userSpaceOnUse"><stop offset="0" stop-color="#f7116a"/><stop offset="1" stop-color="#fff"/></linearGradient><linearGradient id="ak" x1="367.79" y1="622.49" x2="367.79" y2="387.4" xlink:href="#aj"/><linearGradient id="al" x1="351.23" y1="598.4" x2="351.23" y2="387.4" gradientTransform="matrix(1, 0, 0, 1, 0, 0)" gradientUnits="userSpaceOnUse"><stop offset="0" stop-color="#a91195"/><stop offset="1" stop-color="#ff7278"/></linearGradient><linearGradient id="am" x1="235.29" y1="513.11" x2="235.29" y2="460.96" gradientTransform="matrix(1, 0, 0, 1, 0, 0)" gradientUnits="userSpaceOnUse"><stop offset="0" stop-color="#ff70b3"/><stop offset=".99" stop-color="#cf0095"/></linearGradient><linearGradient id="an" x1="288.75" y1="600.89" x2="288.75" y2="576.16" xlink:href="#am"/><linearGradient id="ao" x1="331.89" y1="514.88" x2="331.89" y2="445.06" xlink:href="#g"/><linearGradient id="ap" x1="370.55" y1="319.55" x2="465.42" y2="319.55" gradientTransform="matrix(1, 0, 0, 1, 0, 0)" gradientUnits="userSpaceOnUse"><stop offset="0" stop-color="#fff"/><stop offset=".99" stop-color="#db006a"/></linearGradient><linearGradient id="aq" x1="198.43" y1="315.63" x2="381.63" y2="315.63" gradientTransform="matrix(1, 0, 0, 1, 0, 0)" gradientUnits="userSpaceOnUse"><stop offset="0" stop-color="#db006a"/><stop offset="1" stop-color="#fff"/></linearGradient><linearGradient id="ar" x1="283.91" y1="369.53" x2="360.21" y2="369.53" xlink:href="#al"/><linearGradient id="as" x1="228.96" y1="572.65" x2="228.96" y2="379.87" gradientTransform="matrix(1, 0, 0, 1, 0, 0)" gradientUnits="userSpaceOnUse"><stop offset="0" stop-color="#a91195"/><stop offset="1" stop-color="#ffabaf"/></linearGradient><linearGradient id="at" x1="194.19" y1="142.29" x2="249.03" y2="142.29" gradientTransform="matrix(1, 0, 0, 1, 0, 0)" xlink:href="#o"/><linearGradient id="au" x1="379.18" y1="105.06" x2="402.33" y2="105.06" gradientTransform="matrix(1, 0, 0, 1, 0, 0)" xlink:href="#o"/><linearGradient id="av" x1="317.34" y1="84.73" x2="369.86" y2="84.73" gradientTransform="matrix(1, 0, 0, 1, 0, 0)" gradientUnits="userSpaceOnUse"><stop offset="0" stop-color="#a91195"/><stop offset="1" stop-color="#f17c78"/></linearGradient><linearGradient id="aw" x1="332.37" y1="46.5" x2="367.65" y2="46.5" xlink:href="#av"/><linearGradient id="ax" x1="276.26" y1="118.62" x2="377.75" y2="118.62" xlink:href="#av"/><linearGradient id="ay" x1="196.78" y1="600.37" x2="328.62" y2="600.37" gradientTransform="matrix(1, 0, 0, 1, 0, 0)" xlink:href="#r"/><linearGradient id="b`" x1="363.63" y1="622.75" x2="363.63" y2="609.93" xlink:href="#al"/><linearGradient id="ba" x1="352.7" y1="623.21" x2="352.7" y2="611.07" xlink:href="#al"/><linearGradient id="bb" x1="398.94" y1="622.49" x2="398.94" y2="606.71" xlink:href="#al"/><linearGradient id="bc" x1="391.93" y1="622.49" x2="391.93" y2="608.79" xlink:href="#al"/><linearGradient id="bd" x1="274.34" y1="529.31" x2="292.95" y2="529.31" xlink:href="#am"/><linearGradient id="be" x1="374.22" y1="331.32" x2="407.87" y2="331.32" xlink:href="#ap"/><linearGradient id="bf" x1="434.11" y1="261.55" x2="528.25" y2="261.55" gradientTransform="matrix(1, 0, 0, 1, 0, 0)" gradientUnits="userSpaceOnUse"><stop offset="0" stop-color="#ffe8dd"/><stop offset="1" stop-color="#ffc0b8"/></linearGradient><linearGradient id="bg" x1="434.15" y1="274.74" x2="519.16" y2="274.74" xlink:href="#bf"/><linearGradient id="bh" x1="206.36" y1="313.57" x2="335.62" y2="313.57" gradientTransform="matrix(1, 0, 0, 1, 0, 0)" gradientUnits="userSpaceOnUse"><stop offset="0" stop-color="#ffdcd8"/><stop offset="1" stop-color="#ffe8dd"/></linearGradient><linearGradient id="bi" x1="218.77" y1="327.34" x2="334.31" y2="327.34" xlink:href="#bh"/><radialGradient id="bj" cx="282.51" cy="642.85" fx="282.51" fy="642.85" r="272.81" gradientTransform="translate(-115.09) scale(1.31 1)" gradientUnits="userSpaceOnUse"><stop offset=".06" stop-color="#fbfeff"/><stop offset="1" stop-color="#ffd3e8"/></radialGradient><radialGradient id="bk" cx="157.27" cy="808.89" fx="157.27" fy="808.89" r="36.47" xlink:href="#bj"/><linearGradient id="bl" x1="58.93" y1="688.66" x2="258.31" y2="688.66" gradientTransform="matrix(1, 0, 0, 1, 0, 0)" gradientUnits="userSpaceOnUse"><stop offset="0" stop-color="#fff"/><stop offset=".41" stop-color="#ffccea"/><stop offset=".52" stop-color="#f4badf"/><stop offset=".83" stop-color="#dd92c5"/><stop offset=".99" stop-color="#d483bc"/></linearGradient><linearGradient id="bm" x1="77.7" y1="600.22" x2="122.97" y2="600.22" xlink:href="#bl"/><linearGradient id="bn" x1="374.11" y1="632.97" x2="375.43" y2="632.97" gradientTransform="matrix(1, 0, 0, 1, 0, 0)" gradientUnits="userSpaceOnUse"><stop offset="0" stop-color="#bd83ff"/><stop offset=".17" stop-color="#c192ff"/><stop offset=".48" stop-color="#ccbaff"/><stop offset=".59" stop-color="#d1ccff"/><stop offset="1" stop-color="#fff"/></linearGradient><linearGradient id="bo" x1="302.4" y1="882.98" x2="324.25" y2="570.63" xlink:href="#bn"/><linearGradient id="bp" x1="360.9" y1="660.97" x2="361.16" y2="660.97" xlink:href="#bl"/><linearGradient id="bq" x1="325.37" y1="606.02" x2="407.1" y2="606.02" xlink:href="#bl"/><linearGradient id="br" x1="248.85" y1="610.43" x2="282.55" y2="610.43" xlink:href="#bl"/><linearGradient id="bs" x1="55.61" y1="683.65" x2="212.72" y2="683.65" gradientTransform="matrix(1, 0, 0, 1, 0, 0)" gradientUnits="userSpaceOnUse"><stop offset="0" stop-color="#d483bc"/><stop offset=".17" stop-color="#dd92c5"/><stop offset=".48" stop-color="#f4badf"/><stop offset=".59" stop-color="#ffccea"/><stop offset="1" stop-color="#fff"/></linearGradient><linearGradient id="bt" x1="65.17" y1="661.83" x2="238.93" y2="661.83" xlink:href="#bs"/><linearGradient id="bu" x1="398.62" y1="817.87" x2="399.72" y2="817.87" xlink:href="#bs"/><linearGradient id="bv" x1="133.69" y1="752.32" x2="518.97" y2="752.32" xlink:href="#bs"/><linearGradient id="bw" x1="84.71" y1="796.46" x2="117.15" y2="796.46" xlink:href="#bs"/><linearGradient id="bx" x1="284.82" y1="695.54" x2="361.15" y2="695.54" xlink:href="#bl"/><linearGradient id="by" x1="421.45" y1="636.31" x2="508.78" y2="636.31" xlink:href="#bs"/><linearGradient id="c`" x1="411.95" y1="783.21" x2="480.29" y2="783.21" xlink:href="#bl"/><linearGradient id="ca" x1="433.55" y1="703.45" x2="517.74" y2="703.45" xlink:href="#bl"/></defs><g class="fd"><g id="a"/><g id="b"><g id="c"><g><g><path class="ea" d="M290.91,375.87c-31.79,8.73-49.51-6.86-61.04-46.13-11.53-39.27-38.73-19.95-53.69,19.32-14.96,39.27-2.45,64.51-2.45,64.51l9.35-20.88s-2.18,24.62,2.49,39.58c0,0,12.78-15.58,16.21-29.92,0,0,9.04,16.21,24.93,18.7,15.89,2.49,29.3-21.82,29.3-21.82,0,0,25.87,7.48,34.91-23.37Z"/><path class="cb" d="M184.05,332.54c16.06-13.39,26.33,28.41,51.24,46.45,27.88,20.19,31.79-1.55,31.79-1.55,0,0,6.99,2.75,19.88-.76,0,0-18.08,29.11-34.9,34.93-16.83,5.82-44.26-10.39-44.26-10.39,0,0-28.96-44.86-29.75-56.82,0,0,3.95-8.01,6-11.87Z"/><path class="dg" d="M271.15,396.69s-24.5,4.42-59.72-12.09c-35.22-16.52-26.49-51.11-49.55-52.05-23.06-.93-111.57,52.36-135.26,89.76l48.93-21.19s-33.04,20.37-33.04,63.58c0,1.87,51.42-51.74,51.42-51.74,0,0-5.92,24.72,7.79,51.78,13.71,27.07,35.53,6.5,35.53,6.5,0,0,38.75-9.97,43.32-44.05,0,0-1.25,17.66-1.87,19.95-.62,2.29,12.47-6.44,15.58-19.95,3.12-13.51-1.04-27.43-1.04-27.43,0,0,6.03,25.35,8.73,27.43s-1.04-17.87-1.04-17.87c0,0,12.49,15.9,25.36,17.4,12.87,1.5,44.85-30.03,44.85-30.03Z"/><path class="dv" d="M75.55,401.12s55.48-47.37,77.6-45.5c22.13,1.87,36.67,35.74,47.79,53.71-17.87-16.62-29.4-50.59-54.02-49.03-24.62,1.56-52.98,52.67-52.98,52.67,0,0,8.57-12.62,8.73-21.35,.16-8.73-27.11,9.51-27.11,9.51Z"/><path class="di" d="M102.8,466.71s29.26-35.99,35.45-79.31c0,0,6.45,49.01-35.45,79.31Z"/><path class="cr" d="M137.26,471.24s17.45-19.01,22.13-67.32c0,0-.21,49.03-22.13,67.32Z"/><path class="cf" d="M180.58,427.19s4.04-10.22,1.55-24.93c0,0,4.89,8.1-1.55,24.93Z"/><path class="cm" d="M112.46,385.64s25.63,27.32,40.18-25.03c0,0-14.5,42.57-40.18,25.03Z"/><path class="cg" d="M138.61,392.76s32.11,24.4,31.59-21.96c0,0,2.79,39.47-31.59,21.96Z"/><path class="dy" d="M182,384.26s12.14,28.39-22.61,24.8c0,0,29.82,3.9,22.61-24.8Z"/><g><path class="eb" d="M27.14,436.67c3.59,4.19,7.14,9.91,10.54,18.86,2.56,6.77,5.07,15.43,7.42,26.69,.14,.57,.26,1.15,.39,1.77,1.84,8.98,3.62,17.42,5.47,25.25,2.56,10.8,5.19,20.54,8.14,29.22,8.4,24.77,19.36,40.95,38.04,49.25,2.7,1.24,5.58,2.28,8.63,3.18,3.99,1.16,7.98,1.98,11.91,2.6,30.11,4.61,56.52-5.39,56.52-5.39l13.97-12.84s-16.23,2.11-37.37-5.54c-1.69-.61-3.37-1.26-5.08-1.99,0,0-.03,.01-.07,0-9.91-4.23-20.68-10.62-31.18-20.36-2.75-2.52-5.45-5.27-8.13-8.25-4.02-4.48-7.22-9.31-9.75-14.46-4.29-8.63-6.73-18.05-8.15-27.84-1.09-7.46-1.59-15.15-1.9-22.89-.41-9.83-.45-19.74-.97-29.38-.53-9.41-1.45-18.58-3.56-27.17-2.47-10.14-6.56-19.53-13.45-27.54-.86-1.07-1.79-2.07-2.78-3.08C32.49,353.15-1.56,377.39,.06,401.26c.24,3.2,1.12,6.42,2.73,9.5,1.43,2.72,2.9,4.99,4.41,6.95,6.38,8.44,13.28,11.08,19.95,18.96Z"/><path class="ds" d="M97.14,587.7c2.7,1.24,5.58,2.28,8.63,3.18,3.99,1.16,7.98,1.98,11.91,2.6,3.53-24.47,26.66-25.71,27.97-25.77-9.91-4.23-20.68-10.62-31.18-20.36-19.61,10.96-18.8,31.31-17.33,40.35Z"/><path class="df" d="M59.1,538.45c9.32-11.95,25.9-14.02,37.49-13.81-4.29-8.63-6.73-18.05-8.15-27.84-17.93-2.03-30.28,5.66-37.47,12.44,2.56,10.8,5.19,20.54,8.14,29.22Z"/><path class="dd" d="M45.1,482.21c12.28-8.52,28.56-9.42,41.44-8.3-.41-9.83-.45-19.74-.97-29.38-22.05-3.23-39.14,5.19-47.89,10.99,2.56,6.77,5.07,15.43,7.42,26.69Z"/><path class="d`" d="M27.14,436.67c3.59,4.19,7.14,9.91,10.54,18.86,2.56,6.77,5.07,15.43,7.42,26.69,.14,.57,.26,1.15,.39,1.77,1.84,8.98,3.62,17.42,5.47,25.25,2.56,10.8,5.19,20.54,8.14,29.22,8.4,24.77,19.36,40.95,38.04,49.25,2.7,1.24,5.58,2.28,8.63,3.18,3.99,1.16,7.98,1.98,11.91,2.6,30.11,4.61,56.52-5.39,56.52-5.39l13.97-12.84s-16.23,2.11-37.37-5.54c-2.04,7.31-37.65,7.91-66.91-7.36-29.3-15.26-32.35-71.62-44.63-120.02-12.32-48.42-29.54-27.59-38.5-40.19-.23-.3-.46-.6-.7-.87,.24,3.2,1.12,6.42,2.73,9.5,1.43,2.72,2.9,4.99,4.41,6.95,6.38,8.44,13.28,11.08,19.95,18.96Z"/><path class="ec" d="M7.19,417.71c6.38,8.44,13.28,11.08,19.95,18.96,17.01-12.44,40.17-17.36,54.86-19.31-2.47-10.14-6.56-19.53-13.45-27.54-30.17,3.11-51.23,18.62-61.36,27.89Z"/><path class="co" d="M84.95,434.02c-4.78,18.34-34.4-8.56-46.34-20.71-11.94-12.15-23.94-5.53-23.94-5.53,0,0,12.38,.16,19.14,17.9,0,0-.83-9.33,2.55-9.3,3.38,.03,23.54,29.92,37.33,40.02s11.36-13.07,11.36-13.07l-.1-9.31Z"/></g><path class="cj" d="M364.67,106.39s20.36-17.87,33.66-17.87c6.66,0,14.71,44.26,14.71,44.26l-48.37-26.39Z"/><path class="dh" d="M464.19,276.15c-5.63,25.56-49.56,54.85-65.12,68.88-14.46,13.01-26.79,38.33-28.52,41.96-.09,.28-.18,.43-.18,.43,0,0,.31,39.71,3.11,89.24v.03c.83,14.89,1.91,30.64,3.26,46.48,1.42,16.67,2.61,29.81,3.63,40.08,3.23,32.05,4.65,36.79,4.65,36.79,0,0,22.46-2.89,18.73,22.46h-35.78s-87.67,4.98-171.19,0c0,0-5.2-2.89-5.38-10.18,0,0-14.15-6.64-14.98-6.64s-2.49-33.04-2.49-33.04c0,0-5.17-76.47,9.75-105.76,14.98-29.32,42.73-38.33,73.89-59.22s36.15-48.94,36.15-48.94c0,0-10.89-11.5-41.78-18.67-30.85-7.2-36.15-13.72-43.62-20.27-3.81-3.35-8.12-23.99-9.87-49.71-.09-.34-.09-.62-.12-.95-1.63-24.64-.95-53.71,4.71-76.69,0,0-28.89-50.08-3.75-81.46,3.32-4.12,58.6,17.44,58.6,17.44,0,0,38.67-25.53,89.12-26.15,50.51-.62,77.92,40.82,83.52,61.68,.09,.37,.18,.74,.28,1.11,5.38,21.07,6.77,57.65,15.32,65.89,2.49,2.4,5.48,5.05,8.37,8.15,0,0,.03,.03,.03,.06,3.29,3.54,6.43,7.75,8.46,12.98,2.49,6.28,3.41,14.09,1.23,24.03Z"/><g class="es"><path class="ch" d="M455.4,244.03c.09,1.23-.43,1.75-.62,2.89-.22,1.35-.15,1.26-.71,2.46-.62,1.26-.77,2.52-1.45,3.81-.83,1.6-1.78,3.11-2.61,4.68-.86,1.6-2.34,2.65-3.41,4.06-1.11,1.54-1.88,2.49-3.45,3.66-1.72,1.26-3.51,2-5.38,3.05-5.11,2.83-11.1,4.74-16.92,2.8-2.21-.74-4.15-1.41-6.31-2.4-1.48-.68-3.08-1.38-4.61-1.94-1.85-.68-4-1.08-5.72-2.06-1.45-.83-2.92-2.18-4.09-3.38-2.95-3.08-4.61-6.86-6.52-10.64-2.34-4.74-3.54-9.38-4.52-14.55-.92-4.98-1.72-10.09-1.88-15.17-.15-5.63-1.88-11.32-2.77-16.89-.58-3.54-.95-7.11-1.48-10.67-.25-1.81-.49-3.54-.4-5.38,.12-1.72,.52-3.35,.58-5.08,.18-7.17,1.63-13.2,5.81-19.13,1.66-2.4,3.48-5.11,5.78-6.89,2.46-1.88,5.44-2.65,8.34-3.6,5.66-1.81,12.52-.68,17.32,2.8,2.03,1.45,4.12,2.74,6.03,4.37,.58,.52,1.41,1.05,1.91,1.6,1.2,1.32,1.38,2.77,2,4.68,.15-.77,.31-1.48,.46-2.06,5.38,21.07,6.77,57.65,15.32,65.89,2.49,2.4,5.48,5.05,8.37,8.15,0,0,.03,.03,.03,.06,.12,.25,.28,.46,.34,.77,.18,.83,.09,1.85,.25,2.68,.09,.49,.28,.89,.31,1.45Z"/><path class="ch" d="M380.37,563.25c-1.02-.37-2-1.08-2.83-1.63-7.44-5.23-12.18-13.07-16.52-20.89-2.37-4.21-4.43-9.66-5.57-14.34-1.02-4.12-1.72-8.03-1.38-12.24,.34-4.09,.62-8.58,1.75-12.55,1.01-3.6,2.95-7.11,4.83-10.31,3.17-5.48,7.66-10.18,12.55-14.12,.09-.18,.18-.34,.28-.49,.83,14.89,1.91,30.64,3.26,46.48,1.42,16.67,2.61,29.81,3.63,40.08Z"/><path class="ch" d="M182.61,548.86c.56-3.78,1.11-6.13,3.08-9.34,2.15-3.5,4.73-7.45,8.13-9.88,5.22-3.73,12.36-3.21,16.73,1.66,4.44,4.94,5.9,14.1,5.22,20.48-.74,6.93-2.62,14.09-6.35,20.03-2.94,4.69-9.42,9.13-15.05,9.66-4.84,.45-9.29-3.81-11.82-7.49-2.79-4.06-3.41-9.83-3.44-14.6-.01-2.38,.43-4.64,.57-7,.11-1.86,.3-5,2.94-3.52Z"/></g><path class="dc" d="M381.7,220.31c-63.45,3.88-82.3,113.18-51.33,133.12,30.97,19.95,96.27-21.98,114.42-47.53,18.15-25.55,3.13-97.01-63.1-85.59Z"/><path class="e`" d="M401.28,254.64c-5.65-8.41-1.51-72.62,16.52-81.65,18.03-9.04,24.84,47.01,26.89,56.23,2.05,9.22-25.29,40.38-43.41,25.42Z"/><path class="cs" d="M334.23,267.42c-5.3,9.34-27.11,28.05-68.25,21.34-41.14-6.7-35.53-45.97-19.95-70.91,15.58-24.93,44.92-27.94,64.11-16.21,20.24,12.38,28.46,44.58,24.09,65.77Z"/><path class="cd" d="M376.99,116.16c-37.47,32.01-66.85-5.76-66.85-5.76,2.83-7.8,7.43-11.12,7.43-11.12-.26-2.5-.3-4.87-.16-7.17,1.09-19.94,15.03-32.17,15.03-32.17-.16-2.17-.07-4.64,.3-7.27C335.28,31.65,351.63-1.22,360.45,.03c6.51,.92,7.4,20,7.2,33.03-.07,6.81-.46,11.97-.46,11.97,4.18,8.06,3.75,18.16,2.66,25.03-.72,4.74-1.74,7.93-1.74,7.93,13.49,11.58,8.88,38.16,8.88,38.16Z"/><path class="eg" d="M442.36,232.82c-1.35,6.32-6.42,12.21-12.5,16.48-10.69,7.57-24.51,10.26-26.55,2.11-5.69-22.5,.92-49.02,11.78-60.96,2.4-2.66,5.03-4.61,7.76-5.63,15.07-5.59,23.26,30.56,19.51,48Z"/><path class="dx" d="M332.67,264.92c-1.19,13.13-48,35.22-76.98,16.83-28.98-18.39-11.84-67.63,27.43-70.12,35.76-2.27,50.8,39.58,49.55,53.29Z"/><path class="do" d="M364.67,279.21s23.64-16.62,40.62-10.39c0,0-1.6,7.16-4.14,10.39,0,0-3.69-.69-5.31,10.39,0,0-1.15,2.54-8.77,2.54,0,0-3-9.23-13.16-7.39,0,0-6-2.54-9.23-5.54Z"/><path class="dk" d="M205.51,184.24c4.99,8.38,43.63-14.06,41.76-35.57-1.87-21.5-41.45-34.59-48.31-32.72-6.86,1.87-17.76,55.86,6.54,68.29Z"/><path class="dt" d="M381.7,109.18c.52-11.62,16.12-18.61,20.63-16.21,4.51,2.41,10.71,39.81,10.71,39.81,0,0-16.28-14.79-31.34-23.6Z"/><circle class="fh" cx="283.91" cy="250.15" r="36.57"/><circle class="ex" cx="283.91" cy="250.15" r="26.22" transform="translate(-8.63 490.15) rotate(-80.75)"/><path class="ck" d="M434.37,226.86c0,8.45-1.68,16.25-4.51,22.44-10.69,7.57-24.51,10.26-26.55,2.11-.16-.69-.33-1.35-.46-2.04-4.18-19.11,.16-40.66,8.26-53.59,1.25-2.01,2.57-3.78,3.98-5.33,10.82,1.78,19.28,17.4,19.28,36.42Z"/><path class="cw" d="M426.37,223.93c0,15.56-7.37,28.19-16.45,28.19-2.53,0-4.93-.99-7.07-2.76-4.18-19.11,.16-40.66,8.26-53.59,8.52,1.05,15.26,13.26,15.26,28.16Z"/><path class="dq" d="M330.38,250.15s-12.82-44.13-51.54-38.06c-38.72,6.08-38.01,45.22-36.19,52.76,0,0-10.8,.5-11.11-12.73-.31-13.23,13.66-42.93,49.42-44.55,41.28-1.87,49.42,42.58,49.42,42.58Z"/><path class="ed" d="M401.28,231.26s3.7-35.83,18.66-43.94c14.96-8.1,22.23,23.15,22.23,23.15,0,0,5.61-2.27,5.4-10.79-.21-8.52-11.7-25.75-27.32-16.88-16.21,9.19-18.77,41.28-18.97,48.46Z"/><path class="ci" d="M390.19,291.69s3.04,10.69-.99,20.23c-4.04,9.54-17.79,12.84-36.5,5.14,0,0,7.98,6.65,19.95,7.06,11.97,.41,15.82-9.49,19.81-10.18,3.99-.69,7.43,3.16,14.31,2.61,6.88-.55,12.91-15.41,12.91-15.41,0,0-5.86,12.79-13.96,13.25-8.1,.46-11.02-14.17-11.57-23.41l-3.95,.71Z"/><path class="ee" d="M371.01,622.5s1.56-15.69-18.39-21.92c0,0-16.21-49.55-21.19-85.71,0,0-31.79-7.48-55.16,8.41,0,0,12.78,72.76,52.36,100.74l42.38-1.52Z"/><path class="dw" d="M403.74,622.49h-32.73s-1.25-18.16-18.39-21.91c0,0-14.97-42.7-21.19-85.7,0,0,28.36-81.36,38.95-127.48,0,0,.53,67.21,6.35,135.77,5.79,68.59,8.29,76.88,8.29,76.88,0,0,22.44-2.9,18.72,22.44Z"/><path class="cp" d="M331.43,514.88s31.37-83.33,38.95-127.48l.65,40.21s-18.83,45.52-24.23,85.51c-5.4,39.99,5.9,85.28,5.9,85.28,0,0-11.7-31.15-21.27-83.52Z"/><path class="cy" d="M194.29,513.11s49.87-46.55,81.97-30.65v-21.5s.69,9.97-5.11,12.47-36.77-5.92-76.86,39.69Z"/><path class="cv" d="M304.98,598.4s-12.51-3.12-32.46,2.49c0,0,12.81-3.96,20.43-24.73l12.03,22.24Z"/><path class="cx" d="M331.43,514.88s-5.59-37.82-7.78-69.82c0,0,5.7,43.32,9.44,47.84,3.74,4.52,7.04-2.06,7.04-2.06l-8.7,24.04Z"/><path class="dp" d="M464.21,276.14c-5.63,25.56-49.58,54.84-65.14,68.89-14.44,12.99-26.78,38.33-28.52,41.94,1.74-4.18,15.36-35.63,43.26-58.79,29.74-24.71,54.74-58.49,49.15-76.06,2.5,6.28,3.42,14.08,1.25,24.02Z"/><path class="da" d="M381.63,351.58c-1.64,.72-35.96,15.33-87.93,7.14,0,0-10.89-11.51-41.75-18.69-30.86-7.17-36.15-13.72-43.62-20.26-3.82-3.36-8.13-23.98-9.9-49.71,2.93,35.17,27.04,56.75,74.41,73.2,47.7,16.58,93.76,12.01,108.79,8.32Z"/><path class="cq" d="M283.91,381.26s47.74-8.52,76.3-23.47c0,0-30.69,7.14-66.52,.92,0,0-3.72,14.36-9.78,22.55Z"/><path class="de" d="M284.88,379.87s-8.9,19.48-49.58,47.32c-40.68,27.84-55.76,63.37-58.87,97.65-3.11,34.29-2.5,47.8-2.5,47.8,0,0-4.26-63.94,6.08-96.39,10.34-32.45,36.01-42.92,64.99-59.25,26.16-14.74,39.88-37.14,39.88-37.14Z"/><circle class="fb" cx="319.12" cy="260.04" r="6.83"/><circle class="fb" cx="434.37" cy="231.26" r="6.83"/><path class="cl" d="M266.42,236.19c0,2.05-1.66,3.71-3.71,3.71s-3.71-1.66-3.71-3.71,1.66-3.71,3.71-3.71,3.71,1.66,3.71,3.71Z"/><path class="cl" d="M411.58,217.29c0,2.05-1.66,3.71-3.71,3.71s-3.71-1.66-3.71-3.71,1.66-3.71,3.71-3.71,3.71,1.66,3.71,3.71Z"/><path class="cn" d="M194.22,123.93c12.91-7.2,36.18,.89,43.4,18.51,7.21,17.62,0,27.7,0,27.7,0,0,14.23-12.63,10.91-28.84-3.32-16.21-42.59-27.63-48.83-26.8-6.23,.83-5.48,9.44-5.48,9.44Z"/><path class="dl" d="M394.97,118.06c-.39-18.32,.35-20.85,7.36-25.09,0,0-4.46-3.2-13.48,2.41-9.02,5.61-9.67,12.75-9.67,12.75,0,0,11.48,6.67,15.79,9.94Z"/><path class="ce" d="M369.86,70.07c-.72,4.74-1.74,7.93-1.74,7.93-25.2,23.98-50.53,21.28-50.53,21.28-.26-2.5-.3-4.87-.16-7.17,21.72,8.86,42.62-8.74,52.44-22.04Z"/><path class="dm" d="M367.65,33.06c-.07,6.81-.46,11.97-.46,11.97-13.49,12.86-34.74,14.9-34.74,14.9-.16-2.17-.07-4.64,.3-7.27,24.97,3.09,34.9-19.61,34.9-19.61Z"/><path class="db" d="M377.59,110.65s-27.07,37.06-65.76-4.07c0,0-15.94,4.25-35.57,11.48,0,0,38.02,11.28,64.51,12.53,26.49,1.25,36.98-16.14,36.98-16.14l-.16-3.8Z"/><path class="cu" d="M196.78,622.49s78.85-.4,110.96-1.96c0,0,3.93-16.31-8.32-22.86,0,0-8.2-1.45-26.9,3.22,0,0,15.31-6.14,20.43-24.73,0,0,13.13,29.02,35.67,47.86,0,0-78.63,1.99-131.84-1.54Z"/><path class="co" d="M364.67,279.21s34.67-.16,40.62-10.39l-.8,2.96s-5.33,9.36-39.82,7.43Z"/><path class="dn" d="M360.41,609.93s5.51,4.97,6.44,12.72l-2.71,.1s-.41-5.86-3.73-12.82Z"/><path class="ef" d="M354.16,623.1s.36-6.74-2.93-12.03c0,0,.8,6.82,0,12.14l2.93-.11Z"/><path class="dj" d="M399.37,622.49s2.29-8.09,0-15.78c0,0,.42,6.52-1.87,15.78h1.87Z"/><path class="cc" d="M392.82,622.49s1.56-7.36-1.56-13.7c0,0,1.66,6.52-.62,13.7h2.18Z"/><path class="ct" d="M276.26,482.46s-4.2,60.9,16.69,93.7c0,0-25.73-28.88-16.69-93.7Z"/><path class="dr" d="M388.13,317.05s3.87-8.36,6.44-9.49c2.56-1.13,6.66,6.74,6.66,6.74,0,0-6.49-1.52-8.77-.36-2.28,1.16-4.33,3.11-4.33,3.11Z"/><path class="du" d="M374.22,335.65s21.84,11.47,33.65-11.52c0,0-12.5,15.11-33.65,11.52Z"/><path class="co" d="M378.7,324.13c-6.88,4.83,7.85,11.04,15.97,7.19,8.12-3.85,9.48-12.53,9.48-12.53,0,0-6.41-3.58-10.64-3.16-4.23,.42-8.53,5.17-14.81,8.5Z"/><path class="co" d="M264.75,124.38c-7.06,14.94,46.48,40.48,99.92,32.1s35.9-34.14,35.9-34.14c0,0,11.9,7.47,18.25,17.9,0,0-5.5-4.5-9.49-3.31-3.99,1.2-8.98,17.96-55.07,26.94-46.09,8.98-78.11-15.96-87.84-15.36,0,0-3.25-18.06-8.55-20.09l6.88-4.02Z"/><path class="eh" d="M33.82,374.15c.9-2.55,5.63-3.43,8.38-.9,.93,.85,1.35,1.77,.76,2.95-1.64,3.27-7.58-.59-9.13-2.05h0Z"/><path class="eh" d="M22.06,399.64c1.41-3.03,1.7-6.37,5.43-6.44,1.26-.02,2.2,.34,2.59,1.61,1.07,3.5-5.88,4.81-8.02,4.83h0Z"/><path class="eh" d="M69.04,507.35c-2.08,.63-3.81,1.73-5.2,3.31,0,1.66,1.12,3.99,2.51,4.51,1.63,.61,5.71,1.3,8.36-.58,1.24-.88,.83-2.43,.14-3.47-1.05-1.59-4.02-3.81-5.8-3.77h0Z"/><path class="eh" d="M70.83,437.29c1.3-1.81,2.92-3.18,4.87-4.13,.6,1.32,1.37,2.92,.29,4.16-.43,.49-3.73,1.74-4.36,1.56l-.8-1.6Z"/><path class="eh" d="M144.03,573.56c.35-.77,1.19-4.01,2.61-2.81,.37,.31,.53,1.18,.59,1.6,.22,1.49-1.26,2.86-2.73,2.34-.02-.11-.05-.22-.07-.33l-.4-.8Z"/><path class="eh" d="M115.23,591.84c-1.05,0-2.01,.27-2.88,.8,0,1.57,1.69,2.13,3.07,1.42,.5-.26,.93-.79,.95-1.41,.03-.9-.92-.87-1.14-1.6v.8Z"/><path class="eh" d="M73.77,534.11c.17-.65,.26-1.4,.63-1.97,.37-.56,1.03-1.06,1.55-1.44,1.25-.92,2.44-1.29,4-1.38,1.4-.08,5.9,.42,4.78,2.79-.75,1.59-2.63,3.17-4.36,3.57-2.43,.56-5.8,1.18-6.6-1.56Z"/><path class="eh" d="M86.16,570.77c-1.55-.3-5.75-.79-5.45,1.78,.16,1.33,1.48,2.6,2.42,3.42,1.19,1.05,2.63,2.1,4.16,2.6,1.32,.43,3.83,1.19,4.29-.66,.67-2.66-2.04-4.61-5.43-7.14Z"/><path class="eh" d="M27.58,376.34c.37-.46,.79-.86,1.27-1.21,.32-.04,.64-.1,.95-.19,.64-.15,1.29-.32,1.95-.17,.82,.19,1.43,.9,1.39,1.77-.03,.73-.9,1.64-1.55,1.92-1.16,.5-3.04-.04-3.61-1.12l-.4-1Z"/><path class="eh" d="M76.84,566.95c-.15-.26-.26-.53-.31-.83,.1-.11,.17-.24,.23-.37,.37-.62,.96-1.05,1.63-1.31,.75-.29,1.62-.38,2.41-.19,.4,.09,.88,.24,1.11,.61,.49,.8-.43,2.09-1.05,2.56-.99,.76-2.38,.43-4.02-.47Z"/><path class="eh" d="M68.24,476.59c-.6-.05-1.17-.21-1.71-.45-.07-.29-.18-.56-.34-.81-.57-1.33-.6-2.79-.24-4.19,.4-1.57,1.27-3.07,2.49-4.15,.62-.54,1.42-1.16,2.29-1.09,1.88,.13,2.9,3.13,2.95,4.69,.09,2.5-2.07,4.37-5.44,6.01Z"/><path class="eh" d="M257.79,266.71c-.52,.67-.96,1.38-1.31,2.14,.15,.46,.28,.93,.39,1.41,.26,1.04,.46,1.96,1.21,2.79,.92,1.01,2.41,1.27,3.58,.4,2.69-2.01,.35-7.94-2.98-6.44l-.9-.3Z"/><path class="eh" d="M265.27,276.29c-.46-.71-1.33-1.59-1.16-2.41,.04-.21,.22-.63,.32-.82,.35-.65,1.16-.92,1.89-.66,1.5,.53,1.37,3.75-.46,3.59l-.6,.3Z"/><path class="eh" d="M287.72,279.28c-.79,0-1.51,.2-2.16,.6,.07,.49-.04,1,.15,1.47,.42,1.02,1.86,1.9,2.89,2.09,1.38,.26,3.2,.15,4.52-.3,1.38-.47,3.46-1.36,4.48-2.43,1.17-1.22,2.03-4.05-.24-4.7-1.22-.35-3.08-.11-4.25,.28-1.72,.57-2.96,1.69-4.18,2.97h-1.2Z"/><path class="eh" d="M303.88,273.6c-.76-.1-1.4-.4-1.94-.91,.37-1.1,1.4-4.5,3.27-3.1,.71,.54,.83,1.92,.59,2.66-.17,.53-.59,1.24-1.02,1.63-.46,.42-.89,.34-1.5,.32l.6-.6Z"/><path class="eh" d="M309.27,269.11c-.55,1.14-1.56,2.55-.3,3.63,.77,.67,1.42-.02,1.99-.62,.3-.32,.83-.69,.98-1.13,.15-.43,.04-1.15,.03-1.59,0-1.4-.36-1.86-1.8-1.79l-.9,1.5Z"/><path class="eh" d="M410.13,253.55c.16,.78,.45,1.5,.87,2.16,1.4-.02,2.72-.11,4.07-.5,.81-.23,2.45-.7,2.55-1.82,.13-1.59-4.48-1.37-5.09-.44l-2.39,.6Z"/><path class="eh" d="M422.1,246.36c-1.58,.3-2.04,.24-2.78,1.54-.4,.71-.66,1.28-.49,2.12,.41,1.97,1.85,2.73,3.71,2.03,1.77-.66,2.94-1.97,2.88-3.88-.04-1.27-1.82-3.88-3.32-2.41v.6Z"/><path class="eh" d="M425.09,241.28c-.15-1.06-.87-2.61,.4-3.14,.67-.28,1.18,.2,1.56,.8,.45,.71,.53,1.39,.11,2.11-.5,.87-1.51,2.05-2.67,1.73l.6-1.5Z"/><path class="eh" d="M428.69,216.73c-.55,.68-.98,1.42-1.3,2.22,.57,.47,.74,1.05,1.46,1.4,.78,.38,1.41,.12,1.96-.6,1.29-1.7-.09-3.04-1.82-3.31l-.3,.3Z"/><path class="eh" d="M251.81,245.76c-.68-.4-1.22-.92-1.62-1.58,.77-.56,1-1.55,2-.82,.85,.62,.6,1.66-.08,2.4h-.3Z"/><path class="fj" d="M434.63,273.49l-.52-.96c.42-.23,42.75-22.93,93.57-22.93,.19,0,.38,0,.57,0v1.1c-.19,0-.39,0-.57,0-50.55,0-92.63,22.56-93.05,22.79Z"/><path class="fg" d="M434.58,279.98l-.43-1.01c.36-.15,36.32-15.01,85.01-7.2l-.18,1.08c-48.34-7.76-84.05,6.98-84.4,7.13Z"/><path class="fe" d="M207.03,330.06l-.67-.87c43.15-33.01,128.4-32.12,129.26-32.11l-.02,1.1c-.83-.03-85.74-.89-128.58,31.88Z"/><path class="fi" d="M219.35,347.6l-.58-.93c61.67-38.34,114.99-39.58,115.52-39.59l.02,1.1c-.53,0-53.57,1.25-114.96,39.42Z"/><path class="cl" d="M372.12,278.91s5.15,5.73,10.11-.99l-10.11,.99Z"/><path class="eh" d="M120.64,571.04c.52-2,1.89-4.14-.37-5.07-1.35-.56-2.79-.4-3.69,.83-.64,.88-.84,2.23-.21,3.15,.55,.79,2.23,1.99,3.19,1.55l1.07-.46Z"/></g><g><path class="ff" d="M464.12,728.96s18.78-.65,.28,9.55c0,0,55.48,58.3-38.9,86.48,0,0,28.21,24.54-20.41,16.44,0,0-21.62,62.17-69.67,3.55,.2,.69,2.71,9.82-10.4,12.38,0,0-6.71,21.89-42.06,23.9-33.87,1.93-34.45-33.34-34.45-33.34,0,0-6.7,5.52-19.91,0,0,0-56.31,28.58-94.92,16.7-12.33-3.76-22.97-11.68-29.73-26-5.04-10.66-7.93-24.97-7.79-43.94,0,0-18.55-3.26-8.81-28.49,0,0-22.1-12.44-2.9-32.04-.11-.12-.22-.22-.33-.35-.16-.14-.29-.28-.4-.43-1.96-2.14-7.53-8.46-13.23-17.47-.04-.06-.09-.1-.11-.16-4.09-6.48-8.22-14.36-11.1-23.08-.11-.34-.19-.59-.26-.75-.06-.19-.11-.29-.11-.29-6.62-20.72-6.16-46.33,18.77-71.24,0,0-1.75-41.41,25.65-40.32,5.31,.2,11.78,1.98,19.62,5.94,0,0,22.25-17.08,47.13-22.11,24.81-5.06,52.42,1.79,62.12,49.32t.03-.05c.4-1.1,6.31-16.24,16.48-22.2h.03s.05-.04,.08-.05c6.22-3.63,14.09-3.82,23.32,4.71,0,0,3.88-3.62,10.38-8.66,.09-.07,.11-.1,.11-.1v-.03c9.51-7.44,24.63-18.11,41.23-25.33,.51-.2,1-.4,1.48-.62,24.72-10.43,52.64-12.87,69.39,14.69,5.55,9.06,9.82,21.38,12.33,37.66,0,0,45.11-22.91,44.12,10.39v.11s66.71-7.5,67.74,41.01c1.03,48.75-54.83,64.23-54.83,64.23Z"/><path class="fc" d="M96.18,794.67s-20.41,9.96-21.55,27.14c-1.72,25.93,34.13,25.07,34.13,25.07,0,0,17.57-40.84-12.57-52.21Z"/><path class="ek" d="M198.15,738.33c-23.89,11.28-52.98,76.5-52.98,76.5,29.6-88.76-9.49-75.77-9.49-75.77-29.3,31.62-48.32,27.13-48.32,27.13,37.49-11.51,54.04-49.44,54.04-49.44-31.54-.49-56.94,17.4-56.94,17.4-.11-.12-.22-.22-.33-.35-.16-.14-.29-.28-.4-.43-5.26-5.37-9.66-11.55-13.23-17.47-.04-.06-.09-.1-.11-.16-6.9-11.45-10.71-21.97-11.35-23.83-.06-.19-.11-.29-.11-.29,0,0,60.94,38.55,107.77,5.55,49.88-35.12,51.81-75.38,51.81-75.38-21.91,23.38,33.02-64.48-48.41-57.9,24.81-5.06,52.42,1.79,62.12,49.32,1.4,18.45,7.15,24.54-3,44.26,11.61-2.14,24.05-16.22,24.05-16.22,0,0,18.65,35.53-15.86,73.12-33.16,36.09-71.73,29.57-71.73,29.57,12.07,3.08,32.46-5.6,32.46-5.6Z"/><path class="ew" d="M122.97,586c-9.74,34.97-45.27,34.39-45.27,34.39,0,0,24.54-5.56,30.47-19.04,5.96-13.56-4.82-21.28-4.82-21.28,5.31,.2,11.78,1.98,19.62,5.94Z"/><path class="ep" d="M375.43,632.46c-.67,.58-1.15,.89-1.31,1.02,.16-.13,.61-.49,1.31-1.02Z"/><path class="f`" d="M464.12,728.96s18.78-.65,.28,9.55c0,0,55.48,58.3-38.9,86.48,0,0,28.21,24.54-20.41,16.44,0,0-21.62,62.17-69.67,3.55,.2,.69,2.71,9.82-10.4,12.38,0,0-6.71,21.89-42.06,23.9-33.87,1.93-34.45-33.34-34.45-33.34,0,0-6.7,5.52-19.91,0,0,0-97.06,49.27-124.64-9.3,10.86-2.31,24.43-8.37,37.98-22.7-.51,.89-8.87,15.15-26.17,26.48,0,0,86.95,24.52,126.81-52.09-.84,1.45-5.2,7.44-20.93,10.76,0,0,14.35-5.46,38.26-40.28-.75,1.4-13.46,25.31-11.29,41.78,2.27,17.06,128.95-9.59,114.57-75.14,0,0,19.69,4.37,41.95-19.48,22.82-24.41-18.34-47.52-18.34-47.52,0,0,22.09,1.81,31.4,21.58,0,0,10.46-34.73-.9-54.78-9.57-16.88-34.47-.23-41.39,4.88,6.1-5.05,25.09-23.79,18.86-56.53,5.55,9.06,9.82,21.38,12.33,37.66,0,0,10.29-5.22,20.93-6.98,11.64-1.99,23.76,.11,23.19,17.48,0,0,38.47-4.32,57.56,15.19l.04,.02c5.92,6.06,9.9,14.43,10.14,25.79,1.03,48.75-54.83,64.23-54.83,64.23Z"/><path class="eu" d="M361.05,658.5c.12,1.56,.14,3.21,.04,4.93,0,0-.41-1.87-.04-4.93Z"/><path class="el" d="M407.1,613.22s-16.71,10.25-32.93,23.86c-9.88,8.28-12.51,16.39-13.11,21.38-1.57-21.53-21.13-28.29-22.38-28.7,1.06,.21,18.51,3.79,22.62,4.78,4.23,1.04,30.61-6.68,29.55-22.21-1.06-15.22-6.97-75.18-65.47-51.45,24.72-10.43,52.64-12.87,69.39,14.69,5.55,9.06,9.82,21.38,12.33,37.66Z"/><path class="ey" d="M282.55,586.95c-1.17,1-10.52,9.21-12.54,17.43-2.13,8.52-13.24,28.3-13.93,29.53,.58-1.21,12.21-25.24,6.63-35.83-5.31-10.05-12.89-7.56-13.85-7.18,6.22-3.63,14.09-3.82,23.32,4.71,0,0,3.88-3.62,10.38-8.66Z"/><path class="ev" d="M58.92,648.68s-2.11,21.22,15.52,35.27c18.12,14.44,37.06-9.96,35.72-21.36l-10.06-2.3s28.64,8.56,46.62-26.38c0,0-2.41,19.96-33.38,30.78,0,0-7.02,31.5,33.64,31.98,43.06,.51,65.74-53.73,65.74-53.73,0,0-21.22,52.69-59.67,67.61-36.58,14.19-48.84,4.77-69.32,22.83,0,0-39.6-42.72-24.8-84.7Z"/><path class="eo" d="M83.73,733.38c39.65-19.26,57.68-16.63,57.68-16.63,0,0,.15,17.25-8.99,25.72,0,0,14.28-10.34,20.65,4.13,0,0,55.96,4.5,75.87-31.33,20.38-36.67,3.29-102.07,3.29-102.07,0,0-9.78-31.37-26.71-36.31,0,0-.63,62.64,12.98,40.71,0,0-22.38,59.52-56.82,76.03-32.95,15.8-96.5,12.95-96.5,12.95,0,0,10.32,18.67,18.55,26.79Z"/><path class="et" d="M398.62,817.98l1.1-.23c-.7,.3-1.1,.23-1.1,.23Z"/><path class="ej" d="M464.12,728.96s18.78-.65,.28,9.55c0,0,55.48,58.3-38.9,86.48,0,0,28.21,24.54-20.41,16.44,0,0-21.62,62.17-69.67,3.55,.2,.69,2.71,9.82-10.4,12.38,0,0-6.71,21.89-42.06,23.9-33.87,1.93-34.45-33.34-34.45-33.34,0,0-6.7,5.52-19.91,0,0,0-56.31,28.58-94.92,16.7,0,0,39.49-2.79,62.66-23.47,0,0-2.64,6.48-14.6,15.95-11.75,9.34,28.65,.48,44.27-20.52,15.89-21.39,16.56-46.28,16.56-46.28l7.74-12.85c-1.23,2.44-9.07,19.26,4.43,29.59,14.87,11.34,89.94-11.49,105.09-51.19,0,.16,0,7.2-16.28,30.79-16.14,23.45,34.41,34.69,51.44,2.8,0,0-1.5,25.62-44.49,25.24,0,0-11.2,8.01-.71,36.65,10.64,29.06,48.88,11.72,52.26-14.57,0,0,9.91,2.36,16.65-4.68,6.79-7.09-8.38-16.61-8.38-16.61l-10.61,2.28c1.93-.79,6.12-4.19,10.35-18.6,0,0,5.23,2.15,1.88,13.34,0,0,17.01,7.95,46.36-19.39,30.25-28.21-6.49-59.5-38.2-61.78-30.62-2.2-56.66,13.85-56.66,13.85l-.25-17.77s15.45,3.28,28.62-8.02c13.33-11.46,25.58-20.02,26.38-37.4,0,0,7.07,13.41-9.5,31.5,0,0,17.83,14.12,36.37,16.41,18.9,2.34,69.56-57.17,55.21-84.47-14.1-26.82-51.3-21-51.3-21l2.25-.83v.11s66.71-7.5,67.74,41.01c1.03,48.75-54.83,64.23-54.83,64.23Z"/><path class="er" d="M84.71,782.1c2.34,14.55,21.62,10,21.62,10,0,0,3.7-6.52,10.73-11.13,0,0-8.64,7.85-9.64,14.1-.99,6.25,9.72,16.88,9.72,16.88,0,0-6.77-1.92-13.28-14.58,0,0-2.62-3.66-8.54-2.9,0,0-9.39-1.86-10.62-12.37Z"/><path class="em" d="M361.09,663.44c-8.37,33.27-52.31,28.62-52.31,28.62,0,0-1.41-10.13-23.97-13.66,0,0,18.43,5.01,18.8,22.58,.38,17.6-12.4,26.67-12.4,26.67,0,0,19.64-3.13,19.34-29.78,0,0,52.66-4.85,50.54-34.42Z"/><path class="en" d="M508.78,638.91c-20-15.34-60.91-1.28-60.91-1.28-.96,19.34-19.02,28.82-20.12,29.38,.91-.95,12.79-13.28,10.47-23.81-2.38-10.96-16.78-12.4-16.78-12.4,9.07-2,17.48,2.43,17.48,2.43,0,0,20.11-28.89-10.89-26.98,11.64-1.99,23.76,.11,23.19,17.48,0,0,38.47-4.32,57.56,15.19Z"/><path class="ei" d="M411.95,812.49s21.66-3.12,39.64-29.16c18.32-26.53,15.3-41.89,15.3-41.89,0,0,25.51,28.5,6.15,54.96-16.42,22.44-47.52,28.59-47.52,28.59,0,0-11.29-.39-13.56-12.5Z"/><path class="eq" d="M433.55,722.46s10.7,7.63,30.58,6.5c0,0,48.51-13.74,53.62-51.12,0,0-8.15,25.43-38.66,37.09-29.53,11.28-45.54,7.54-45.54,7.54Z"/><path class="fa" d="M171.98,738.98s-8.68-32.93,30.75-55.06c41.52-23.31,48.63-10.96,48.63-10.96,0,0-4.22,38.84-36.33,54.66-30.86,15.2-43.04,11.36-43.04,11.36Z"/><path class="fa" d="M216.61,668.51c17.55-15.81,34.61-10.76,34.61-10.76,0,0-18.6,17.58-34.61,10.76Z"/><path class="fa" d="M260.07,865.97c.29-1.93,11.43-23.91,40.72-30.06,30.38-6.38,32.19,5.59,32.19,5.59,0,0-3.27,12.21-13.69,15.39-10.29,3.14-15.88,18.41-37.05,18.66-20.63,.24-22.18-9.58-22.18-9.58Z"/><path class="fa" d="M356.41,851.22s2.95-24.09,21.17-24.69c18.62-.61,21.38,13.38,21.38,13.38,0,0-8.08,22.83-24.69,22.88-16.29,.05-17.86-11.57-17.86-11.57Z"/><path class="fa" d="M437.96,806.36c32.57-28.01,33.7-41.12,33.7-41.12,0,0,8.55,5.23-4.71,26.88-13.09,21.36-28.99,14.24-28.99,14.24Z"/><path class="fa" d="M456.9,716.71c-29.19,3.4,21.21-11.74,35.51-41.21,14.5-29.88,9.64-35.7,9.64-35.7,0,0,32.75,13.11,10.45,45.14-21.82,31.33-55.59,31.76-55.59,31.76Z"/><path class="fb" d="M153.96,638.53c-4.77,3.7-9.07,6.54-14.27,9.06-4.72,2.28-9.08,3.89-12.99,7.56-3.88,3.64-5.96,8.22-8.13,12.89-1.44,3.1-3.11,8.1-3.08,11.31,.06,7.34,8.34,10.99,14.49,12.39,3.93,.89,8.81-.44,13.02-1.03,2.2-.31,4.04-.35,6.21-.21,2.89,.19,5.57-.52,8.45-.57,4.52-.07,7.18,.85,11.87-1.14,5.43-2.3,9.9-5.28,14.84-8.73,5.89-4.12,9.26-9.64,14.28-14.57,5.25-5.15,7.63-10.34,11.14-16.45,2.51-4.38,3.32-6.52,3.24-11.16-.04-2.84,.52-6.32,0-9.04-.46-2.4-2.75-5-4.4-6.63-1.89-1.87-4.92-4.23-7.65-4.79-7.1-1.46-15.6-1.07-22.53,3.46-2.71,1.77-5.02,3.64-7.78,5.37-7.17,4.5-12.32,8.46-16.71,12.3Z"/><path class="fb" d="M108.4,595.9c-.56-4.11-.72-7.39-2.91-10.18-.9-1.15-1.72-2.21-2.88-3.12-2.12-1.67-5.22-3.56-8.45-1.76-7.56,4.21-10.04,15.27-12.17,22.25-.71,2.32-.83,4.53-1.35,6.81-.43,1.89-1.12,4.14-.33,5.83,1.34,2.88,4.85,3.08,7.86,2.19,4.95-1.46,11.93-6.36,14.98-10.87,4.12-6.1,2.94-12.3,2.93-18.63l2.33,7.48Z"/><path class="fb" d="M102.69,617.43c-5.12,1.98-11.98,4.74-15.66,9.57-2.25,2.96-1.02,5.98,1.98,6.5,3.35,.58,9.08-2.21,12.02-4.39,1.71-1.27,3.88-3.55,5.2-5.26,1.4-1.8,1.04-2.8,1.06-5l-4.61-1.42Z"/><path class="fb" d="M127.25,623.28c-.89-5.92-1.95-12.22-.98-18.56,.77-5.03,.9-9.95,4.42-14.44,7.46-9.53,17.22-13.47,27.89-18.19,5.68-2.51,11.61-4.5,17.56-5.06,5.11-.48,12.04-.67,16.46,1.24,3.79,1.63,8.51,3.56,10.46,7.2,1.86,3.46,1.62,7.49,1.66,11.55,.04,3.68-.08,6.4-2.51,9.91-3.04,4.4-8.68,7.14-12.78,10.47-7.77,6.32-16.36,12.25-25.25,16.44-4.61,2.18-8.91,3.63-13.68,4.66-3.06,.66-5.72,2.3-8.8,2.73-3.19,.44-6.58-1.92-8.22-4.33-2.44-3.59-1.48-9.32-6.23-3.61Z"/><path class="fb" d="M93.63,658.61c5.17,2.06,11.85,3.71,14.07,9.19,.9,2.23,1.32,3.56,.07,5.99-1.27,2.47-3.3,5.95-5.61,7.44-6.96,4.48-12.89,3.84-19.52,1.82-6.45-1.96-12.03-3.68-15.78-9.38-3.12-4.75-5.77-11.57-5.46-17.72,.32-6.36,6.03-12.69,12.33-12.92,3.18-.11,5.53,.61,8.15,1.74,2.6,1.13,3.3,2.48,5.22,4.49,1.34,1.39,3.05,2.63,4.27,4.06,1.59,1.87,2.27,4.63,4.52,6.06l-2.28-.77Z"/><path class="fb" d="M325.66,641.44c.17-.05,.33-.1,.5-.14,17.07-4.64,30.05,11.44,27.2,24.79-1.2,5.61-2.38,9.61-8.36,13.1-5.16,3.01-11.23,4.35-16.75,6.26-6.49,2.25-11.33,4.92-17.95,3.53-6.17-1.29-10.55-5.08-10.73-10.83-.22-7.06,.99-14.8,5.9-21.45,4.4-5.96,12.3-12.92,20.19-15.26Z"/><path class="fb" d="M374.51,666.06c-7.26,6.22-9.89,9.3-14.91,16.57-2.34,3.39-4.77,5.59-7.35,8.73-6.25,7.6-11.42,16.03-9.12,24.86,1.7,6.48,11.38,10.42,19.22,9.66,6.33-.61,13.41-4.2,19.52-5.97,15.22-4.41,21.44-18.22,21.28-30.14-.08-5.73-.9-14.89-5.43-19.07-5.95-5.5-14.56-5.65-23.21-4.63Z"/><path class="fb" d="M319.56,702.01c-6.12,12.05-12.27,23.12-23.07,32.49-9.52,8.25-20.18,14.22-28.37,23.37-4.27,4.76-7.17,9.99-9.14,15.7-1.9,5.47-4.55,11.81-4.85,17.42-.36,6.79,3.48,11.93,11.69,11.73,5.52-.13,11.9-2.54,17.44-3.7,7.32-1.54,14.25-4.51,21.43-6.89,11.76-3.89,21-9.08,30.69-16.44,8.72-6.63,16.58-15.26,21.49-24.5,2.38-4.49,4.05-6.98,4.06-11.72,.01-4.37-2.38-7.12-6.47-9.21-8.98-4.58-18.47-8.48-22.58-16.86-.95-1.93-1.43-2.14-1.42-4.62,0-1.74,.19-3.64-.04-5.33-.86-6.44-5.63-2.07-10.85-1.44Z"/><path class="fb" d="M231.31,725.37c-4.79,3.75-7.36,5.83-12.17,8.29-3.73,1.9-7.29,3.63-11.06,5.4-8.34,3.91-15.9,9.79-21.61,16.59-2.65,3.16-4.95,7.21-7.21,10.61-.87,1.31-1.08,2.79-1.94,4.12-1.05,1.62-2.67,2.93-3.88,4.44-5.56,6.94-11.48,13.31-15.34,21.15-3.48,7.06-8.43,12.93-13.57,18.85-2.32,2.67-3.88,5.8-6.08,8.56-2.32,2.92-4.5,8.01-4.53,11.71-.05,6.05,6.18,7.49,11.28,6.55,10.71-1.97,21.4-6.13,32.11-9.44,15.87-4.9,32.38-5.55,46.57-15.97,4.2-3.08,5-6.76,4.02-11.74-.51-2.56-2.11-5-3.24-7.32-1.03-2.11-3-6.32-2.51-8.69,1.1-5.25,10.02-10.17,14.71-12.44,4.08-1.97,7.48-4.93,11.49-7.11,4.45-2.42,8.51-6.3,12.34-9.51,2.97-2.49,4.53-5.69,7.37-8.32,1.61-1.49,3.67-2.53,5.13-4.18,1.64-1.85,2.18-3.98,3.78-5.86,6.26-7.36,11.76-14.18,15.63-22.82,3.69-8.24,7.22-19.8,2.38-27.58-4.8-7.7-14.37-10.08-23.26-4.22-5.21,3.44-9.13,7.66-12.76,12.39-3.15,4.1-5.19,6.06-9.74,8.6-2.09,1.17-3.79,2.68-5.6,4.15-2.29,1.85-4.31,2.82-6.84,4.38-8.09,4.99-13.63,12.91-5.46,9.41Z"/><path class="fb" d="M291.23,590.26c-3.19,2.12-6.8,4.13-9.17,6.72-1.51,1.65-2.56,3.76-3.87,5.52-3.5,4.69-6.54,9.67-9.29,14.65-2.47,4.46-4.36,8.71-5.59,13.41-1.37,5.22,.41,9.09,.9,13.94,.76,7.63,2.91,16.65,13.49,15.99,5.03-.31,11.75-3.92,16.05-6.73,6.04-3.94,10.5-9.6,16.13-14,7.51-5.87,14.66-10.89,24.53-12.35,8.34-1.23,19.39-2.25,26.52-8,4.34-3.5,8.77-9.45,11.07-13.93,3.32-6.46,8.13-12.86,8.01-19.7-.18-10.32-10.7-16.57-20.29-19.93-10.19-3.58-25.57-.54-36.5,4.37-5.68,2.55-10.81,4.96-16.49,7-11.51,4.13-18.73,11.3-15.5,13.05Z"/><path class="fb" d="M103.92,766.45c2.75,1.4,4.91,3.93,5.75,6.89,2.08,7.36-5.13,11.28-11.23,13.18-1.39,.44-2.93,.67-4.31,.33-9.17-2.26-5.05-20.87,4.31-21.55,1.94-.14,3.82,.29,5.49,1.14Z"/><path class="fb" d="M117.1,794.85c-2.86,2.01-4.67,4.57-5.45,7.69,3.22,1.73,4.93,5.06,5.75,8.34,.37,1.47,1.44,3.29,2.16,4.79,.8,1.67,.07,1.09,1.13,2.6,.58,.83,1.4,1.75,2.35,2.04,2.21,.67,5.6-1.22,7.21-2.62,2.87-2.5,5.58-6.09,7.87-9.17,2.86-3.86,5.33-7.99,7.28-12.35,1.18-2.64,2.54-5.25,2.98-8.06,.44-2.78-.17-5.55,.12-8.34,.53-5.19,1.59-9.05,.17-14.08-1.11-3.94-1.81-7.17-4.34-10.33-4.93-6.15-12.68-1.03-16.41,4.91-3.01,4.79-3.85,10.73-6.12,15.56-1.19,2.53-2.5,5.24-3.57,7.86-1.97,4.84-1.41,9.81-1.14,11.17Z"/><path class="fb" d="M105.43,811.72c-1.3-3.86-1.59-7.82-5.29-9.51-1.99-.91-4.93-1.84-7.15-1.42-3.91,.74-7.48,4.63-9.89,7.59-6.04,7.43-8.84,18.68-1.11,25.42,6.27,5.47,15.07,4.42,22.33,.24,3.98-2.29,5.32-6.14,5.86-10.46,.35-2.79-.64-5.2-1.54-7.7-.81-2.25-3.28-5.21-3.22-7.63v3.47Z"/></g></g></g></g></g></svg>