<?xml version="1.0" encoding="UTF-8"?><svg xmlns="http://www.w3.org/2000/svg" xmlns:xlink="http://www.w3.org/1999/xlink" viewBox="0 0 1165.73 961.3"><defs><style>.ce{fill:url(#bx);}.ce,.cf,.cg,.ch,.ci,.cj,.ck,.cl,.cm,.cn,.co,.cp,.cq,.cr,.cs,.ct,.cu,.cv,.cw,.cx,.cy,.d`,.da,.db,.dc,.dd,.de,.df,.dg,.dh,.di,.dj,.dk,.dl,.dm,.dn,.do,.dp,.dq,.dr,.ds,.dt,.du,.dv,.dw,.dx,.dy,.e`,.ea,.eb,.ec{fill-rule:evenodd;}.cf{fill:url(#j);}.ed,.cm{fill:#fff;}.ee{fill:url(#r);}.cg{fill:url(#as);}.ef{fill:url(#af);}.ef,.cl,.eg,.eh,.ei,.ej,.ek,.el,.em,.en,.cr,.cs,.eo,.ep,.eq,.db,.er,.dg,.dh,.es,.et,.eu,.ev,.ds,.ew,.ex,.ey,.f`{mix-blend-mode:multiply;}.ef,.cl,.eg,.eh,.ei,.ej,.el,.em,.cr,.cs,.ep,.eq,.db,.dg,.dh,.es,.et,.eu,.fa,.ds,.ew,.ey,.f`{opacity:.5;}.ch{fill:url(#ax);}.ci{fill:url(#bh);}.cj{fill:url(#g);}.ck{fill:url(#ap);}.cl{fill:url(#bp);}.cn{fill:url(#ca);}.eg{fill:url(#ad);}.eh{fill:url(#ai);}.ei{fill:url(#ac);}.fb{isolation:isolate;}.ej{fill:url(#ab);}.fc{fill:url(#v);}.co{fill:url(#by);}.ek{fill:url(#x);}.ek,.er,.ev{opacity:.3;}.cp{fill:url(#bb);}.cq{fill:url(#ay);}.el{fill:url(#bq);}.em{fill:url(#q);}.en{fill:url(#u);opacity:.4;}.cr{fill:url(#br);}.cs{fill:url(#cb);}.eo{fill:url(#aa);}.eo,.ex{opacity:.2;}.ct{fill:url(#av);}.cu{fill:url(#h);}.cv{fill:url(#au);}.fd{fill:url(#bg);}.cw{fill:url(#k);}.cx{fill:url(#f);}.cy{fill:url(#c`);}.d`{fill:url(#bn);}.da{fill:url(#bw);}.ep{fill:url(#ae);}.fe{fill:url(#p);}.eq{fill:url(#am);}.ff{mix-blend-mode:overlay;opacity:.28;}.db{fill:url(#cc);}.dc{fill:url(#bl);}.dd{fill:url(#bo);}.er{fill:url(#al);}.de{fill:url(#ba);}.df{fill:url(#b`);}.dg{fill:url(#o);}.dh{fill:url(#m);}.di{fill:url(#i);}.dj{fill:url(#ar);}.fg{fill:url(#d);}.es{fill:url(#n);}.et{fill:url(#ah);}.eu{fill:url(#ak);}.dk{fill:url(#at);}.dl{fill:url(#bv);}.dm{fill:url(#e);}.dn{fill:url(#bi);}.do{fill:url(#bm);}.dp{fill:url(#l);}.fh{fill:url(#s);}.dq{fill:url(#an);}.fa{fill:#66b9ff;mix-blend-mode:soft-light;}.dr{fill:url(#aq);}.fi{fill:url(#w);}.ev{fill:url(#aj);}.ds{fill:url(#cd);}.dt{fill:url(#bu);}.ew{fill:url(#y);}.du{fill:url(#bd);}.dv{fill:url(#bt);}.dw{fill:url(#bk);}.dx{fill:url(#be);}.dy{fill:url(#ao);}.e`{fill:url(#bc);}.fj{fill:url(#bs);}.ex{fill:url(#a`);}.ea{fill:url(#bf);}.ey{fill:url(#ag);}.f`{fill:url(#t);}.eb{fill:url(#aw);}.ec{fill:url(#bj);}</style><linearGradient id="d" x1="937.82" y1="502.52" x2="866.05" y2="626.85" gradientTransform="translate(710.23 -546.12) rotate(50.05)" gradientUnits="userSpaceOnUse"><stop offset="0" stop-color="#ffa4c2"/><stop offset=".68" stop-color="#ffa6b9"/><stop offset="1" stop-color="#ffa9b3"/></linearGradient><radialGradient id="e" cx="795.05" cy="395.48" fx="795.05" fy="395.48" r="62.81" gradientTransform="translate(7.78 -133.97) rotate(5.05)" gradientUnits="userSpaceOnUse"><stop offset="0" stop-color="#ff7793"/><stop offset=".15" stop-color="#ffe5dd"/><stop offset="1" stop-color="#fff"/></radialGradient><radialGradient id="f" cx="795.05" cy="395.5" fx="795.05" fy="395.5" r="62.8" xlink:href="#e"/><radialGradient id="g" cx="795.05" cy="395.51" fx="795.05" fy="395.51" r="62.8" xlink:href="#e"/><radialGradient id="h" cx="795.05" cy="395.51" fx="795.05" fy="395.51" r="62.8" xlink:href="#e"/><radialGradient id="i" cx="795.05" cy="395.5" fx="795.05" fy="395.5" r="62.8" xlink:href="#e"/><radialGradient id="j" cx="795.05" cy="395.5" fx="795.05" fy="395.5" r="62.8" xlink:href="#e"/><radialGradient id="k" cx="795.05" cy="395.5" fx="795.05" fy="395.5" r="62.8" xlink:href="#e"/><radialGradient id="l" cx="795.05" cy="395.5" fx="795.05" fy="395.5" r="62.8" xlink:href="#e"/><radialGradient id="m" cx="903.77" cy="555.5" fx="903.77" fy="555.5" r="79.2" gradientTransform="translate(7.78 -133.97) rotate(5.05)" gradientUnits="userSpaceOnUse"><stop offset=".75" stop-color="#fff"/><stop offset=".99" stop-color="#ff7eb3"/></radialGradient><linearGradient id="n" x1="901.93" y1="603.62" x2="901.93" y2="525.75" gradientTransform="translate(1189.25 -502.86) rotate(76.17)" gradientUnits="userSpaceOnUse"><stop offset="0" stop-color="#fff"/><stop offset=".99" stop-color="#ff7eb3"/></linearGradient><linearGradient id="o" x1="901.94" y1="570.37" x2="901.94" y2="525.74" gradientTransform="translate(7.78 -133.97) rotate(5.05)" xlink:href="#n"/><radialGradient id="p" cx="604.05" cy="285.73" fx="604.05" fy="285.73" r="620.1" gradientTransform="matrix(1, 0, 0, 1, 0, 0)" gradientUnits="userSpaceOnUse"><stop offset=".06" stop-color="#fbfeff"/><stop offset="1" stop-color="#d9d3e8"/></radialGradient><linearGradient id="q" x1="587.04" y1="336.1" x2="587.04" y2="161.31" gradientTransform="matrix(1, 0, 0, 1, 0, 0)" gradientUnits="userSpaceOnUse"><stop offset="0" stop-color="#8883bc"/><stop offset=".17" stop-color="#9792c5"/><stop offset=".48" stop-color="#bfbadf"/><stop offset=".59" stop-color="#d1ccea"/><stop offset="1" stop-color="#fff"/></linearGradient><linearGradient id="r" x1="687.03" y1="309.26" x2="691.32" y2="309.26" gradientTransform="matrix(1, 0, 0, 1, 0, 0)" gradientUnits="userSpaceOnUse"><stop offset="0" stop-color="#8892af"/><stop offset=".17" stop-color="#979ebb"/><stop offset=".48" stop-color="#bfbedc"/><stop offset=".59" stop-color="#d1ccea"/><stop offset="1" stop-color="#fff"/></linearGradient><linearGradient id="s" x1="705.23" y1="267.92" x2="715.54" y2="267.92" xlink:href="#r"/><linearGradient id="t" x1="715.57" y1="272.44" x2="917.09" y2="272.44" gradientTransform="matrix(1, 0, 0, 1, 0, 0)" gradientUnits="userSpaceOnUse"><stop offset="0" stop-color="#fff"/><stop offset=".41" stop-color="#d1ccea"/><stop offset=".52" stop-color="#bfbadf"/><stop offset=".83" stop-color="#9792c5"/><stop offset=".99" stop-color="#8883bc"/></linearGradient><linearGradient id="u" x1="670.23" y1="715.79" x2="670.23" y2="361.17" gradientTransform="matrix(1, 0, 0, 1, 0, 0)" gradientUnits="userSpaceOnUse"><stop offset="0" stop-color="#8883e2"/><stop offset=".17" stop-color="#9792e3"/><stop offset=".48" stop-color="#bfbae8"/><stop offset=".59" stop-color="#d1ccea"/><stop offset="1" stop-color="#fff"/></linearGradient><linearGradient id="v" x1="946.23" y1="544.67" x2="946.23" y2="529.15" xlink:href="#r"/><linearGradient id="w" x1="1059.92" y1="623.21" x2="1059.92" y2="597.3" xlink:href="#r"/><linearGradient id="x" x1="441.24" y1="594.24" x2="770.19" y2="594.24" xlink:href="#t"/><linearGradient id="y" x1="250.43" y1="576.56" x2="329.39" y2="576.56" xlink:href="#q"/><linearGradient id="a`" x1="341.63" y1="641.01" x2="344.5" y2="641.01" gradientTransform="matrix(1, 0, 0, 1, 0, 0)" gradientUnits="userSpaceOnUse"><stop offset="0" stop-color="#fff"/><stop offset=".41" stop-color="#d1ccea"/><stop offset=".52" stop-color="#bfbedc"/><stop offset=".83" stop-color="#979ebb"/><stop offset=".99" stop-color="#8892af"/></linearGradient><linearGradient id="aa" x1="368.56" y1="638.38" x2="368.95" y2="638.38" xlink:href="#a`"/><linearGradient id="ab" x1="174.73" y1="640.02" x2="634.06" y2="640.02" xlink:href="#q"/><linearGradient id="ac" x1="805.31" y1="528.22" x2="806.56" y2="528.22" xlink:href="#t"/><linearGradient id="ad" x1="858.33" y1="534.95" x2="859.58" y2="534.95" xlink:href="#t"/><linearGradient id="ae" x1="861.84" y1="510.97" x2="864.84" y2="510.97" xlink:href="#t"/><linearGradient id="af" x1="890.83" y1="559.07" x2="899.55" y2="559.07" xlink:href="#t"/><linearGradient id="ag" x1="856.84" y1="608.71" x2="856.84" y2="513" xlink:href="#t"/><linearGradient id="ah" x1="780.71" y1="309.21" x2="871.11" y2="309.21" xlink:href="#t"/><linearGradient id="ai" x1="710.76" y1="634.83" x2="1136.48" y2="634.83" xlink:href="#t"/><linearGradient id="aj" x1="673.48" y1="395.07" x2="864.97" y2="395.07" xlink:href="#t"/><linearGradient id="ak" x1="338.01" y1="490.43" x2="503.18" y2="490.43" xlink:href="#q"/><linearGradient id="al" x1="540.14" y1="413.3" x2="605.71" y2="413.3" xlink:href="#t"/><linearGradient id="am" x1="368.98" y1="681.06" x2="929.51" y2="681.06" xlink:href="#q"/><linearGradient id="an" x1="170.52" y1="430.18" x2="181.01" y2="430.18" gradientTransform="translate(0 168.71) scale(1 .65)" gradientUnits="userSpaceOnUse"><stop offset="0" stop-color="#ffd100"/><stop offset=".35" stop-color="#ffc800"/><stop offset=".9" stop-color="#ffb000"/><stop offset="1" stop-color="#ffab00"/></linearGradient><linearGradient id="ao" x1="422.59" y1="1251.52" x2="433.08" y2="1251.52" gradientTransform="translate(597.89 79.46) rotate(57.65) scale(1 .65)" xlink:href="#an"/><linearGradient id="ap" x1="650.79" y1="422.87" x2="661.29" y2="422.87" gradientTransform="translate(1120.53 -31.9) rotate(102.47) scale(1 .65)" gradientUnits="userSpaceOnUse"><stop offset="0" stop-color="#00d183"/><stop offset=".35" stop-color="#00c87c"/><stop offset=".9" stop-color="#00b069"/><stop offset="1" stop-color="#00ab66"/></linearGradient><linearGradient id="aq" x1="764.6" y1="1293.78" x2="775.09" y2="1293.78" gradientTransform="translate(269.26 -345.22) rotate(47.44) scale(1 .65)" gradientUnits="userSpaceOnUse"><stop offset="0" stop-color="#c20042"/><stop offset=".25" stop-color="#ca0042"/><stop offset=".64" stop-color="#e20042"/><stop offset="1" stop-color="#ff0042"/></linearGradient><linearGradient id="ar" x1="770.63" y1="-292.2" x2="781.12" y2="-292.2" xlink:href="#aq"/><linearGradient id="as" x1="817.94" y1="545" x2="828.43" y2="545" gradientTransform="translate(87.41 137.46) rotate(12.47) scale(1 .65)" xlink:href="#an"/><linearGradient id="at" x1="799.54" y1="-389.14" x2="810.03" y2="-389.14" gradientTransform="translate(87.41 137.46) rotate(12.47) scale(1 .65)" xlink:href="#an"/><linearGradient id="au" x1="891.63" y1="310.76" x2="902.13" y2="310.76" gradientTransform="translate(133.59 795.16) rotate(-42.56) scale(1 .65)" xlink:href="#aq"/><linearGradient id="av" x1="412.38" y1="-686.21" x2="422.87" y2="-686.21" gradientTransform="translate(133.59 795.16) rotate(-42.56) scale(1 .65)" xlink:href="#an"/><linearGradient id="aw" x1="320.48" y1="624.39" x2="330.97" y2="624.39" gradientTransform="translate(612.37 -55.71) rotate(80.11) scale(1 .65)" xlink:href="#ap"/><linearGradient id="ax" x1="81.54" y1="197.85" x2="92.03" y2="197.85" gradientTransform="translate(361.96 -65.7) rotate(42.66) scale(1 .65)" gradientUnits="userSpaceOnUse"><stop offset="0" stop-color="#ffffc2"/><stop offset=".28" stop-color="#fff9b9"/><stop offset=".71" stop-color="#ffeaa1"/><stop offset="1" stop-color="#ffde8e"/></linearGradient><linearGradient id="ay" x1="558.81" y1="48.74" x2="569.31" y2="48.74" gradientTransform="translate(235.17 115.68) rotate(34.59) scale(1 .65)" xlink:href="#ax"/><linearGradient id="b`" x1="822.16" y1="-94.26" x2="832.65" y2="-94.26" gradientTransform="translate(1209.34 200.33) rotate(120) scale(1 .65)" xlink:href="#ax"/><linearGradient id="ba" x1="427.94" y1="1727.7" x2="438.44" y2="1727.7" gradientTransform="translate(1209.34 200.33) rotate(120) scale(1 .65)" xlink:href="#ax"/><linearGradient id="bb" x1="413.91" y1="-341.8" x2="424.4" y2="-341.8" gradientTransform="translate(235.17 115.68) rotate(34.59) scale(1 .65)" xlink:href="#ap"/><linearGradient id="bc" x1="348.31" y1="768.93" x2="358.8" y2="768.93" gradientTransform="translate(706.64 80.34) rotate(97.36) scale(1 .65)" gradientUnits="userSpaceOnUse"><stop offset="0" stop-color="#f7f"/><stop offset=".19" stop-color="#ff73f6"/><stop offset=".5" stop-color="#ff68de"/><stop offset=".88" stop-color="#ff58b7"/><stop offset="1" stop-color="#ff52a9"/></linearGradient><linearGradient id="bd" x1="762.77" y1="-442.3" x2="773.26" y2="-442.3" xlink:href="#bc"/><linearGradient id="be" x1="250.41" y1="-269.33" x2="260.9" y2="-269.33" xlink:href="#bc"/><linearGradient id="bf" x1="70.73" y1="371.22" x2="81.22" y2="371.22" xlink:href="#bc"/><linearGradient id="bg" x1="187.53" y1="563.37" x2="122.58" y2="675.87" gradientTransform="translate(737.23 367.94) rotate(76.36)" gradientUnits="userSpaceOnUse"><stop offset="0" stop-color="#ffffc2"/><stop offset=".28" stop-color="#fff6c1"/><stop offset=".72" stop-color="#ffdec0"/><stop offset="1" stop-color="#ffccc0"/></linearGradient><linearGradient id="bh" x1="154.49" y1="590.17" x2="195.15" y2="590.17" gradientTransform="translate(-117.07 94.94) rotate(-12.82)" xlink:href="#an"/><linearGradient id="bi" x1="115.33" y1="650.05" x2="155.6" y2="650.05" gradientTransform="translate(-117.07 94.94) rotate(-12.82)" xlink:href="#an"/><linearGradient id="bj" x1="154.33" y1="611.08" x2="219.82" y2="611.08" gradientTransform="translate(-117.07 94.94) rotate(-12.82)" xlink:href="#an"/><linearGradient id="bk" x1="90.42" y1="629.89" x2="155.76" y2="629.89" gradientTransform="translate(-117.07 94.94) rotate(-12.82)" xlink:href="#an"/><linearGradient id="bl" x1="154.62" y1="640.23" x2="214.98" y2="640.23" gradientTransform="translate(-117.07 94.94) rotate(-12.82)" xlink:href="#an"/><linearGradient id="bm" x1="94.32" y1="600.88" x2="155.49" y2="600.88" gradientTransform="translate(-117.07 94.94) rotate(-12.82)" xlink:href="#an"/><linearGradient id="bn" x1="150.44" y1="652.14" x2="177.75" y2="652.14" gradientTransform="translate(-117.07 94.94) rotate(-12.82)" xlink:href="#an"/><linearGradient id="bo" x1="130.89" y1="588.15" x2="159.68" y2="588.15" gradientTransform="translate(-117.07 94.94) rotate(-12.82)" xlink:href="#an"/><radialGradient id="bp" cx="156.72" cy="611.31" fx="156.72" fy="611.31" r="71.67" gradientTransform="translate(-117.07 94.94) rotate(-12.82)" xlink:href="#m"/><linearGradient id="bq" x1="155.05" y1="654.85" x2="155.05" y2="584.39" gradientTransform="translate(226.99 28.39) rotate(19.02)" xlink:href="#n"/><linearGradient id="br" x1="155.06" y1="624.76" x2="155.06" y2="584.38" gradientTransform="translate(-117.07 94.94) rotate(-12.82)" xlink:href="#n"/><linearGradient id="bs" x1="864.58" y1="215.99" x2="792.16" y2="341.42" gradientTransform="translate(599.29 -632.06) rotate(57.56)" xlink:href="#bg"/><radialGradient id="bt" cx="838.86" cy="101.12" fx="838.86" fy="101.12" r="101.93" gradientTransform="translate(7.78 -133.97) rotate(5.05)" gradientUnits="userSpaceOnUse"><stop offset="0" stop-color="#ff2c81"/><stop offset=".28" stop-color="#ff3481"/><stop offset=".74" stop-color="#ff4c81"/><stop offset="1" stop-color="#ff5e81"/></radialGradient><radialGradient id="bu" cx="838.86" cy="101.12" fx="838.86" fy="101.12" r="101.93" xlink:href="#bt"/><radialGradient id="bv" cx="838.86" cy="101.13" fx="838.86" fy="101.13" r="101.93" xlink:href="#bt"/><radialGradient id="bw" cx="838.86" cy="101.13" fx="838.86" fy="101.13" r="101.93" xlink:href="#bt"/><radialGradient id="bx" cx="838.86" cy="101.12" fx="838.86" fy="101.12" r="101.93" xlink:href="#bt"/><radialGradient id="by" cx="838.86" cy="101.12" fx="838.86" fy="101.12" r="101.94" xlink:href="#bt"/><radialGradient id="c`" cx="838.86" cy="101.12" fx="838.86" fy="101.12" r="101.93" xlink:href="#bt"/><radialGradient id="ca" cx="838.86" cy="101.12" fx="838.86" fy="101.12" r="101.93" xlink:href="#bt"/><radialGradient id="cb" cx="830.22" cy="269.44" fx="830.22" fy="269.44" r="79.91" xlink:href="#m"/><linearGradient id="cc" x1="828.37" y1="317.98" x2="828.37" y2="239.42" gradientTransform="translate(7.78 -133.97) rotate(5.05)" xlink:href="#n"/><linearGradient id="cd" x1="828.37" y1="284.44" x2="828.37" y2="239.41" gradientTransform="translate(7.78 -133.97) rotate(5.05)" xlink:href="#n"/></defs><g class="fb"><g id="a"/><g id="b"><g id="c"><g><g><circle class="fg" cx="856.51" cy="507.88" r="71.77" transform="translate(-108.26 754.4) rotate(-45)"/><g><path class="dm" d="M905.61,455.57c-6.61,22.31-21.09,41.18-48.81,53.37t-.05,.04c-.05,.02-.1,.04-.15,.06,0,0,0,.02-.03,.02,0,0-.03,.02-.05,.02h-.02s-.05,.04-.1,.04v.02h-.05s-.03,.02-.05,.04c-.03,.02-.08,.04-.12,.04-.13,.09-.28,.15-.43,.2,.16-.13,.29-.24,.42-.38,0,0,0-.02,.02,0l.08-.07v-.02q.05-.02,.05-.04l.03-.02q.05-.02,.08-.04v-.02s.03-.02,.05-.02c.02,0,.03-.02,.05-.04,.05-.04,.13-.09,.16-.16,23.24-19.53,31.93-41.68,32.05-64.86,6.22,3.1,11.89,7.1,16.87,11.82Z"/><path class="cx" d="M857.06,508.55c-.16,.13-.29,.24-.45,.37l-.05,.04v.02h-.03s-.03,.02-.03,.04q-.05,.02-.05,.04t-.05,.04h-.02s-.02,0-.03,.02c-.02,0-.03,.02-.05,.04-.05,.04-.13,.09-.16,.16-22.48,18.89-31.33,40.2-32,62.56-6.01-3.01-11.5-6.85-16.35-11.39,6.86-21.49,21.29-39.63,48.2-51.47t.05-.04c.05-.02,.1-.06,.18-.08h.02s0-.02,.03-.02c.02,.03,.02,0,.02,0t.03-.02s.05-.02,.08-.04h.02s.03-.02,.05-.02c0-.02,.03-.02,.05-.02v-.02s.08-.02,.13-.04c.13-.06,.28-.12,.4-.18Z"/><path class="cj" d="M928.23,509.3c-20.26,9.49-43.2,11.33-71.44,0-.05,0-.09-.03-.14-.06-.05,0-.09-.03-.16-.06h-.02s-.02,0-.05-.03h-.02v-.03h-.02s-.03,.02-.05,0h-.02s-.05-.03-.07-.03v-.02s-.05,0-.05,0c-.02-.03-.02,0-.02,0-.02,0-.07-.03-.12-.06-.14-.04-.28-.1-.42-.16l.58,.05s.02,0,.02,0c.02,.03,.05,0,.05,0,.02,.03,.02,0,.02,0h.02s.02,0,.02,0c.05,.03,.09,.03,.14,.01,.02,.03,.02,0,.02,0,.02,.03,.05,.03,.07,0,0,0,0-.02,.02,0h.05s.09,.04,.14,.02c30.29,2.97,51.95-5.3,68.89-20.16,1.83,6.53,2.73,13.44,2.54,20.52Z"/><path class="cu" d="M857.17,509.14l-.55-.05s-.02,0-.02,0c-.02-.03-.05-.03-.07,0h-.02s-.05,0-.05,0c-.05-.03-.09-.03-.12-.01-.02-.03-.02,0-.02,0-.02-.03-.05-.03-.07,0-.02-.03-.05,0-.05,0-.02-.03-.02,0-.02,0-.07-.03-.12-.03-.17-.01-29.88-2.93-51.35,5.09-68.18,19.57-1.94-6.37-3-13.07-3.07-20.01,20.23-9.42,43.11-11.21,71.28,.08,.05,0,.09,.03,.14,.06,.05,0,.09,.03,.16,.06,.02,0,.05,0,.07,.03h.02v.03s.05,0,.07,0l.02,.03s.05,0,.07,.03c0,0,0-.02,.02,0h.05s.05,.03,.09,.06c.14,.04,.28,.1,.42,.16Z"/><path class="di" d="M920.03,541.26c-3.16,6.04-7.17,11.57-11.88,16.4-21.59-6.84-39.8-21.29-51.69-48.27-.05-.03-.04-.05-.04-.08-.04-.05-.06-.1-.08-.18t-.02-.03s-.02-.03-.02-.05v-.02q-.02-.05-.04-.05v-.02s-.02-.03-.02-.05t-.02-.03l-.06-.15c-.06-.13-.12-.28-.18-.41,.11,.13,.24,.29,.35,.42l.02,.03,.04,.05h.02v.03s.04,.05,.07,.05l.02,.03s.02,.03,.02,.05h.02c0,.05,.02,.05,.04,.05,0,0,0,.05,.02,.05,.04,.08,.11,.13,.18,.21,19.07,22.66,40.65,31.47,63.24,31.96Z"/><path class="cf" d="M856.84,509.65l-.37-.45-.04-.05h-.02v-.03h-.02q-.02-.05-.04-.05l-.02-.03q-.02-.05-.04-.05v-.02s-.02-.03-.04-.05c0,0,0-.02-.02-.03-.04-.08-.11-.13-.18-.21-19.33-22.98-41.22-31.72-64.13-32.02,2.95-6.18,6.78-11.82,11.31-16.82,22.21,6.63,41.01,21.12,53.15,48.74,.05,.03,.04,.05,.04,.08,.04,.05,.06,.1,.08,.15,0,0,.02,.03,.02,.05l.02,.03v.05s.02,.03,.02,.05h.02s.02,.05,.02,.08t.02,.03c.02,.05,.04,.1,.06,.15,.06,.13,.12,.28,.18,.4Z"/><path class="cw" d="M875.57,577.08c-6.38,1.77-13.12,2.66-20.03,2.53-9-19.97-10.53-42.57,.59-70.26,0-.02,0-.07,.03-.12,0-.05,.03-.09,.06-.14v-.02s0-.05,.03-.07v-.02s.03-.05,.03-.07h.02v-.02s.03-.05,0-.07c0,0,0-.02,.03-.02,0-.05,.03-.07,.03-.12,.06-.14,.12-.31,.19-.45l-.05,.58s-.03,.07,0,.1v.05s-.03,.07-.01,.1t0,.05s0,.05,0,.1t0,.05s-.03,.12-.02,.17c-2.9,29.57,4.91,50.92,19.1,67.68Z"/><path class="dp" d="M856.69,508.61s0,.07-.03,.12c0,.05-.03,.12-.07,.19,0,0,0,.02-.03,.05v.02s-.03,.05-.03,.09h-.02s0,.05,0,.09h-.02s.02,.02,0,.02c0,.05-.03,.07-.03,.12-.06,.14-.12,.31-.19,.45l.05-.58s.03-.05,0-.07t0-.05v-.02s.03-.07,.01-.12v-.05s.03-.05,.01-.07t0-.05s.03-.12,.01-.17c3.02-30.6-5.43-52.37-20.58-69.41,6.49-1.98,13.37-3.05,20.44-3.05,9.93,20.52,12.03,43.77,.47,72.5Z"/></g><path class="dh" d="M927.99,514.19c-.86,9.77-3.64,18.9-7.96,27.08-3.16,6.04-7.17,11.57-11.88,16.4-8.83,9.18-20.08,15.95-32.58,19.41-6.38,1.77-13.12,2.66-20.03,2.53-1.77-.01-3.56-.1-5.35-.25-9.38-.83-18.17-3.43-26.05-7.46-6.01-3.01-11.5-6.85-16.35-11.39-9.3-8.58-16.28-19.57-19.98-31.91-1.94-6.37-3-13.07-3.07-20.01-.01-2.33,.07-4.68,.28-7.05,.79-8.92,3.18-17.29,6.87-24.89,2.95-6.18,6.78-11.82,11.31-16.82,8.68-9.66,19.94-16.88,32.57-20.67,6.49-1.98,13.37-3.05,20.44-3.05,2.19-.03,4.39,.07,6.61,.27,9.31,.82,18.05,3.39,25.92,7.37,6.22,3.1,11.89,7.1,16.87,11.82,9.52,8.91,16.55,20.37,20.08,33.2,1.83,6.53,2.73,13.44,2.54,20.52,0,1.63-.09,3.25-.24,4.89Z"/><circle class="es" cx="856.51" cy="507.88" r="38.93" transform="translate(98.84 1154) rotate(-71.12)"/><path class="dg" d="M895.29,511.3c-.17,1.93-.48,3.8-.93,5.63-1.05-18.98-15.91-34.8-35.42-36.53-19.51-1.72-36.92,11.25-41.28,29.75-.13-1.88-.1-3.78,.07-5.71,1.89-21.42,20.79-37.25,42.21-35.35,21.42,1.89,37.25,20.79,35.35,42.21Z"/><path class="cm" d="M894.29,453.66s5.47,23.22,20.54,29.81c0,0,1.08-19.09-20.54-29.81Z"/><path class="cm" d="M806.77,549.46s7.61,15.13,29.58,21.68c0,0-16.92-11.99-29.58-21.68Z"/><path class="cm" d="M848.2,574.02s12.02,2.9,19.2-.15l-19.2,.15Z"/></g><g class="ff"><path class="fe" d="M1165.73,634.88s-.18,17.63-41.64,19.58c-41.46,1.98-41.46-9.38-81.43-.23,0,0-28.78,41.82-90.1,.47,0,0-12.89,12.6-21.33,.76,0,0-33.93,64.48-178.44,26.33,0,0-49.51,15.96-41.07-9.14,0,0-32.34,10.52-77.66,10.57-22.79,.03-48.88-2.6-75.76-10.57,0,0-111.51,103.83-189.32-10.63,0,0-41.35,51.2-35.23-6.61,0,0-21.77,14.53-36.12-6.51,0,0-50.08,29.69-69.71-42.4,0,0,2.14,40.78-53.18,13.44,21.85-81.56,60.03-53.39,73.91-39.56,.65,.68,1.25,1.3,1.8,1.87,2.16,2.32,3.39,3.88,3.39,3.88,0,0,5.83-23.7,20.26-10.29,0,0-18.1-25.39-5.08-43.36,1.33-1.87,3.02-3.65,5.08-5.31,22.03-17.76,52.63,10.86,52.63,10.86,0,0-9.87-20.36,5.91-20.73,0,0,5.86-38.7,48.31-20.76-1.04-.81-20.49-16.17-13.75-31.54,0,0-61.25-38.44-49.09-103.83,0,0-.03-.03,0-.05,.44-2.5,1.02-5.05,1.72-7.66,18.75-70.05,72.03-59.19,72.03-59.19,0,0,17.94-7.08,22.01,6.33-1.54-9.17-3.28-34.27,22.4-39.9,0,0,7.89-64.14,62.19-23.67,0,0,9.69-1.38,15.94,4.04v.03c4.32,3.7,7.03,10.68,3.8,23.57,0,0,63.15-31.59,81.9,48.36,0,0,11.82-20.7,25.63-14.84-.73-.99-18.33-24.71,.03-28.59,0,0-10.6-75.6,27.84-108.28,.13-.13,.29-.26,.44-.39l2.47-1.93,.05-.05c7.45-5.55,16.59-9.58,27.76-11.38,0,0,28.96-42.11,39.64-11.85,0,0,71.17-18.41,83.02,57.89,0,0,55.6-48.67,85.05,15.81,0,0,5.55,2.4,11.43,7.08l.03,.03c11.56,9.22,24.35,27.27-1.25,53.41,0,0,16.72-.29-3.07,34.06,.65-.16,1.33-.31,1.98-.49,13.2-2.97,87.87-16.35,91.25,58.91,.03,.05,0,.08,0,.13,.08,1.12,.1,2.27,.13,3.44,1.33,86.85-48.41,76.9-48.41,76.9,0,0,5.73,28.39-30.16,23.1,0,0,24.64,15.13,10.16,40.81-14.48,25.65-31.69,12.08-31.69,12.08,0,0-1.2,14.9-24.9,10.29,0,0-11.04,14.82-13.85-2.66,.47,5.91-1.33,23.31-38.67,19.3,0,0,17.01,7.03,17.66,18.88,0,0,37.4-44.64,58.18-2.58,0,0,4.01-12.84,8.78-.86,0,0,12.08-53.67,35.39-16.56,0,0,29.25-30,48.98-11.59,19.74,18.44,1.25,53.88,1.25,53.88,0,0,17.42-3.91,17.29,21.77,0,0,55.76-43.13,72.21,26.15,0,0,30.86-20.6,47.34,0,16.51,20.57,43.67,0,43.67,0Z"/><path class="em" d="M686.79,308.76c-17.47-3.39-80.13-11.9-128.39,27.34,0,0,10.91-14.64,24.09-25.99,0,0,2.33-74.01-64.77-42.42,0,0,5.73,2.63,8.36,15.73-.44-1.12-8.2-19.19-38.8-24.3,0,0,16.72-7.27,30.94-.65,0,0,3.88-5.05-3.85-17.37,4.32,3.7,7.03,10.68,3.8,23.57,0,0,63.15-31.59,81.9,48.36,0,0,11.82-20.7,25.63-14.84-.73-.99-18.33-24.71,.03-28.59,0,0-10.6-75.6,27.84-108.28-42.55,66.9,4.22,81.38,4.22,81.38,0,0-25.81-2.63-25.13,28.93,0,0,10.96,27.01,54.14,37.14Z"/><path class="ee" d="M691.32,309.72c-1.46-.26-2.89-.57-4.3-.91,2.32,.44,3.8,.78,4.3,.91Z"/><path class="fh" d="M705.23,266.2s4.35,1.2,10.31,3.44c-5.78-1.35-10.31-3.44-10.31-3.44Z"/><path class="f`" d="M899.14,303.99c-35.03,8.18-56.25,24.38-56.25,24.38-20.73-28.13-56.75-16.77-56.75-16.77-5.91-34.53-38.49-19.32-38.49-19.32-3.54-10.39-20.7-18.36-32.08-22.63,8.88,2.08,20.73,2.47,23.7-8.88,4.77-18.15,19.3-23.83,20.18-24.14-1.3,.91-32.34,22.66,.05,44.87,33.05,22.71,82.4,3.46,81.41-2.47-.99-5.91-5.42-12.32-5.42-12.32,32.06,4.92,103.1-7.89,67.97-50.18,11.56,9.22,24.35,27.27-1.25,53.41,0,0,16.72-.29-3.07,34.06Z"/><path class="en" d="M1002.72,608.6c2.71-1.58,28.31-16.3,45.26-11.48-20.05-6.77-42.84,9.64-45.26,11.48Zm119.34,26.28c-16.5-20.61-47.35,0-47.35,0-1.02-4.23-2.17-8.04-3.44-11.42,0,0-27.92,17.77-68.78-14.72,.14-25.69-17.29-21.77-17.29-21.77,0,0,18.5-35.45-1.24-53.89-7.81-7.3-17.09-6.97-25.49-3.95,3.58-.42,7.47-.31,11.7,.56,28.62,5.92,16.81,43.4,16.81,43.4,0,0-39.82,4.77-58.88-20.53,0,0,1.97-4.26,6.06-9.14-22.79-34.63-34.57,17.79-34.57,17.79l-.03-.03c-4.54-11.42-8.43-.14-8.74,.82,0,.03,0,.06-.03,.08-20.78-42.07-58.18,2.57-58.18,2.57-.65-11.84-17.65-18.87-17.65-18.87,37.34,4,39.14-13.39,38.69-19.32,.9,5.7,2.71,7.95,4.68,8.43,.42,.08,.82,.11,1.24,.06,3.84-.34,7.92-5.81,7.92-5.81,23.69,4.6,24.9-10.29,24.9-10.29,0,0,17.2,13.56,31.7-12.1,14.47-25.66-10.18-40.81-10.18-40.81,35.9,5.3,30.17-23.1,30.17-23.1,0,0,49.74,9.95,48.39-76.9,0-1.16-.03-2.31-.11-3.44-.85,15.28-9.84,39.68-53.1,57.75,0,0,1.33,27.66-25.01,16.47,0,0-62.43,34.21-80.23-24.25,.25,1.55,3.61,23.07-17.29,38.75,0,0,8.38,2.45,25.15-7.42,16.78-9.87,28.62,32.06,7.39,37.51,0,0,6.43,75.15-76.48,32.4,0,0-21.29,69.74-94.72,71.04-73.43,1.33-95.6-100-95.6-100,0,0-8.35,23.69-32.03,15.82,0,0-25.1,44.72-82.94,31.56-57.87-13.17-44.02-86.32-44.02-86.32,0,0-3.47,7.87-13.85-.51,0,0-73.66,1.89-91.57-84.15-12.15,65.4,49.1,103.83,49.1,103.83-6.74,15.37,12.72,30.74,13.76,31.53-42.47-17.94-48.31,20.76-48.31,20.76-15.79,.37-5.92,20.76-5.92,20.76,0,0-30.6-28.62-52.62-10.88-21.6,17.4-.9,47.4-.03,48.64-14.41-13.34-20.25,10.32-20.25,10.32,0,0-52.06-67.14-79.07,33.81,55.3,27.33,53.16-13.45,53.16-13.45,19.66,72.11,69.71,42.41,69.71,42.41,14.35,21.04,36.12,6.51,36.12,6.51-6.12,57.81,35.25,6.6,35.25,6.6,77.8,114.46,189.31,10.63,189.31,10.63,80.29,23.77,153.44,0,153.44,0-.2,.51-.34,1.04-.45,1.52-5.92,22.9,41.51,7.61,41.51,7.61,126.59,33.42,168.33-11.93,176.73-23.69,1.21-1.66,1.72-2.65,1.72-2.65,8.43,11.87,21.32-.73,21.32-.73,61.33,41.34,90.1-.48,90.1-.48,39.99-9.14,39.99,2.23,81.44,.23,4.57-.2,8.66-.62,12.32-1.16,29.16-4.48,29.3-18.41,29.3-18.41,0,0-27.16,20.56-43.65,0Zm-206.39-100c11.59-3.69,14.3,8.88,14.3,8.88,0,0-6.4,16.5-26.39,19.46,0,0,.48-24.65,12.1-28.34Zm-238.91,99.88c-55.24,53.97-114.46,0-114.46,0,24.99-77.63,114.46,0,114.46,0Zm-117.76-67.93c-17.09-.2-30.26-20.87-30.26-20.87,30.26-9.22,30.26,20.87,30.26,20.87Zm-21.07,0s7.92,69.91-73.01,78.79c-80.91,8.88-94.75-71.37-94.75-71.37,126.87-65.09,167.76-7.42,167.76-7.42Zm334.22,33.47s6.88-22.05,33.53-24.31h.14c2.65-.23,5.5-.25,8.57-.03h.23c6.4,.48,13.71,1.97,22.02,4.88,0,0-9.87,55.98-64.49,19.46Z"/><path class="fc" d="M958.3,529.15c-12.73,4.64-23.33,15.52-23.33,15.52-.26-.44-.55-.86-.81-1.25,4.92-5.94,12.92-12.84,24.14-14.27Z"/><path class="fi" d="M1071.22,623.21c-5.7-15.18-13.88-22.79-22.6-25.91,16.59,5.16,21.98,23.62,22.6,25.91Z"/><path class="ek" d="M522.16,548.72s15.79-10.41,33.55,0c17.76,10.41,3.29,40.67,3.29,40.67h-11.84s19.74,2.39,29.61,12.71c0,0-11.84-6.79-5.26-20.6,6.58-13.82,72.58-10.72,81.58,27.21,0,0,57.9,3.71,76.97,30.69,19.08,26.97-81.67,46.7-111.9,43.39,0,0,43.63,4.03,93.55-10.14,0,0,12.42-26.01,58.47-20.09,0,0-26.32-1.44-44.74-29.34-18.42-27.9,12.5-50.27,12.5-50.27,0,0-31.59,30.45-85.53,15.79-53.94-14.66-69.93-83.55-69.93-83.55,0,0-7.7,26.32-26.78,6.58,0,0-12.5,44.38-114.47,25.15,0,0,36.18,10.61,80.92,11.81Z"/><path class="ew" d="M250.43,582.25c2.16,2.32,3.39,3.88,3.39,3.88,0,0,5.83-23.7,20.26-10.29,0,0-18.1-25.39-5.08-43.36-7.37,29.27,24.53,42.11,24.53,42.11,0,0,8.57-19.74,35.86-21.07,0,0-27.94,6.59-30.76,28.31-2.79,21.69,26.48,38.8,26.48,38.8,0,0-27.97-2.63-38.83-36.51,0,0-18.83-10.55-25.65-4.27-6.82,6.28,2.97,20.42,2.97,20.42,0,0-7.6-4.77-13.18-18.02Z"/><path class="ex" d="M344.5,639.1c-.13,.26-1.04,1.87-2.86,3.83,1.48-2.24,2.66-3.59,2.86-3.83Z"/><path class="eo" d="M368.95,639.17c-.26-.76-.36-1.33-.39-1.59l.39,1.59Z"/><path class="ej" d="M634.06,683.21c-22.79,.03-48.88-2.6-75.76-10.57,0,0-111.51,103.83-189.32-10.63,0,0-41.35,51.2-35.23-6.61,0,0-21.77,14.53-36.12-6.51,0,0-50.08,29.69-69.71-42.4,0,0,2.14,40.78-53.18,13.44,21.85-81.56,60.03-53.39,73.91-39.56-7.34-1.41-24.06,50.03,8.72,65.94,34.97,16.98,53.02-15.13,53.91-16.74-.29,1.09-5.78,21.38,10.23,21.69,10.34,.21,16.8-4.69,20.13-8.33-2.24,3.39-5.16,8.93-6.33,15.83-1.98,11.9,8.57,17.81,21.38,8.26,12.84-9.53,15.16-15.78,15.16-15.78l-2.89-12.03c1.3,4.09,6.46,13.67,26.22,12.37,0,0-4.27,9.77-19.74,7.19,0,0,67.29,49.06,116.12,21.93,48.85-27.16,41.46-44.92,41.46-44.92l-15.29-.99s21.72-6.9,26.15-29.09c0,0,2.47,11.33-3.46,26.64,0,0,18.26,37.32,46.22,44.25,20.44,5.05,38.96,6.33,47.42,6.64Z"/><path class="ei" d="M805.31,526.7c.23,.42,.78,1.51,1.25,3.05l-1.25-3.05Z"/><path class="eg" d="M858.33,534.9l1.25,.05c-.42,.08-.83,.05-1.25-.05Z"/><path class="ep" d="M864.84,508.94c-.23,.44-1.15,2.06-2.99,4.06,1.35-2.19,2.58-3.65,2.99-4.06Z"/><path class="ef" d="M890.83,562.01c.31-.96,4.19-12.24,8.72-.81-.49-.18-6.95-2.76-8.72,.81Z"/><path class="ey" d="M938.9,580.48c-.39-.23-6.59-3.98-24.27-4.51h-.23c-2.6-.08-5.44-.08-8.57,.03h-.16c-24.61,.73-36.69,24.53-37.42,26.02,.31-1.56,3.8-22.4-32.94-19.87-38.15,2.63-60.52,26.56-60.52,26.56,11.85-19.51,44.74-32.16,44.74-32.16,0,0,14.48-9.84,4.61-21.04-9.87-11.17-27.47-8.7-27.47-8.7,11.98-3.96,11.3-12.42,9.9-17.06l3.59,8.75s4.82,7.29,21.38,5.49c16.56-1.8,20.08-18.91,20.08-18.91-7.24,.16-10.36-1.82-10.36-1.82,10.91-1.77,17.27-6.67,20.6-10.26-3.02,4.79-6.69,13.12-3.52,21.9-1.98-.47-3.78-2.73-4.69-8.41,.47,5.91-1.33,23.31-38.67,19.3,0,0,17.01,7.03,17.66,18.88,0,0,37.4-44.64,58.18-2.58-1.77,3.83,3.07,11.17,3.07,11.17,35.57-5.76,44.61,6.59,45.03,7.21Z"/><path class="et" d="M871.11,313.05s-17.79,7.28-37.86-1.6c-20.07-8.88-3.19-21.4-3.19-21.4,0,0-23.03,11.84-49.34,4.28,0,0,7.89,7.57,5.43,17.27,0,0,36.68-19.91,56.75,16.77l28.22-15.32Z"/><path class="eh" d="M1136.48,653.26l-.08,.03c-3.65,.55-7.73,.96-12.32,1.17-41.46,1.98-41.46-9.38-81.43-.23,0,0-28.78,41.82-90.1,.47,0,0-12.89,12.6-21.33,.76,0,0-33.93,64.48-178.44,26.33,0,0-47.42,15.29-41.51-7.6l4.27-3.85s19.11,17.42,61.88-4.95l-14.48,11.41s55.03,13.28,98.91,3.07c43.88-10.21,49.45-59.22,49.45-59.22,0,0-22.92,4.87-42.29-10.31,1.59,.89,18.83,10,47.76,4.06,30.39-6.25,32.71-38.57,32.71-38.57,0,0,2.29,32.32-27.63,45.16,0,0,.23,18.98,12.32,26.15,12.08,7.16,25.42-17.6,25.42-17.6l-3.93-8.02c.6,.62,11.98,12.27,25.89,8.26,0,0-8.62,7.27-21.22,6.02,0,0-12.5,6.17-6.15,15.05,6.33,8.88,32.71,25.16,57.14,17.86,24.45-7.32,27.97-22.37,27.97-22.37l-4.58-6.22c.49,.21,8.96,3.65,43.07,4.9,35.18,1.33,58.72,8.28,58.72,8.28Z"/><path class="ev" d="M849.29,481.33s15.04-3.35,11.15-21.19c-3.89-17.84-12.02-16.59-25.51-12.66-13.5,3.94-18.19,3.75-18.19,3.75,0,0,11.82-5.52,13.39-15.75,1.57-10.23-34.29-55.96-88.24-43.46-53.95,12.5-68.42,32.89-68.42,32.89,0,0,8.22-14.14,20.39-24.01,0,0-9.21-7.57-10.86-24.34,0,0,5.26,20.07,15.46,21.38,10.2,1.32,48.03-4.93,46.38-41.45-1.64-36.51-57.83-47.69-57.83-47.69,0,0,29.54,1.3,50.76,19.56,21.22,18.26,14.82,41.77,22.2,51.81,7.39,10.04,52.1,14.44,66.12,40.1,14.01,25.66,15.68,15.85,30.74,25.72,15.05,9.87,7.24,33.86-7.55,35.33Z"/><path class="ed" d="M488.61,230.84c.76,3.91-4.47,11.34-6.91,14.18-3.03,3.52-6.79,7.4-10.27,10.53-1.65,1.49-3.67,2.66-5.26,4.21-5.27,5.09-10.25,12.99-18.73,12.57-3.6-.18-6.81-2.31-9.9-3.94-4.11-2.16-8.65-4.97-13.21-2.51-3.19,1.72-6.15,5.17-7.79,8.36-3.75,7.27-6.27,16.67-1.61,23.71,4,6.05,12.19-.06,17.07-2.92,4.06-2.39,9.08-6.05,11.61-10.17,5.55-9.04-3.52-21.14-3.71-30.01-.18-8.36,1.35-15.61,7.33-21.89,5.19-5.44,14.26-9.25,21.64-10.06,3.95-.44,7.66,.57,11.21,2.18,5.91,2.67,6.94,5.17,11.16,11.04l-2.63-5.26Z"/><path class="ed" d="M445.18,299.26c7.2-10.06,16.15-17.72,26.32-24.74,7.44-5.13,14.82-6.87,23.66-6.84,7.89,.03,13.03,.3,19.46,5.27,5.57,4.3,8.7,11.72,10.53,18.41,.54,1.97,1.51,4.95,1.06,6.59-.61,2.23-3.69,3.78-5.52,4.7-8.51,4.32-18.93,5.86-28.44,5.81-8.25-.05-16.52-.09-24.77,0-5.43,.06-13.09-1.15-22.31-9.21Z"/><path class="ed" d="M534.66,262.42c-4.51,5.16-7.03,5.89-6.64,12.04,.24,3.78,1.64,8.1,2.99,11.64,3.07,8.06,8.06,14.98,14.18,21.05,4.31,4.27,7.15,6.62,13.16,6.58,5.18-.04,9.9-.29,14.36-3.39,2.13-1.48,4.94-4.91,6.42-7.13,1.69-2.54,1.73-5.02,1.63-7.98-.31-8.79-4.27-20.05-9.93-26.78-4.3-5.13-8.13-10.99-15.65-11.33-6.36-.29-12.83,.05-20.52,5.31Z"/><path class="ed" d="M414.92,307.15c-3.63-5.79-7.6-13.61-14.77-15.49-2.47-.65-5.26-.64-7.57,.6-3.1,1.67-8.8,5.71-10.02,9-1.42,3.85,1.45,3.52,4.66,4.58,3.52,1.16,7.9,2.2,11.57,2.67,3.59,.46,6.91,1.29,10.56,1.27,1.1,0,3.21,.45,4.3,.1,1.79-.57,2.35-2.84,3.88-4.04l-2.63,1.32Z"/><path class="ed" d="M401.76,320.31c-2.67-2.49-5.53-6.23-8.76-7.93-2.47-1.3-5.76-1.53-8.41-2.26-4.75-1.31-8.47-1.65-13.42-1.65-5.27,0-9.34-.17-14.25,1.91-6.46,2.73-10,4.58-14.36,9.9-7.33,8.94-11.5,19.42-14.8,30.3-.74,2.45-2.01,4.66-2.7,7.13-1.02,3.65-1,7.57-1.59,11.3-1.21,7.74,.35,14.7,.67,22.36,.59,14.07,8.36,30.86,19.7,39.47,2.71,2.06,5.31,4.78,8.15,6.63,3.12,2.03,7.02,2.66,10.24,4.54,4.8,2.8,10.12,6.16,15.65,7.17,12.66,2.31,29.64-2.8,37.6-13.19,8.89-11.61,11.05-24.68,13.27-38.72,2.49-15.74-6.02-27.96-9.52-42.76-1.42-6-4.53-11.49-6.94-17.11-1.32-3.07-7.65-17.05-10.52-17.11Z"/><path class="ed" d="M426.76,317.68c-5.13,4.37-13.06,10.92-7.31,17.79,4.38,5.24,10.92,3.46,15.91-.14,3.11-2.24,7.14-7.38,8.24-11.07,2.12-7.09-5.06-9.27-10.26-11.84l-6.58,5.26Z"/><path class="ed" d="M545.19,322.94c-3.36-4.66-4.38-8.36-9.45-9.56-4.27-1.02-7.85-.43-11.41,2.63-3.6,3.09-10.81,10.56-4.16,13.54,4.28,1.92,9.15,1.28,13.79,1.29,2.83,0,5.49,.38,8.07-.71,4.96-2.1,5.42-5.17,7.11-9.81l-3.95,2.63Z"/><path class="ed" d="M717.56,132.15c-2.88-1.95-5.98-3.28-9.32-4.01-.74,1.71-3.58,2.69-5.13,3.62-2.76,1.65-4.84,3.1-6.9,5.52-5.07,5.97-10.98,12.16-14.34,19.33-1.37,2.93-4.02,8.24-1.25,10.82,2.79,2.59,8.01,1.53,11.3,1.55,6.13,.03,9.76-1.03,15.57-3.28,6.64-2.57,12.27-4.27,16.71-10.14,3.62-4.78,4.73-9.59,3.82-15.51-.45-2.93-1.71-6.01-3.33-8.51-1.62-2.5-3.94-3.76-5.82-5.97l-1.32,6.58Z"/><path class="ed" d="M671.5,182.15c0-7.35,2.32-18.65-8.19-19.53-3.36-.28-8.91,4.26-11.48,6.36-4.1,3.35-5.62,7.68-8.25,12.12-5.06,8.56-8.58,19.78-7.5,29.9,.91,8.53,2.92,23.25,11.18,28.29,8.36,5.1,18.15,.71,25.25-4.41,8-5.77,13.07-14.3,13.59-24.08,.21-3.93-2.15-9.06-3.12-12.86-1.11-4.35-1.34-8.93-2.23-13.23-.38-1.84-1.29-5.25-2.57-6.6-2.48-2.62-6.13-.95-6.68,4.04Z"/><path class="ed" d="M737.29,149.26c-5.93,4.4-10.84,8.85-15.86,14.21-3.18,3.4-7.47,5.24-10.49,8.79-5.9,6.94-9.13,14.04-10.19,23.09-.41,3.47-.8,6.88-1.31,10.33-1.06,7.13,.14,14.11,.73,21.21,.61,7.38-.21,14.52,1.51,21.79,.81,3.42,1.84,9.04,4.17,11.98,7.72,9.73,21.26,2.93,28.28-3.5,5.5-5.04,9.29-11.15,14.72-16.18,5.17-4.78,11.27-8.59,17.38-12.11,6.27-3.61,14.14-7.14,18.9-12.8,3.58-4.26,5.94-11.13,7.1-16.45,2.57-11.77,2.65-25.17-3.91-35.96-2.27-3.73-4.32-7.82-7.9-10.49-3.86-2.88-8.43-5.29-12.79-6.51-4.25-1.18-7.47-1.3-11.89-1.35-8.68-.11-13.94,3.39-18.45,3.94Z"/><path class="ed" d="M696.5,274.26c-3.47-8.59-5.68-13.49-13.09-19.13-5.36-4.08-14.34-6.89-21.14-7.23-13.48-.68-22.9,8.98-22.43,22.43,.54,15.34,19.48,22.13,31.65,25.34,6.37,1.68,14.56,1.85,20.79-.63,4.25-1.69,6.04-4.21,7.59-8.32,2.13-5.64,1.26-9.31-3.37-12.46Z"/><path class="ed" d="M837.29,246.63c3.09-.04,6.35,.81,9.25,1.79,3.78,1.27,10.19,3.91,9.15,8.96-1.76,8.55-13.92,6.52-19.83,5.13-5.66-1.33-10.34-4.36-15.52-6.82-12.36-5.85-30.66-7.44-38.22,6.38-1.63,2.98-1.41,6.02-1.8,9.33-.86,7.42,3.21,9.33,9.23,12.84,2.5,1.46,5.49,1.55,8.26,2.19,3.94,.92,7.84,2.16,11.91,2.37,5.68,.3,12.76,.93,18.11-1.02,3.07-1.12,7-2.64,8.52-5.56,2.59-5,1.15-12.15-.39-11.9-2.17-3.46-4.51-8.66-7.96-11.46-.6-.49-1.24-.91-1.92-1.28l11.19-10.95Z"/><path class="ed" d="M891.24,217.68c-2.84-1.39-7.12-4.53-10.29-4.03-1.09,.17-2.33,.98-3.36,1.4-2.8,1.12-4.74,2.01-7.06,3.92-4.74,3.9-6.55,9.78-8.59,15.49-1.61,4.5-3.7,10.04-2.01,14.86,.58,1.66,2.49,3.84,3.62,5.17,1.66,1.95,3.17,4.14,4.79,6.01,4.52,5.21,13.98-.83,18.21-4.02,5.14-3.87,11.47-5.35,17.09-8.53,4.23-2.39,9.05-7.19,8.62-12.44-.79-9.85-11.97-22.28-22.32-21.78l1.32,3.95Z"/><path class="ed" d="M837.29,180.84c-6.75,2.11-11.45,3.37-16.88,7.79-5.57,4.54-11.89,9.2-14.88,15.96-2.21,4.99-1.93,10.19,2.7,13.6,5.29,3.9,10.54,1.79,15.98-.54,11.24-4.82,25.6-1.58,35.61-9.15,4.12-3.11,6.18-8.02,6.01-13.15-.29-8.89-7.04-14.69-15.38-15.82l-13.16,1.32Z"/><path class="ed" d="M739.92,295.31c-6.29,1.9-10.02,1.86-12.29,8.14-1.88,5.18,.7,9.78,3.06,14.35,4.68,9.09,19.45,4.95,27.72,3.94,8.23-1.01,21.71,1.56,23.63-10.1,.82-4.98-.77-11.57-3.39-15.75-4.49-7.15-13.97-10.24-21.61-12.42l-17.11,11.84Z"/><path class="ed" d="M805.71,316.36c-4.63-3.56-5.59-5.21-10.44-5.28-2.77-.04-5.38,.63-7.98,1.63-2.62,1.01-5.48,2.16-7.89,3.58-1.1,1.04-2.3,1.97-3.58,2.78-1.28,.7-2.63,1.19-4.06,1.47-2.7,1.86-4.42,5.35-6.84,7.67-2.96,2.84-4.52,5.44-6.6,8.91-3.22,5.37-3.96,11.13-3.92,17.4,.04,6.59-.31,15.44,4.18,20.85,5.46,6.59,13,8.9,21.08,10.36,9.82,1.77,20.5,3.63,29.73,7.54,7.15,3.03,13.59,8.25,20,12.58,7.17,4.84,13.43,7.79,22.34,6.39,10.13-1.59,18.29-9.25,24.83-16.6,5.53-6.22,5.87-13.82,5.53-21.71-.35-8.03-3.38-13.14-7.93-19.38-5.14-7.04-11.56-11.2-18.11-16.77-6.38-5.42-11.05-12.16-17.12-17.85-10.1-9.48-26.69-15.26-33.22-3.56Z"/><path class="ed" d="M882.03,317.68c-6.18-.63-18.97-1.45-22.16,6.58-1.96,4.93,3.73,8.94,7.66,10.26,2.43,.82,6.34,2.2,8.97,1.71,2.71-.51,3.6-2.36,5.56-4.11,2.2-1.98,2.64-2.01,2.66-5.2,.02-3.29-.98-5.11-2.68-7.92v-1.32Z"/><path class="ed" d="M934.66,438.73c-5.52-5.32-8.14-7.94-15.73-8.02-5.84-.06-11.21,2.18-15.96,5.33-3.25,2.15-4.93,4.88-5.2,8.79-.27,3.9-.6,4.79,2.57,6.56,6.97,3.9,14.98,2.88,22.55,4.19,8.36,1.44,10.53-6.08,10.46-12.9l1.32-3.95Z"/><path class="ed" d="M795.19,405.84c-8.29-9.76-16.64-13.37-29.02-16.11-2.93-.65-5.6-1.9-8.59-2.25-3.23-.38-6.59-.05-9.84-.06-6.97,0-13.38-.03-19.95,2.8-7.17,3.09-13.3,6.88-18.88,12.33-5.25,5.13-7.19,8.03-9.02,15.06-2.41,9.25,3.36,16.54,11.76,20.36,6.11,2.78,12.61,3.98,18.68,7.01,7.37,3.68,15.96,6.05,23.84,8.25,6.64,1.85,12.99,5.1,19.97,5.32,6.58,.21,12.71,.16,18.77-2.63,8.61-3.96,18.25-10.9,19.47-21.08,.61-5.03-.3-10.46-1.9-15.2-1.08-3.18-5.77-12.99-15.29-13.8Z"/><path class="ed" d="M842.56,450.57c-5.98-1.94-8.66-2.66-14.49-2.62-5.92,.05-12.41-1.07-18.03,1.28-6.02,2.51-4.88,5.66,.85,7.62,6.07,2.09,12.22,1.55,18.51,1.61,3.08,.03,8.42,.11,9.22-3.94l3.95-3.95Z"/><path class="ed" d="M679.93,315.1c-2.73-2.59-5.63-6.39-9.29-7.71-1.64-.59-3.51-.9-5.19-1.47-11.93-4.03-24.93-3.18-36.86-.06-10.47,2.73-20.69,5.02-30.59,9.53-8.92,4.06-16.68,8.81-24.78,14.18-12.6,8.36-24,19.94-28.06,35.03-1.53,5.69-3.67,12.85-3.52,18.77,.14,5.3,3.67,11.73,6.08,16.54,10.88,21.76,41.58,11.88,60.49,10.22,11.71-1.03,23.4-1.67,35.15-1.61,15.87,.07,30.78-1.46,46.25-5.2,17.33-4.19,36.6-11.67,45.43-28.25,4.07-7.64,3.9-17.76,.25-25.57-3.66-7.83-11.32-13.03-18.24-17.63-3.21-2.13-5.44-5.17-8.33-7.63-2.45-2.09-5.14-3.93-7.72-5.86-4.84-3.62-10.61-8.89-21.06-3.29Z"/><path class="ed" d="M926.77,309.13c-8.38-2.7-12.75-3.92-20.72-3.94-4.3-.01-6.82,1.08-10.86,2.03-4.15,.98-6.92,.22-7.98,4.8-.98,4.23,1.03,5.94,2.56,9.25,5.21,11.23,9.43,23.23,12.57,35.22,2.38,9.09,4.3,16.2,10.08,23.7,4.73,6.14,8.8,13.5,14.43,18.79,24.59,23.13,55.73-5.34,57.26-32.6,.76-13.45-.53-27.47-7.94-38.97-8.81-13.67-20.57-23.77-49.39-18.27Z"/><path class="ed" d="M537.95,350.57c-14.46-2.33-19.72-1.83-32.87,3.37-12.81,5.07-24.23,10.29-33.68,20.7-6.88,7.58-12.95,15.01-18.81,23.35-3.32,4.73-7.2,9.04-10.39,13.86-3.8,5.75-6.13,12.12-9.39,18.16-7.04,13.08-7.38,26.12-7.47,40.88-.09,14.42,1.94,33.71,11.82,45.24,14.79,17.27,38.94,6.87,57.47,3.1,10.32-2.1,19.69-1.24,29.85-4.76,11.84-4.1,22.29-8.74,31.38-17.76,5.82-5.77,9.8-13.64,11.74-21.33,2.76-10.9,1.42-19.58-4.28-29.64-2.98-5.26-7.48-9.3-11.25-13.91-3.24-3.96-5.39-8.45-8.18-12.74-3.68-5.66-6.57-11.55-9.44-17.6-6.26-13.2-4.39-28.89,3.51-50.93Z"/><path class="ed" d="M589.26,421.63c-8,14-14.91,31.09-15.88,47.41-.45,7.68,.96,12.17,5.01,18.66,3.93,6.31,6.79,13.26,9.89,20.02,3.4,7.42,6.46,13.93,11.56,20.4,4.87,6.18,12.39,8.88,20.15,9.87,23.27,2.96,45.73-6.46,60.25-25.04,9.43-12.07,20.21-30.12,17.22-45.94-2.63-13.93-8.82-28.17-17.37-39.51-7.31-9.69-17.37-15.06-29.49-15.74-8.69-.49-17.03-1.9-25.81-2-4.42-.05-9.59-1-13.98-.06-9.95,2.12-17.86,9.75-21.56,11.93Z"/><path class="ed" d="M899.13,575.57c-10.06,3.87-27.44,11.1-23.82,25.3,1.84,7.22,12.98,6.28,19.34,6.28,9.26,0,17.93,.72,24.31-6.89,7.54-8.99,3.57-17.45-6.01-22.72l-13.82-1.97Z"/><path class="ed" d="M956.37,534.13c-10.84,5.03-14.42,5.3-18.34,15.36-1.75,4.51-1.71,10.38,2.41,13.9,7.24,6.17,20.12,4.2,28.75,4.29,4.05,.04,5.35-.46,8.79-1.98,5.4-2.38,6.97-2.37,8.47-8.33,1.48-5.91,1.65-8.24-2.36-13.37-4.03-5.16-10.31-8.71-15.88-11.84l-11.84,1.97Z"/><path class="ed" d="M1023.48,597.29c-1.9,1.37-17.17,8.76-13.56,13.43,1.08,1.39,8.12,2.28,9.55,2.59,8.57,1.87,16.93,6.48,25.83,5.74,5.21-.43,11.69-3.5,9.85-10.02-2.25-8-14.44-12.79-21.8-11.73h-9.87Z"/><path class="ed" d="M541.9,544c-4.98-.31-9.26,1.04-12.82,4.05,3.73,3.65,19.09,24.09,24.58,16.59,1.11-1.52,.44-10.39-.31-12.31-.96-2.44-4.78-7.79-7.5-8.33h-3.95Z"/><path class="ed" d="M307.03,534.13c-4.35-3.25-10.83-11.23-17.18-9.57-4.23,1.1-10.17,4.75-13.5,7.58-7.53,6.4-1.32,16.68,5.02,21.82,7.08,5.75,12.39,3.86,19.78,.34,2.23-1.06,6.42-1.57,7.75-3.5,1.27-1.83,.1-8.53,.1-10.76l-1.97-5.92Z"/><path class="eu" d="M338.01,437.52c37.11,25.55,74.39,1.83,74.39,1.83,0,0,.19,10.74,5.06,13.76s11.75-12.73,11.75-12.73c0,0-7.17,21.71-20.76,40.96-13.59,19.24-4.05,67.92,94.73,59.65,0,0-52.9,9.1-82.59-8.5-29.68-17.6-20.72-63.98-20.72-63.98,0,0-10.53,6.83-32.69-3.5,0,0-18.92-11.75-29.17-27.48Z"/><path class="er" d="M541.63,383.38s5.7,22.64,19.02,29.21c13.32,6.57,45.07-2.19,45.07-2.19,0,0-23.87,7.56-26.57,32.83,0,0-6.14-15.26-1.72-20.27,4.42-5-23.19,.94-32.07-15.5-8.88-16.44-3.72-24.09-3.72-24.09Z"/><path class="fa" d="M803.08,645.31c-6.29,2.01-13.06,3.14-19.25,5.4-6.16,2.25-11.68,5.71-17.49,8.72-9.9,5.14-20.33,9-28.7,16.55,1.65,1.45,2.96,.99,5.28,.65,3.83-.57,7.51-1.03,11.4-1.1,7.22-.14,12.97,.16,19.74,2.68,6.21,2.31,13.55,4.02,20.1,5.03,4.33,.67,8.73,.01,13.09,.51,4.36,.5,8.5,1.29,12.93,.98,9-.62,17.77-2.68,26.64-4.19,7.26-1.24,15-3.5,21.84-6.25,5.18-2.08,10.54-5.52,14.69-9.26,2.49-2.24,3.77-4.88,5.57-7.59,1.95-2.93,4.55-5.39,6.65-8.21,4.81-6.46,12.39-12.78,13.99-21.04,1.46-7.55-9.04-9.5-14.56-10.31-4.21-.62-7.92,1.21-11.84,2.41-4.46,1.36-9.03,2.29-13.58,3.26-10.06,2.15-19.53,6.48-29.68,8.3-6.84,1.23-13,2.65-19.39,5.5-7.59,3.38-13.49,9.29-17.44,7.96Z"/><path class="fa" d="M853.08,597.94c-.89-2.8-1.48-8.15-4.05-10.16-.34-.26-2.68-.83-3.24-1.01-4.26-1.36-8.08-2.49-12.65-1.82-5.68,.84-11.21,3.12-16.57,5.09-5.53,2.03-11.13,3.37-16.08,6.63-12.22,8.07-25.55,15.84-35.45,26.83-3.76,4.18-8.93,14.51-2.17,18.47,2.64,1.54,6.94,.85,9.89,.64,7.29-.52,13.93-3.34,20.89-5.27,10.45-2.91,21.34-3.28,32.07-4.84,6.11-.89,10.48-1.84,15.51-5.57,3.14-2.33,7.13-4.57,9.82-7.38,3.21-3.35,2.84-6.91,3.65-11.08,.44-2.29,1.21-4.18,.94-6.58-.25-2.23-.98-4.33-2.57-3.95Z"/><path class="fa" d="M343.62,630.57c3.19,1.25,8.94,4.22,11.82,4.11,.38-.01,1.68-.89,2.04-1.07,2.72-1.38,5.07-2.68,5.76-5.47,.87-3.47,.18-7.74-.23-11.74-.42-4.12-.1-7.86-1.99-12.42-4.66-11.29-8.67-22.99-17.09-34.86-3.2-4.52-12.38-13.53-18.56-12.42-2.41,.43-3.01,3.09-3.69,4.76-1.69,4.11-.79,9.29-.9,14.1-.17,7.22-3.11,13.11-4.77,19.65-.94,3.73-1.29,6.58,1.05,11.48,1.46,3.06,2.58,6.5,4.68,9.63,2.51,3.72,6.32,5.7,10.42,8.68,2.25,1.63,3.98,3.19,6.56,4.51,2.4,1.23,4.8,2.14,4.89,1.08Z"/><path class="fa" d="M512.6,643.03c-10.25-.09-19.77,2.4-30.17,2.6-13.2,.25-25.88,2.82-37.92,8.13-6.18,2.72-10.78,7.76-16.18,11.67-4.42,3.21-8.57,6.59-11.94,10.95-.86,1.12-4.29,4.63-3.98,6.21,.39,2.02,2.47,1.17,3.99,1.22,4.5,.15,9.04,0,13.54-.03,6.7-.05,13.1,1.15,19.76,1.41,14.79,.58,30.05,.68,44.18-4.25,11.64-4.06,23.17-8.37,28.09-20.53,1.26-3.11,2.18-8.18,1.94-11.54-.11-1.61-1.72-6.76-11.32-5.86Z"/><path class="fa" d="M918.87,470.97c-7.89-5.99-12.44-9.87-21.71-9.87-5.98,0-8.83,1.06-13.68,4.7-10.61,7.94-19.27,22.58-23.46,34.95-1.07,3.16-2.63,5.66-.98,8.25,2.03,3.2,7.05,3.41,10.23,3.47,7.69,.15,15.69,1.32,22.9,3.65,8.1,2.62,13.73,1.56,19.81-4.67,5.02-5.15,7.94-9.02,9.87-15.98,2.6-9.34-2.34-14.17-8.9-20.56l5.92-3.95Z"/><path class="fa" d="M970.19,401.89c-10.84,6.85-27.6,14.63-31.17,28.11-1.46,5.49-.97,7.51,4.51,7.45,4.74-.05,10-1.7,14.43-3.44,9.41-3.7,18.39-8.87,22.67-18.35,2.64-5.83,2.25-14.3-.58-19.69l-9.87,5.92Z"/><path class="fa" d="M376.11,494.65c-8.06-1.12-20.31-4.41-28.47-.11-7.22,3.81-10.12,17.88-11.54,25.38-1.13,5.97-6.26,16.37-3.07,22.18,2.67,4.86,11.01,4.84,15.45,5.84,18.94,4.26,39.66,9.18,53.37-8.4,5.55-7.12,7.36-15.12,5.62-24.07-2.68-13.82-18.17-21.1-29.39-26.75l-1.97,5.92Z"/><path class="eq" d="M929.51,658.09c-8.4,11.76-50.14,57.1-176.73,23.69,0,0-47.43,15.28-41.51-7.61,.11-.48,.25-1.02,.45-1.52,0,0-73.15,23.77-153.44,0,0,0-111.5,103.83-189.31-10.63,0,0,47.72,59.44,99.19,46.8,60.9-14.96,69.98-62.48,69.98-62.48,0,0,24.51,21.88,81.36,24.53,54.31,2.57,102.87-13.11,107.16-14.52-2.09,.85-14.41,6.12-11.14,13.99,3.58,8.57,32.2,4.54,53.69-2.28l5.56-13.17s7.39,15.45,25.01,16.53l-25.01,1.61s38.94,17.88,83.56,7.61c44.58-10.29,65.28-31.67,65.28-31.67l5.89,9.14Z"/><path class="ed" d="M774.08,489.47c-2.61,4.12-4.21,7.59-5.67,12.22-2.04,6.52-4.81,12.69-7.87,18.79-2.68,5.33-5.2,10.98-8.89,15.68-2.02,2.58-3.89,5.2-6.41,7.33-2.45,2.06-4.95,4.11-7.48,6.08-11.12,8.69-21.28,18.12-34,24.55-13.78,6.96-29.64,5.7-44.41,3.67-3.71-.51-7-2.01-10.4-3.53-2.63-1.18-5.37-2.28-7.44-4.34-3.35-3.33-3.61-7.62-1.44-11.71,2.42-4.56,6.82-6.95,11.04-9.61,2.06-1.3,3.86-2.8,5.76-4.3,1.94-1.53,4.25-2.57,6.09-4.21,1.52-1.36,2.73-3.02,4.34-4.29,2.07-1.64,4.2-3.03,6.13-4.84,4.02-3.79,9.32-6.02,13.71-9.42,1.95-1.51,4.02-2.79,6-4.24,2.08-1.53,3.65-3.4,5.41-5.28,4.14-4.42,7.27-9.54,10.83-14.46,2.61-3.61,4.89-7.49,8.13-10.57,4.87-4.64,10.67-8.61,16.72-11.52,7.79-3.74,17.97-6.49,26.5-3.44,4.3,1.53,8.64,4.66,9.71,9.29,.26,1.14,.9,2.73,.7,3.89-.27,1.6-2.17,2.54,2.92,4.27Z"/><path class="ed" d="M791.18,475.94c-1.61,1.29-3.74,2.63-4.99,4.37-1.43,1.99-2.69,4.24-3.91,6.37-2.59,4.56-5.14,8.1-5.93,13.32-1.43,9.48,7.47,16.83,16.2,17.86,5.34,.63,10.86,.81,16.24,.83,5.25,.02,11.51-.18,16.53-1.73,4.54-1.4,8.38-4.12,10.63-8.4,.88-1.68,.87-3.6,1.51-5.37,.74-2.05,1.24-3.83,1.62-6.02,.45-2.53,.96-5.04,1.39-7.57,.44-2.55,1.44-4.29,2.54-6.6,.88-1.87,1.53-3.47,2.98-4.95,1.37-1.4,2.6-2.58,3.62-4.24,2.25-3.69,4.32-6.24,3.18-10.7-1.19-4.67-5.09-7.57-10.05-7.06-6.07,.61-11.42,3.64-16.62,6.55-5.1,2.86-10.63,4.55-16.33,5.71-3.09,.63-6.25,.16-9.27,1.12-7.34,2.33-12.55,7.79-9.35,6.51Z"/></g><g><path class="dq" d="M175.76,470.71h0c-2.9,0-5.24-2.35-5.24-5.25v-34.19c0-2.9,2.35-5.25,5.24-5.25h0c2.9,0,5.25,2.35,5.25,5.25v34.19c0,2.9-2.35,5.25-5.25,5.25Z"/><path class="dy" d="M120.62,888.25h0c-1.55-2.45-.82-5.69,1.62-7.24l28.88-18.3c2.45-1.55,5.69-.82,7.24,1.62h0c1.55,2.45,.82,5.69-1.62,7.24l-28.88,18.3c-2.45,1.55-5.69,.82-7.24-1.62Z"/><path class="ck" d="M688.57,544.46h0c.63-2.83,3.43-4.61,6.25-3.99l33.38,7.39c2.83,.63,4.61,3.43,3.99,6.25h0c-.63,2.83-3.43,4.61-6.25,3.99l-33.38-7.39c-2.83-.63-4.61-3.43-3.99-6.25Z"/><path class="dr" d="M153.86,805.84h0c-1.96-2.13-1.82-5.45,.32-7.41l25.19-23.12c2.13-1.96,5.45-1.82,7.41,.32h0c1.96,2.13,1.82,5.45-.32,7.41l-25.19,23.12c-2.13,1.96-5.45,1.82-7.41-.32Z"/><path class="dj" d="M917.46,112.92h0c-1.96-2.13-1.82-5.45,.32-7.41l25.19-23.12c2.13-1.96,5.45-1.82,7.41,.32h0c1.96,2.13,1.82,5.45-.32,7.41l-25.19,23.12c-2.13,1.96-5.45,1.82-7.41-.32Z"/><path class="cg" d="M809.83,683.05h0c-2.83-.63-4.61-3.43-3.99-6.25l7.39-33.38c.63-2.83,3.43-4.61,6.25-3.99h0c2.83,.63,4.61,3.43,3.99,6.25l-7.39,33.38c-.63,2.83-3.43,4.61-6.25,3.99Z"/><path class="dk" d="M923.01,86.08h0c-2.83-.63-4.61-3.43-3.99-6.25l7.39-33.38c.63-2.83,3.43-4.61,6.25-3.99h0c2.83,.63,4.61,3.43,3.99,6.25l-7.39,33.38c-.63,2.83-3.43,4.61-6.25,3.99Z"/><path class="cv" d="M945.99,353.88h0c-2.13,1.96-5.45,1.82-7.41-.32l-23.12-25.19c-1.96-2.13-1.82-5.45,.32-7.41h0c2.13-1.96,5.45-1.82,7.41,.32l23.12,25.19c1.96,2.13,1.82,5.45-.32,7.41Z"/><path class="ct" d="M154.6,200.55h0c-2.13,1.96-5.45,1.82-7.41-.32l-23.12-25.19c-1.96-2.13-1.82-5.45,.32-7.41h0c2.13-1.96,5.45-1.82,7.41,.32l23.12,25.19c1.96,2.13,1.82,5.45-.32,7.41Z"/><path class="eb" d="M246.46,338.74h0c-.5-2.85,1.41-5.57,4.27-6.07l33.68-5.87c2.85-.5,5.57,1.41,6.07,4.27h0c.5,2.85-1.41,5.57-4.27,6.07l-33.68,5.87c-2.85,.5-5.57-1.41-6.07-4.27Z"/><path class="ch" d="M323.47,104.13h0c-2.13-1.96-2.27-5.28-.3-7.41l23.17-25.14c1.96-2.13,5.28-2.27,7.41-.3h0c2.13,1.96,2.27,5.28,.3,7.41l-23.17,25.14c-1.96,2.13-5.28,2.27-7.41,.3Z"/><path class="cq" d="M668.83,480.37h0c-2.38-1.64-2.98-4.91-1.34-7.3l19.41-28.15c1.64-2.38,4.91-2.98,7.3-1.34h0c2.38,1.64,2.98,4.91,1.34,7.3l-19.41,28.15c-1.64,2.38-4.91,2.98-7.3,1.34Z"/><path class="df" d="M829.36,936.33h0c1.45-2.51,4.66-3.37,7.16-1.92l29.61,17.1c2.51,1.45,3.37,4.66,1.92,7.16h0c-1.45,2.51-4.66,3.37-7.16,1.92l-29.61-17.1c-2.51-1.45-3.37-4.66-1.92-7.16Z"/><path class="de" d="M.7,2.62H.7C2.15,.11,5.36-.74,7.87,.7l29.61,17.1c2.51,1.45,3.37,4.66,1.92,7.16h0c-1.45,2.51-4.66,3.37-7.16,1.92L2.62,9.79C.11,8.34-.74,5.13,.7,2.62Z"/><path class="cp" d="M693.7,189.1h0c-2.38-1.64-2.98-4.91-1.34-7.3l19.41-28.15c1.64-2.38,4.91-2.98,7.3-1.34h0c2.38,1.64,2.98,4.91,1.34,7.3l-19.41,28.15c-1.64,2.38-4.91,2.98-7.3,1.34Z"/><path class="e`" d="M143.39,364.08h0c.37-2.87,3-4.9,5.87-4.53l33.91,4.38c2.87,.37,4.9,3,4.53,5.87h0c-.37,2.87-3,4.9-5.87,4.53l-33.91-4.38c-2.87-.37-4.9-3-4.53-5.87Z"/><path class="du" d="M871.29,876.03h0c.37-2.87,3-4.9,5.87-4.53l33.91,4.38c2.87,.37,4.9,3,4.53,5.87h0c-.37,2.87-3,4.9-5.87,4.53l-33.91-4.38c-2.87-.37-4.9-3-4.53-5.87Z"/><path class="dx" d="M825.4,353.46h0c.37-2.87,3-4.9,5.87-4.53l33.91,4.38c2.87,.37,4.9,3,4.53,5.87h0c-.37,2.87-3,4.9-5.87,4.53l-33.91-4.38c-2.87-.37-4.9-3-4.53-5.87Z"/><path class="ea" d="M435.39,121.9h0c.37-2.87,3-4.9,5.87-4.53l33.91,4.38c2.87,.37,4.9,3,4.53,5.87h0c-.37,2.87-3,4.9-5.87,4.53l-33.91-4.38c-2.87-.37-4.9-3-4.53-5.87Z"/></g><g><circle class="fd" cx="171.62" cy="664.73" r="64.95" transform="translate(-495.49 826.84) rotate(-89.18)"/><g><path class="ci" d="M199.39,606.05c.5,21.05-6.73,41.33-27.22,59.52t-.03,.05l-.11,.09s0,.02-.02,.03c0,0-.02,.03-.04,.03h-.02s-.03,.06-.08,.07v.02h-.04s-.02,.04-.03,.06c-.02,.03-.05,.06-.1,.07-.09,.11-.2,.2-.31,.3,.1-.16,.18-.29,.26-.44,0,0,0-.02,.02,0l.05-.08v-.02s.03-.03,.03-.05l.02-.03s.04-.03,.05-.06v-.02s.01-.03,.03-.03c.02,0,.02-.03,.03-.05,.03-.05,.09-.11,.09-.18,14.59-23.27,15.93-44.77,9.6-64.77,6.22,.95,12.21,2.82,17.81,5.5Z"/><path class="dn" d="M172.28,665.16c-.1,.16-.18,.29-.28,.45l-.03,.05v.02h-.02s-.02,.03-.01,.05t-.03,.05s-.04,.03-.03,.05h-.02s-.02,0-.02,.03c-.02,0-.02,.03-.03,.05-.03,.05-.09,.11-.09,.18-14.11,22.51-15.83,43.33-10.19,62.77-6.01-.92-11.81-2.71-17.24-5.27-.06-20.41,7.34-40.05,27.22-57.72t.03-.05s.07-.08,.13-.12h.02s0-.03,.02-.03c.03,.02,.02,0,.02,0t.02-.03s.04-.03,.05-.06h.02s.02-.03,.04-.04c0-.02,.02-.03,.04-.03v-.02s.05-.04,.09-.07c.09-.09,.21-.18,.3-.27Z"/><path class="ec" d="M233.8,646.04c-14.81,13.8-34.06,21.75-61.53,19.84-.04,0-.09,0-.14-.01-.04,0-.09,0-.16,0h-.02s-.02,0-.05,0h-.02v-.02h-.03s-.02,.03-.04,.01h-.02s-.05,0-.07,0v-.02s-.05,0-.05,0c-.03-.02-.02,0-.02,0-.02,0-.07,0-.12-.02-.13,0-.27,0-.41-.02l.51-.12s.02,0,.02,0c.03,.02,.04,0,.04,0,.03,.02,.02,0,.02,0h.02s.02,0,.02,0c.05,.01,.09,0,.13-.03,.03,.02,.02,0,.02,0,.03,.02,.05,.01,.06-.01,0,0,0-.02,.02,0h.04s.09,0,.13-.04c26.91-5.85,43.27-18.99,53.74-36.5,3.39,5.12,6.08,10.82,7.88,16.97Z"/><path class="dw" d="M172.55,665.63l-.49,.11s-.02,0-.02,0c-.03-.02-.05-.01-.06,.01h-.02s-.04,.01-.04,.01c-.05-.01-.09,0-.11,.02-.03-.02-.02,0-.02,0-.03-.02-.05-.01-.06,.01-.03-.02-.04,0-.04,0-.03-.02-.02,0-.02,0-.07,0-.11,0-.15,.03-26.55,5.77-42.81,18.64-53.29,35.79-3.44-4.95-6.22-10.43-8.2-16.38,14.81-13.73,34.02-21.63,61.42-19.73,.04,0,.09,0,.14,.01,.04,0,.09,0,.16,0,.02,0,.04,0,.07,0h.02v.02s.05,0,.07-.01l.03,.02s.04,0,.07,0c0,0,0-.02,.02,0h.04s.05,0,.1,.01c.13,0,.27,0,.41,.02Z"/><path class="dc" d="M235.61,675.85c-1.04,6.08-2.97,11.95-5.68,17.43-20.49,.1-40.19-7.28-57.92-27.22-.05-.01-.05-.03-.06-.05-.05-.03-.08-.07-.12-.13t-.03-.02s-.03-.02-.03-.04v-.02s-.04-.04-.06-.03v-.02s-.03-.02-.04-.04t-.03-.02l-.09-.11c-.09-.09-.18-.21-.27-.3,.13,.08,.29,.18,.42,.26l.03,.02,.05,.03h.02v.02s.06,.03,.08,.03l.03,.02s.03,.02,.03,.04h.02s.03,.03,.05,.03c0,0,0,.04,.03,.04,.06,.05,.13,.08,.21,.13,22.72,14.22,43.76,15.82,63.34,9.97Z"/><path class="do" d="M172.4,666.16l-.45-.28-.05-.03h-.02v-.02h-.03s-.03-.03-.05-.03l-.03-.02s-.03-.04-.05-.03v-.02s-.03-.02-.06-.03c0,0,0-.02-.03-.02-.06-.05-.13-.08-.21-.13-23.03-14.42-44.31-15.87-64.13-9.77,.83-6.14,2.56-12.06,5.07-17.62,20.97-.46,41.19,6.81,59.32,27.22,.05,.01,.05,.03,.06,.05,.05,.03,.08,.07,.11,.11,0,0,.03,.02,.03,.04l.03,.02v.04s.04,.02,.04,.04h.02s.03,.03,.04,.05t.03,.02l.09,.11c.09,.09,.18,.21,.27,.3Z"/><path class="d`" d="M207.26,719.04c-5,3.3-10.56,5.93-16.55,7.74-13.3-14.7-20.89-33.74-19-60.69,0-.02-.01-.06,0-.11,0-.04,0-.09,.01-.14v-.02s-.01-.04,0-.07v-.02s0-.05,0-.07h.02v-.03s0-.05-.02-.06c0,0,0-.02,.02-.03,0-.04,0-.07,0-.11,.01-.14,.02-.3,.04-.44l.12,.51s0,.07,.02,.09v.04s0,.07,.03,.09t0,.04s0,.04,.02,.09t0,.04s0,.11,.03,.15c5.71,26.27,18.36,42.49,35.25,52.99Z"/><path class="dd" d="M171.98,665.31s.01,.06,0,.11c0,.04,0,.11,0,.18,0,0,0,.02-.01,.05v.02s0,.05,0,.09h-.02s0,.05,.02,.09h-.02s.03,.02,0,.03c0,.04,0,.07,0,.11-.01,.14-.02,.3-.04,.44l-.12-.51s.01-.05-.01-.06t0-.04v-.02s0-.07-.03-.11v-.04s0-.05-.02-.06t0-.04s0-.11-.03-.15c-5.9-27.2-19.22-43.6-37-54.07,5.04-3.51,10.67-6.34,16.76-8.31,14.25,14.92,22.51,34.36,20.54,62.31Z"/></g><path class="cl" d="M234.95,650.31c1.97,8.65,2.11,17.29,.66,25.53-1.04,6.08-2.97,11.95-5.68,17.43-5.06,10.36-12.86,19.31-22.68,25.77-5,3.3-10.56,5.93-16.55,7.74-1.53,.48-3.1,.91-4.68,1.27-8.31,1.89-16.6,2.09-24.51,.81-6.01-.92-11.81-2.71-17.24-5.27-10.4-4.8-19.46-12.34-26.07-21.93-3.44-4.95-6.22-10.43-8.2-16.38-.66-2.01-1.24-4.06-1.71-6.15-1.8-7.91-2.06-15.78-1-23.35,.83-6.14,2.56-12.06,5.07-17.62,4.79-10.73,12.49-20.08,22.32-26.85,5.04-3.51,10.67-6.34,16.76-8.31,1.88-.63,3.8-1.16,5.77-1.6,8.25-1.88,16.49-2.09,24.37-.85,6.22,.95,12.21,2.82,17.81,5.5,10.67,5.03,19.91,12.95,26.52,23.02,3.39,5.12,6.08,10.82,7.88,16.97,.45,1.4,.82,2.82,1.15,4.28Z"/><circle class="el" cx="171.62" cy="664.73" r="35.23" transform="translate(-324.87 190.59) rotate(-31.84)"/><path class="cr" d="M205.98,656.9c.39,1.71,.64,3.4,.76,5.11-6.17-16.06-23.37-25.56-40.65-21.63-17.28,3.93-28.68,19.94-27.29,37.08-.63-1.59-1.14-3.22-1.53-4.93-4.32-18.97,7.57-37.85,26.54-42.17,18.97-4.32,37.85,7.57,42.17,26.54Z"/><path class="cm" d="M189.12,607.54s11.16,18.48,25.97,19.97c0,0-4.37-16.74-25.97-19.97Z"/><path class="cm" d="M140.33,714.35s10.76,10.92,31.49,10.46c0,0-17.91-5.63-31.49-10.46Z"/><path class="cm" d="M182.83,724.01s11.16-.84,16.5-5.46l-16.5,5.46Z"/></g><g><circle class="fj" cx="808.39" cy="216.54" r="72.41" transform="translate(144.61 726.22) rotate(-52.51)"/><g><path class="dv" d="M857.94,163.77c-6.67,22.51-21.28,41.55-49.24,53.84t-.05,.04l-.15,.06s0,.02-.03,.02c0,0-.03,.02-.05,.02h-.02s-.05,.04-.1,.04v.02h-.05s-.03,.02-.05,.04c-.03,.02-.08,.04-.13,.04-.13,.09-.28,.15-.44,.21,.16-.13,.29-.24,.43-.38,0,0,0-.02,.02,0l.08-.07v-.02q.05-.02,.06-.04l.03-.02q.05-.02,.08-.04v-.02s.03-.02,.05-.02,.03-.02,.05-.04c.05-.04,.13-.09,.16-.16,23.44-19.7,32.21-42.06,32.34-65.44,6.27,3.13,12,7.17,17.02,11.93Z"/><path class="dt" d="M808.95,217.22c-.16,.13-.29,.24-.45,.38l-.05,.04v.02h-.03s-.03,.02-.03,.04q-.05,.02-.05,.04t-.05,.04h-.02s-.02,0-.03,.02c-.02,0-.03,.02-.05,.04-.05,.04-.13,.09-.16,.16-22.68,19.06-31.61,40.56-32.28,63.11-6.06-3.04-11.6-6.91-16.49-11.49,6.92-21.68,21.48-39.99,48.63-51.93t.05-.04c.05-.02,.1-.06,.18-.08h.02s0-.02,.03-.02c.02,.03,.02,0,.02,0t.03-.02s.05-.02,.08-.04h.02s.03-.02,.05-.02c0-.02,.03-.02,.05-.02v-.02s.08-.02,.13-.04c.13-.06,.28-.12,.41-.18Z"/><path class="dl" d="M880.76,217.97c-20.44,9.57-43.58,11.43-72.07,0-.05,0-.1-.03-.14-.06-.05,0-.1-.03-.17-.06h-.02s-.02,0-.05-.03h-.02v-.03h-.02s-.03,.02-.05,0h-.02s-.05-.03-.07-.03v-.02s-.05,0-.05,0c-.02-.03-.02,0-.02,0-.02,0-.07-.03-.12-.06-.14-.04-.29-.1-.43-.16l.58,.05s.02,0,.02,0c.02,.03,.05,0,.05,0,.02,.03,.02,0,.02,0h.02s.02,0,.02,0c.05,.03,.1,.03,.15,.01,.02,.03,.02,0,.02,0,.02,.03,.05,.03,.07,0,0,0,0-.02,.02,0h.05s.1,.04,.15,.02c30.56,2.99,52.41-5.35,69.51-20.34,1.85,6.59,2.75,13.56,2.56,20.7Z"/><path class="da" d="M809.07,217.81l-.56-.05s-.02,0-.02,0c-.02-.03-.05-.03-.07,0h-.02s-.05,0-.05,0c-.05-.03-.1-.03-.12-.01-.02-.03-.02,0-.02,0-.02-.03-.05-.03-.07,0-.02-.03-.05,0-.05,0-.02-.03-.02,0-.02,0-.07-.03-.12-.04-.17-.02-30.15-2.96-51.8,5.13-68.79,19.74-1.96-6.43-3.03-13.19-3.1-20.19,20.41-9.5,43.5-11.31,71.92,.08,.05,0,.1,.03,.14,.06,.05,0,.1,.03,.17,.06,.02,0,.05,0,.07,.03h.02v.03s.05,0,.07,0l.02,.03s.05,0,.07,.03c0,0,0-.02,.02,0h.05s.05,.03,.09,.06c.14,.04,.29,.1,.43,.16Z"/><path class="ce" d="M872.49,250.22c-3.19,6.09-7.24,11.67-11.98,16.55-21.78-6.9-40.16-21.47-52.15-48.7-.05-.03-.04-.05-.04-.08-.04-.05-.06-.1-.08-.18t-.02-.03s-.02-.03-.02-.05v-.02q-.02-.05-.04-.05v-.02s-.02-.03-.02-.05t-.02-.03l-.06-.15c-.06-.13-.12-.28-.18-.41,.11,.13,.24,.29,.35,.42l.02,.03,.04,.05h.02v.03s.04,.05,.07,.06l.02,.03s.02,.03,.02,.05h.02c0,.05,.02,.05,.04,.06,0,0,0,.05,.02,.05,.04,.08,.11,.13,.18,.21,19.24,22.86,41.02,31.75,63.8,32.25Z"/><path class="co" d="M808.73,218.32l-.38-.45-.04-.05h-.02v-.03h-.02q-.02-.05-.04-.05l-.02-.03q-.02-.05-.04-.05v-.02s-.02-.03-.04-.05c0,0,0-.02-.02-.03-.04-.08-.11-.13-.18-.21-19.51-23.18-41.58-32-64.71-32.3,2.98-6.24,6.84-11.93,11.41-16.97,22.41,6.69,41.38,21.31,53.63,49.17,.05,.03,.04,.05,.04,.08,.04,.05,.06,.1,.08,.15,0,0,.02,.03,.02,.05l.02,.03v.05s.02,.03,.02,.05h.02s.02,.05,.02,.08t.02,.03c.02,.05,.04,.1,.06,.15,.06,.13,.12,.28,.18,.41Z"/><path class="cy" d="M827.63,286.35c-6.44,1.79-13.23,2.68-20.21,2.55-9.08-20.15-10.62-42.95,.6-70.89,0-.02,0-.07,.04-.12,0-.05,.03-.1,.06-.14v-.02s0-.05,.03-.07v-.02s.03-.05,.03-.07h.02v-.02s.03-.05,0-.07c0,0,0-.02,.03-.02,0-.05,.03-.07,.04-.12,.06-.14,.13-.31,.19-.45l-.05,.58s-.03,.07,0,.1v.05s-.04,.07-.01,.1t0,.05s0,.05,0,.1t0,.05s-.04,.12-.01,.17c-2.93,29.83,4.95,51.37,19.27,68.28Z"/><path class="cn" d="M808.58,217.28s0,.07-.04,.12c0,.05-.04,.12-.07,.19,0,0,0,.02-.03,.05v.02s-.03,.05-.04,.1h-.02s0,.05,0,.1h-.02s.02,.02,0,.02c0,.05-.03,.07-.04,.12-.06,.14-.13,.31-.19,.45l.05-.58s.03-.05,0-.07t0-.05v-.02s.03-.07,.01-.12v-.05s.03-.05,.01-.07t0-.05s.04-.12,.02-.17c3.05-30.87-5.48-52.84-20.76-70.03,6.55-2,13.49-3.08,20.63-3.08,10.02,20.7,12.14,44.16,.48,73.14Z"/></g><path class="cs" d="M880.52,222.9c-.87,9.85-3.67,19.07-8.03,27.32-3.19,6.09-7.24,11.67-11.98,16.55-8.91,9.27-20.26,16.09-32.87,19.58-6.44,1.79-13.23,2.68-20.21,2.55-1.79-.01-3.6-.1-5.4-.26-9.47-.84-18.33-3.46-26.29-7.52-6.06-3.04-11.6-6.91-16.49-11.49-9.39-8.65-16.43-19.75-20.16-32.19-1.96-6.43-3.03-13.19-3.1-20.19-.01-2.36,.07-4.73,.29-7.11,.8-9,3.21-17.45,6.93-25.11,2.98-6.24,6.84-11.93,11.41-16.97,8.76-9.75,20.12-17.03,32.86-20.86,6.55-2,13.49-3.08,20.63-3.08,2.21-.03,4.43,.07,6.67,.27,9.39,.83,18.21,3.42,26.15,7.44,6.27,3.13,12,7.17,17.02,11.93,9.6,8.99,16.7,20.55,20.26,33.5,1.85,6.59,2.75,13.56,2.56,20.7,0,1.64-.09,3.28-.24,4.93Z"/><path class="db" d="M847.52,219.99c-1.91,21.61-20.98,37.58-42.59,35.67-21.61-1.91-37.58-20.98-35.67-42.59s20.98-37.58,42.59-35.67c21.61,1.91,37.58,20.98,35.67,42.59Z"/><path class="ds" d="M847.52,219.99c-.17,1.95-.49,3.83-.94,5.68-1.05-19.15-16.05-35.11-35.73-36.85-19.69-1.74-37.25,11.35-41.64,30.01-.13-1.9-.1-3.81,.07-5.76,1.91-21.61,20.98-37.58,42.58-35.67,21.61,1.91,37.58,20.98,35.67,42.58Z"/><path class="cm" d="M846.52,161.84s5.52,23.42,20.73,30.07c0,0,1.09-19.26-20.73-30.07Z"/><path class="cm" d="M758.21,258.49s7.68,15.27,29.84,21.87c0,0-17.07-12.1-29.84-21.87Z"/><path class="cm" d="M800.01,283.27s12.13,2.93,19.37-.15l-19.37,.15Z"/></g></g></g></g></g></svg>