<?xml version="1.0" encoding="UTF-8"?><svg xmlns="http://www.w3.org/2000/svg" xmlns:xlink="http://www.w3.org/1999/xlink" viewBox="0 0 1972.38 1972.38"><defs><style>.e{fill:#a475d3;}.f{fill:#ffe8b3;}.g{fill:url(#d);}</style><linearGradient id="d" x1="-78.13" y1="1879.27" x2="2050.52" y2="93.12" gradientTransform="matrix(1, 0, 0, 1, 0, 0)" gradientUnits="userSpaceOnUse"><stop offset="0" stop-color="#ba00d2"/><stop offset=".38" stop-color="#9027ae"/><stop offset=".5" stop-color="#803bc5"/><stop offset=".7" stop-color="#6c56e4"/><stop offset=".87" stop-color="#5f67f8"/><stop offset=".98" stop-color="#5b6dff"/></linearGradient></defs><g id="a"/><g id="b"><g id="c"><g><rect class="g" width="1972.38" height="1972.38"/><g><circle class="f" cx="597.79" cy="570.1" r="5.98"/><circle class="f" cx="812.93" cy="1137.94" r="5.98"/><circle class="f" cx="1002.56" cy="1885.95" r="5.98"/><path class="f" d="M1803.44,171.52c0,3.3-2.68,5.98-5.98,5.98s-5.98-2.68-5.98-5.98,2.68-5.98,5.98-5.98,5.98,2.68,5.98,5.98Z"/><circle class="f" cx="235.08" cy="1430.13" r="5.98"/><path class="f" d="M77.83,1099.74c0,3.3-2.68,5.98-5.98,5.98s-5.98-2.68-5.98-5.98,2.68-5.98,5.98-5.98,5.98,2.68,5.98,5.98Z"/><circle class="f" cx="372.32" cy="331.92" r="5.98"/><circle class="f" cx="206.47" cy="370.06" r="5.98"/><circle class="f" cx="438.97" cy="1565.71" r="5.98"/><path class="f" d="M1859.77,1489.03c0,3.3-2.68,5.98-5.98,5.98s-5.98-2.68-5.98-5.98,2.68-5.98,5.98-5.98,5.98,2.68,5.98,5.98Z"/><circle class="f" cx="1765.8" cy="1924.4" r="5.98"/><circle class="f" cx="51.39" cy="533.79" r="5.98"/><path class="f" d="M1859.77,685.99c0,3.3-2.68,5.98-5.98,5.98s-5.98-2.68-5.98-5.98,2.68-5.98,5.98-5.98,5.98,2.68,5.98,5.98Z"/><circle class="f" cx="1681.68" cy="184.42" r="5.98"/><circle class="f" cx="1639.65" cy="1409.78" r="5.98"/><path class="f" d="M1588.74,184.42c0,3.3-2.68,5.98-5.98,5.98s-5.98-2.68-5.98-5.98,2.68-5.98,5.98-5.98,5.98,2.68,5.98,5.98Z"/><circle class="f" cx="1134.53" cy="97.63" r="5.98"/><path class="f" d="M1821.63,1120.46c0,3.3-2.68,5.98-5.98,5.98s-5.98-2.68-5.98-5.98,2.68-5.98,5.98-5.98,5.98,2.68,5.98,5.98Z"/><circle class="f" cx="1618.49" cy="668.32" r="5.98"/><path class="f" d="M984.21,519.59c0,3.3-2.68,5.98-5.98,5.98s-5.98-2.68-5.98-5.98,2.68-5.98,5.98-5.98,5.98,2.68,5.98,5.98Z"/><circle class="f" cx="391.21" cy="1347.95" r="5.98"/><path class="f" d="M1445.95,1027.8c0,3.3-2.68,5.98-5.98,5.98s-5.98-2.68-5.98-5.98,2.68-5.98,5.98-5.98,5.98,2.68,5.98,5.98Z"/><circle class="f" cx="167.26" cy="1905.13" r="5.98"/><circle class="f" cx="652.4" cy="125.09" r="5.98"/><circle class="f" cx="1708.56" cy="1596.04" r="5.98"/><path class="f" d="M1577.11,364.24c0,3.3-2.68,5.98-5.98,5.98s-5.98-2.68-5.98-5.98,2.68-5.98,5.98-5.98,5.98,2.68,5.98,5.98Z"/><circle class="f" cx="1477.12" cy="22.36" r="5.98"/><circle class="f" cx="130.57" cy="1832.58" r="5.98"/><path class="f" d="M372.32,1090.23c0,3.3-2.68,5.98-5.98,5.98s-5.98-2.68-5.98-5.98,2.68-5.98,5.98-5.98,5.98,2.68,5.98,5.98Z"/><path class="f" d="M234.76,1004.99c0,3.3-2.68,5.98-5.98,5.98s-5.98-2.68-5.98-5.98,2.68-5.98,5.98-5.98,5.98,2.68,5.98,5.98Z"/><path class="f" d="M1484.11,1667.09c0,3.3-2.68,5.98-5.98,5.98s-5.98-2.68-5.98-5.98,2.68-5.98,5.98-5.98,5.98,2.68,5.98,5.98Z"/><circle class="f" cx="385.23" cy="119.11" r="5.98"/><path class="f" d="M967.28,264.43c0,3.3-2.68,5.98-5.98,5.98s-5.98-2.68-5.98-5.98,2.68-5.98,5.98-5.98,5.98,2.68,5.98,5.98Z"/></g><g><circle class="e" cx="1832.73" cy="916.1" r="5.47"/><circle class="e" cx="1635.85" cy="396.46" r="5.47"/><path class="e" d="M913.68,196.72c0-3.02,2.45-5.47,5.47-5.47s5.47,2.45,5.47,5.47-2.45,5.47-5.47,5.47-5.47-2.45-5.47-5.47Z"/><circle class="e" cx="234.76" cy="230.19" r="5.47" transform="translate(-12.35 13.31) rotate(-3.17)"/><circle class="e" cx="561.16" cy="242.98" r="5.47"/><path class="e" d="M19.19,103.61c0-3.02,2.45-5.47,5.47-5.47s5.47,2.45,5.47,5.47-2.45,5.47-5.47,5.47-5.47-2.45-5.47-5.47Z"/><circle class="e" cx="1825.43" cy="823.47" r="5.47"/><path class="e" d="M1426.92,342.62c0-3.02,2.45-5.47,5.47-5.47s5.47,2.45,5.47,5.47-2.45,5.47-5.47,5.47-5.47-2.45-5.47-5.47Z"/><path class="e" d="M1736.48,570.39c0-3.02,2.45-5.47,5.47-5.47s5.47,2.45,5.47,5.47-2.45,5.47-5.47,5.47-5.47-2.45-5.47-5.47Z"/><path class="e" d="M1421.45,261.03c0-3.02,2.45-5.47,5.47-5.47s5.47,2.45,5.47,5.47-2.45,5.47-5.47,5.47-5.47-2.45-5.47-5.47Z"/><path class="e" d="M460.59,1296.72c0-3.02,2.45-5.47,5.47-5.47s5.47,2.45,5.47,5.47-2.45,5.47-5.47,5.47-5.47-2.45-5.47-5.47Z"/><path class="e" d="M729.42,1280.84c0-3.02,2.45-5.47,5.47-5.47s5.47,2.45,5.47,5.47-2.45,5.47-5.47,5.47-5.47-2.45-5.47-5.47Z"/><path class="e" d="M555.69,1677.3c0-3.02,2.45-5.47,5.47-5.47s5.47,2.45,5.47,5.47-2.45,5.47-5.47,5.47-5.47-2.45-5.47-5.47Z"/><path class="e" d="M1327.46,1695.86c0-3.02,2.45-5.47,5.47-5.47s5.47,2.45,5.47,5.47-2.45,5.47-5.47,5.47-5.47-2.45-5.47-5.47Z"/><path class="e" d="M206.47,1209.16c0-3.02,2.45-5.47,5.47-5.47s5.47,2.45,5.47,5.47-2.45,5.47-5.47,5.47-5.47-2.45-5.47-5.47Z"/><path class="e" d="M1972.38,691.12v9.51c-.79,.47-1.7,.71-2.64,.71-3,0-5.44-2.45-5.44-5.48s2.45-5.44,5.44-5.44c.95,0,1.85,.24,2.64,.71Z"/><path class="e" d="M299.02,264.43c0-3.02,2.45-5.47,5.47-5.47s5.47,2.45,5.47,5.47-2.45,5.47-5.47,5.47-5.47-2.45-5.47-5.47Z"/><path class="e" d="M217.33,455.84c0-3.02,2.45-5.47,5.47-5.47s5.47,2.45,5.47,5.47-2.45,5.47-5.47,5.47-5.47-2.45-5.47-5.47Z"/><path class="e" d="M1621.16,1511.13c0-3.02,2.45-5.47,5.47-5.47s5.47,2.45,5.47,5.47-2.45,5.47-5.47,5.47-5.47-2.45-5.47-5.47Z"/><circle class="e" cx="683.34" cy="810.04" r="5.47"/><circle class="e" cx="138.63" cy="743.14" r="5.47"/><path class="e" d="M835.37,1269.04c0-3.02,2.45-5.47,5.47-5.47s5.47,2.45,5.47,5.47-2.45,5.47-5.47,5.47-5.47-2.45-5.47-5.47Z"/><path class="e" d="M1336.08,1348.46c0-3.02,2.45-5.47,5.47-5.47s5.47,2.45,5.47,5.47-2.45,5.47-5.47,5.47-5.47-2.45-5.47-5.47Z"/><circle class="e" cx="718.25" cy="412.46" r="5.47"/><circle class="e" cx="1420.91" cy="845.6" r="5.47"/><path class="e" d="M1863.85,299.94c0-3.02,2.45-5.47,5.47-5.47s5.47,2.45,5.47,5.47-2.45,5.47-5.47,5.47-5.47-2.45-5.47-5.47Z"/><path class="e" d="M1916.83,472.59c0-3.02,2.45-5.47,5.47-5.47s5.47,2.45,5.47,5.47-2.45,5.47-5.47,5.47-5.47-2.45-5.47-5.47Z"/><path class="e" d="M455.12,898.55c0-3.02,2.45-5.47,5.47-5.47s5.47,2.45,5.47,5.47-2.45,5.47-5.47,5.47-5.47-2.45-5.47-5.47Z"/><path class="e" d="M1777.29,1323.33c0-3.02,2.45-5.47,5.47-5.47s5.47,2.45,5.47,5.47-2.45,5.47-5.47,5.47-5.47-2.45-5.47-5.47Z"/><path class="e" d="M351.4,564.92c0-3.02,2.45-5.47,5.47-5.47s5.47,2.45,5.47,5.47-2.45,5.47-5.47,5.47-5.47-2.45-5.47-5.47Z"/><path class="e" d="M488.7,964.94c0-3.02,2.45-5.47,5.47-5.47s5.47,2.45,5.47,5.47-2.45,5.47-5.47,5.47-5.47-2.45-5.47-5.47Z"/><path class="e" d="M1723.8,385.09c0-3.02,2.45-5.47,5.47-5.47s5.47,2.45,5.47,5.47-2.45,5.47-5.47,5.47-5.47-2.45-5.47-5.47Z"/><path class="e" d="M537.8,1826.65c0-3.02,2.45-5.47,5.47-5.47s5.47,2.45,5.47,5.47-2.45,5.47-5.47,5.47-5.47-2.45-5.47-5.47Z"/><path class="e" d="M1405.44,379.62c0-3.02,2.45-5.47,5.47-5.47s5.47,2.45,5.47,5.47-2.45,5.47-5.47,5.47-5.47-2.45-5.47-5.47Z"/><path class="e" d="M505.13,691.97c0-3.02,2.45-5.47,5.47-5.47s5.47,2.45,5.47,5.47-2.45,5.47-5.47,5.47-5.47-2.45-5.47-5.47Z"/><path class="e" d="M1708.76,1054.74c0-3.02,2.45-5.47,5.47-5.47s5.47,2.45,5.47,5.47-2.45,5.47-5.47,5.47-5.47-2.45-5.47-5.47Z"/><path class="e" d="M1061.16,644.08c0-3.02,2.45-5.47,5.47-5.47s5.47,2.45,5.47,5.47-2.45,5.47-5.47,5.47-5.47-2.45-5.47-5.47Z"/><circle class="e" cx="1118.66" cy="152.48" r="5.47"/><path class="e" d="M1013.71,420.8c0-3.02,2.45-5.47,5.47-5.47s5.47,2.45,5.47,5.47-2.45,5.47-5.47,5.47-5.47-2.45-5.47-5.47Z"/><circle class="e" cx="1141.42" cy="388.33" r="5.47"/><path class="e" d="M1261.83,466.33c0-3.02,2.45-5.47,5.47-5.47s5.47,2.45,5.47,5.47-2.45,5.47-5.47,5.47-5.47-2.45-5.47-5.47Z"/><circle class="e" cx="1397.78" cy="1858.52" r="5.47"/></g></g></g></g></svg>